<?xml version="1.0" encoding="UTF-8" standalone="no"?>
<svg
   xmlns:svg="http://www.w3.org/2000/svg"
   xmlns="http://www.w3.org/2000/svg"
   xmlns:sodipodi="http://sodipodi.sourceforge.net/DTD/sodipodi-0.dtd"
   xmlns:inkscape="http://www.inkscape.org/namespaces/inkscape"
   inkscape:version="1.1-dev (a1a64ec, 2020-05-08)"
   sodipodi:docname="affordable.svg"
   version="1.1"
   id="svg890"
   width="1062.212"
   height="544.66058"
   viewBox="0 0 1062.212 544.6606">
  <sodipodi:namedview
     inkscape:current-layer="svg890"
     inkscape:window-maximized="0"
     inkscape:window-y="23"
     inkscape:window-x="0"
     inkscape:cy="297.42525"
     inkscape:cx="444.57751"
     inkscape:zoom="0.67029931"
     showgrid="false"
     id="namedview827"
     inkscape:window-height="694"
     inkscape:window-width="1438"
     inkscape:pageshadow="2"
     inkscape:pageopacity="0"
     guidetolerance="10"
     gridtolerance="10"
     objecttolerance="10"
     borderopacity="1"
     bordercolor="#666666"
     pagecolor="#ffffff"
     fit-margin-top="1"
     lock-margins="true"
     fit-margin-left="1"
     fit-margin-right="1"
     fit-margin-bottom="1" />
  <defs
     id="defs894" />
  <g
     style="fill:#6c5353;fill-opacity:1"
     id="g896"
     transform="translate(-22.486497,148.18196)">
    <path
       style="fill:#6c5353;fill-opacity:1"
       d="m 343.82865,257.04779 c -1.35041,-1.37408 -0.78687,-4.34039 1,-5.2637 1.06322,-0.54938 4.15604,-0.49621 7.88085,0.13549 4.74575,0.80485 6.855,0.7398 9.33614,-0.28793 3.89941,-1.61518 10.02081,-9.50175 13.62623,-17.55547 2.03119,-4.53724 21.40678,-60.82492 21.40678,-62.18847 0,-0.14835 -2.25,-0.26973 -5,-0.26973 -2.75,0 -5,-0.45 -5,-1 0,-0.55204 2.60529,-1 5.81586,-1 5.75278,0 5.84047,-0.0438 8.08499,-4.03737 5.70656,-10.15345 18.67592,-19.13155 29.59915,-20.49013 6.10095,-0.75881 9.75196,1.19588 7.88021,4.21893 -1.15017,1.85764 -1.18113,1.85989 -15.04762,1.09399 -6.54675,-0.36161 -9.22123,1.87946 -13.98011,11.71458 l -3.38707,7 7.01729,0.29381 c 9.34237,0.39116 9.02676,2.20619 -0.38363,2.20619 h -7.40093 l -8.69582,25.93619 c -9.88031,29.46905 -14.1661,37.97347 -24.02586,47.67532 -3.41605,3.36133 -8.80151,7.37894 -11.96771,8.92801 -5.62366,2.7514 -15.26167,4.41362 -16.75875,2.89029 z m 553.44997,-0.62981 c -3.6816,-3.68164 0.8318,-5.99496 8.3065,-4.25741 4.1459,0.96373 5.9464,0.94389 8.9798,-0.099 5.5754,-1.91673 13.7658,-7.88078 22.5374,-16.41127 l 7.7452,-7.53236 1.1156,-14.05224 c 1.6077,-20.25246 1.4713,-36.58644 -0.3259,-39.00663 -1.9566,-2.63483 -3.952,-1.30176 -8.9039,5.94846 -4.2805,6.26708 -6.2859,6.98909 -2.536,0.91301 3.3389,-5.40998 8.9131,-11.36417 11.5926,-12.38294 3.6555,-1.38982 6.9329,0.47229 8.3411,4.73914 0.9179,2.78113 1.0758,8.55703 0.5963,21.81202 -0.3587,9.91605 -0.9092,19.15418 -1.2232,20.52918 -0.505,2.21104 -0.1538,2.03767 3.0387,-1.5 6.5424,-7.24978 13.5188,-16.9065 16.5509,-22.90972 2.5535,-5.05556 2.9849,-7.03784 2.9849,-13.71482 0,-6.5886 0.2902,-7.9604 1.8619,-8.80153 1.3146,-0.70356 2.3839,-0.61472 3.6379,0.30225 5.295,3.87178 -4.1887,22.97544 -21.997,44.30999 -4.4948,5.38487 -6.4579,8.63201 -6.9036,11.41918 -0.5355,3.34847 -0.9814,3.89465 -3.18,3.89465 -1.78,0 -5.1952,2.36474 -11.2381,7.78154 -10.3599,9.28645 -15.9962,13.26978 -24.4051,17.24787 -6.6563,3.14896 -14.3733,3.97328 -16.576,1.77063 z M 88.599124,228.6406 c -2.84278,-3.14123 -1.49291,-7.46424 9.44178,-30.2376 9.958716,-20.74071 11.606426,-25.78502 8.422616,-25.78502 -2.53093,0 -7.217656,5.68181 -26.601916,32.25 l -18.05771,24.75 h -3.86262 c -2.12444,0 -3.86262,-0.43783 -3.86262,-0.97295 0,-0.53512 6.95264,-18.38927 15.45031,-39.67589 8.49766,-21.28663 15.22111,-39.0738 14.94098,-39.52706 -0.28013,-0.45325 -2.28277,-0.8241 -4.45031,-0.8241 -6.75146,0 -4.31147,-1.75337 3.01618,-2.16742 5.21962,-0.29494 7.7171,-0.95497 10,-2.64279 1.99813,-1.47728 3.04284,-1.80522 3.04284,-0.95517 0,0.71197 -6.12333,16.58794 -13.60739,35.27993 -17.8978,44.70104 -17.68161,44.14115 -16.59822,42.98545 0.51559,-0.55 7.13008,-9.55 14.69889,-20 17.0476,-23.53707 21.963636,-29.37514 26.240616,-31.16218 2.79909,-1.16953 3.80779,-1.18435 6.06196,-0.0891 2.36329,1.14831 2.69763,1.88618 2.65248,5.85403 -0.0413,3.62981 -2.00279,8.59398 -9.78306,24.75901 -5.35228,11.1204 -9.986866,21.49618 -10.299096,23.05728 -1.07795,5.38975 1.58074,4.61999 8.299566,-2.40294 3.54528,-3.70576 6.6326,-6.55111 6.8607,-6.32301 0.81363,0.81362 -7.78998,10.35575 -11.772666,13.05688 -4.79694,3.25337 -7.78415,3.47891 -10.23331,0.77262 z m 37.242096,0.41199 c -8.40405,-4.55999 -8.42766,-20.76447 -0.0535,-36.7006 7.36689,-14.0192 18.38896,-22.85418 28.62649,-22.94618 13.13809,-0.11805 16.6378,8.76027 6.84311,17.36012 -4.65526,4.08737 -15.93461,9.39261 -24.38543,11.46968 l -6.70671,1.64839 -1.15269,5.55248 c -1.72789,8.3232 -0.7896,15.04869 2.49346,17.87266 1.4763,1.26986 3.37859,2.30884 4.22729,2.30884 3.36778,0 9.12554,-3.70282 14.58693,-9.38087 3.15786,-3.28314 5.98457,-5.72633 6.28157,-5.42934 0.297,0.297 -2.56791,3.86792 -6.36646,7.93537 -10.01932,10.72859 -17.66584,13.96017 -24.3941,10.30945 z M 139.912,195.7733 c 11.65971,-4.43034 19.6136,-13.16847 18.98022,-20.85164 -0.27632,-3.35188 -0.65298,-3.8425 -3.17106,-4.13048 -4.41722,-0.50517 -8.22862,1.59352 -13.63305,7.50683 -4.0558,4.43769 -11.00946,16.25693 -11.00946,18.71294 0,1.15836 4.00399,0.59736 8.83335,-1.23765 z m 28.04307,32.7211 c -1.88211,-1.88211 -2.06608,-2.9339 -1.61794,-9.25 1.05196,-14.82636 13.26665,-38.30635 24.13709,-46.3981 5.21303,-3.88049 9.92679,-4.62166 15.03168,-2.36352 2.42224,1.07146 5.16877,3.11521 6.10342,4.54166 2.38318,3.6372 4.17317,3.26043 9.14075,-1.92402 2.38072,-2.48466 4.32858,-4.29347 4.32858,-4.01957 0,0.27389 -4.725,12.72934 -10.5,27.67879 -5.775,14.94944 -10.5,27.75669 -10.5,28.46055 0,3.46208 2.76871,2.09218 9.1134,-4.50912 7.80804,-8.12383 9.10956,-8.00535 2.40975,0.21937 -7.44637,9.14121 -13.47208,11.73861 -17.61686,7.59383 -2.774,-2.774 -2.38814,-4.52647 5.57963,-25.34052 3.5654,-9.31383 6.09691,-16.51383 5.62559,-16 -0.47132,0.51383 -5.49047,7.90923 -11.15367,16.43423 -5.66319,8.525 -11.6615,17.20706 -13.32957,19.29347 -5.92004,7.40471 -12.67788,9.65692 -16.75185,5.58295 z m 15.0315,-6.42433 c 3.7535,-4.275 29.09208,-42.00324 29.09208,-43.31707 0,-1.44623 -7.85431,-8.13502 -9.55254,-8.13502 -2.84176,0 -7.20035,2.9002 -10.36659,6.89789 -8.4198,10.63087 -19.75909,42.12339 -17.19408,47.75299 1.35245,2.96829 3.28199,2.1988 8.02113,-3.19879 z m 91.84208,7.46781 c -3.60557,-2.10005 -2.20041,-8.10627 7.75,-33.12664 5.225,-13.13829 9.5,-24.09153 9.5,-24.34053 0,-0.249 -1.575,-0.45273 -3.5,-0.45273 -1.925,0 -3.5,-0.45 -3.5,-1 0,-0.55 1.82296,-1 4.05103,-1 3.67649,0 4.18483,-0.32025 5.49835,-3.46393 0.79603,-1.90517 2.46056,-3.98337 3.69897,-4.61824 1.23841,-0.63486 3.93915,-2.76742 6.00165,-4.73901 2.0625,-1.97159 3.75,-3.33028 3.75,-3.01931 0,0.31098 -1.35,3.8392 -3,7.84049 -1.65,4.00129 -3,7.43818 -3,7.63754 0,0.19935 2.7,0.36246 6,0.36246 8.16166,0 7.63825,1.83554 -0.62857,2.20431 l -6.62857,0.29569 -10.43634,26.35965 c -5.73999,14.49781 -10.18569,27.01285 -9.87933,27.8112 0.86721,2.25991 5.85834,-1.15 10.86244,-7.42116 2.31225,-2.8977 4.35336,-4.82071 4.53582,-4.27333 0.48611,1.45831 -6.70691,9.9115 -11.22549,13.19211 -4.07924,2.96164 -6.90845,3.4647 -9.84996,1.75143 z m 60.27492,-0.71019 c -9.75357,-5.38998 -10.46809,-20.07534 -1.80699,-37.13907 6.59619,-12.99554 17.6496,-21.92576 27.6785,-22.3619 6.11382,-0.26587 9.63304,1.63223 12.68643,6.84244 5.86005,9.99942 1.0642,28.53598 -11.12006,42.98043 -7.88894,9.35235 -20.1813,13.6882 -27.43788,9.6781 z m 16.10748,-6.10247 c 12.48446,-12.83787 22.51087,-43.319 16.45166,-50.01436 -2.76159,-3.05152 -7.45276,-2.69501 -12.48265,0.94862 -12.4849,9.04402 -25.51744,44.20872 -19.54471,52.73599 1.18284,1.68873 2.55203,2.22251 5.70094,2.22251 3.74181,0 4.70069,-0.57221 9.87476,-5.89276 z m 152.32215,5.43821 c -2.90248,-2.90247 -3.13071,-6.52929 -0.94013,-14.93951 5.39488,-20.71234 18.98214,-40.71191 29.46676,-43.3732 5.55534,-1.41009 8.66343,-0.4907 13.32173,3.94063 3.81764,3.63164 4.29971,3.81966 6.96389,2.71612 1.57428,-0.65209 3.95827,-2.79845 5.29776,-4.76969 1.33949,-1.97124 2.43544,-2.95491 2.43544,-2.18594 0,0.76897 -3.65673,10.88593 -8.12606,22.48213 -13.96254,36.22746 -12.9923,33.24089 -11.26472,34.67466 1.29402,1.07394 2.49998,0.22284 7.9362,-5.60095 3.52566,-3.77702 6.64446,-6.63315 6.93066,-6.34695 0.82798,0.82797 -10.41041,12.77193 -13.54044,14.39053 -5.62111,2.90679 -9.93564,0.89031 -9.93564,-4.64361 0,-1.63211 2.925,-10.65046 6.5,-20.04078 3.575,-9.39032 6.5,-17.35831 6.5,-17.70664 0,-0.34832 -5.22911,7.23967 -11.62024,16.86221 -12.19525,18.36128 -16.12634,23.24758 -20.5801,25.58086 -3.90267,2.04457 -6.55591,1.74933 -9.34511,-1.03987 z m 15.12245,-6.20472 c 2.01996,-2.4651 9.4516,-13.06416 16.51475,-23.55345 l 12.84209,-19.07145 -2.04576,-2.873 c -2.1424,-3.00873 -6.6829,-5.84283 -9.36076,-5.84283 -0.8646,0 -3.62638,1.89366 -6.13728,4.20813 -10.24482,9.44334 -25.14321,49.9672 -19.14004,52.06123 2.06526,0.72041 3.47519,-0.22801 7.327,-4.92863 z m 78.32929,6.56556 c -3.13978,-3.13978 -2.06208,-6.69064 9.07662,-29.90629 11.39782,-23.75572 11.77516,-24.77187 9.52013,-25.63721 -2.68542,-1.03049 -7.4962,4.53019 -27.15441,31.38721 l -18.48193,25.25 H 566.012 c -2.16334,0 -3.93335,-0.41443 -3.93335,-0.92096 0,-0.50654 4.71258,-12.19119 10.47239,-25.9659 5.75981,-13.77472 10.7586,-26.18528 11.10841,-27.57904 1.18513,-4.72194 -2.93417,-2.98021 -9.46614,4.00249 -7.17852,7.67385 -8.24591,6.67369 -1.41314,-1.32415 2.80561,-3.284 6.45996,-6.28102 9.06215,-7.4321 4.10981,-1.81796 4.50762,-1.8326 6.91609,-0.25451 2.2722,1.4888 2.50502,2.18981 2.10037,6.32428 -0.26792,2.73745 -3.82383,12.62411 -8.64582,24.03835 -4.5049,10.66365 -8.0539,19.52528 -7.88667,19.69251 0.16723,0.16724 7.04243,-8.96276 15.27821,-20.28887 20.93144,-28.78559 25.42877,-33.0213 31.69644,-29.85265 1.9233,0.97234 2.26865,1.92242 2.21949,6.10603 -0.049,4.17358 -1.66466,8.27692 -10.25,26.03278 -5.60548,11.59304 -10.19178,21.80399 -10.19178,22.69098 0,3.80431 2.57905,2.62248 9.1134,-4.17615 7.80804,-8.12383 9.10956,-8.00535 2.40975,0.21937 -7.44637,9.14121 -13.47208,11.73861 -17.61686,7.59383 z m 35.77751,0.6449 c -4.6646,-1.66361 -7.13216,-3.80521 -8.67442,-7.52854 -1.8207,-4.39556 -0.99322,-7.52265 1.99062,-7.52265 2.16724,0 2.74346,0.76918 4.32912,5.77879 2.12399,6.71039 4.83256,8.98235 10.6134,8.90257 8.88947,-0.12269 14.2412,-8.30755 11.00223,-16.82668 -0.58039,-1.52653 -3.48145,-5.94333 -6.44681,-9.8151 -2.96536,-3.87177 -6.1204,-8.7842 -7.0112,-10.91651 -2.84678,-6.81429 0.1842,-15.62274 6.75412,-19.62847 6.2433,-3.80659 18.57658,-1.94873 22.29375,3.35827 1.94906,2.78268 1.86132,6.55797 -0.17053,7.33766 -2.45565,0.94232 -4.4033,-0.76373 -5.92497,-5.18999 -1.59934,-4.65215 -3.75557,-6.50054 -7.58319,-6.50054 -5.84468,0 -10.85592,4.6942 -10.85592,10.1691 0,3.17909 3.26899,9.07242 8.75588,15.78506 5.3939,6.59888 7.25183,10.65416 7.22216,15.76372 -0.0755,13.00061 -13.30083,21.46734 -26.29424,16.83331 z m 39.19262,-0.67477 c -1.88211,-1.88211 -2.06608,-2.9339 -1.61794,-9.25 1.05196,-14.82636 13.26665,-38.30635 24.13709,-46.3981 5.21303,-3.88049 9.92679,-4.62166 15.03168,-2.36352 2.42224,1.07146 5.16877,3.11521 6.10342,4.54166 2.38318,3.6372 4.17317,3.26043 9.14075,-1.92402 2.38072,-2.48466 4.32858,-4.29347 4.32858,-4.01957 0,0.27389 -4.725,12.72934 -10.5,27.67879 -5.775,14.94944 -10.5,27.75669 -10.5,28.46055 0,3.46208 2.76871,2.09218 9.1134,-4.50912 7.80804,-8.12383 9.10956,-8.00535 2.40975,0.21937 -7.44637,9.14121 -13.47208,11.73861 -17.61686,7.59383 -2.774,-2.774 -2.38814,-4.52647 5.57963,-25.34052 3.5654,-9.31383 6.09691,-16.51383 5.62559,-16 -0.47132,0.51383 -5.49047,7.90923 -11.15367,16.43423 -5.66319,8.525 -11.6615,17.20706 -13.32957,19.29347 -5.92004,7.40471 -12.67788,9.65692 -16.75185,5.58295 z m 15.0315,-6.42433 c 3.7535,-4.275 29.09208,-42.00324 29.09208,-43.31707 0,-1.44623 -7.85431,-8.13502 -9.55254,-8.13502 -2.84176,0 -7.20035,2.9002 -10.36659,6.89789 -8.4198,10.63087 -19.75909,42.12339 -17.19408,47.75299 1.35245,2.96829 3.28199,2.1988 8.02113,-3.19879 z m 51.00565,7.65043 c -6.5314,-2.12643 -10.91357,-7.17943 -10.91357,-12.58424 0,-2.84722 2.43905,-4.36416 4.70693,-2.92743 0.78929,0.50003 2.24465,3.30317 3.23412,6.2292 2.154,6.36971 2.81549,7.11376 7.18669,8.08372 7.73473,1.71631 14.87226,-3.5773 14.87226,-11.03016 0,-4.78746 -1.86421,-8.60406 -7.71174,-15.7883 -6.04172,-7.42282 -7.48435,-10.55533 -7.44095,-16.15727 0.0477,-6.16331 2.21578,-10.27965 7.12547,-13.52872 8.17533,-5.41018 21.98779,-1.95471 24.38609,6.10068 0.8431,2.83187 -0.6779,4.73257 -3.4711,4.33749 -1.78558,-0.25255 -2.70689,-1.34424 -3.66058,-4.33749 -2.49939,-7.84457 -9.43965,-9.96247 -15.34778,-4.68356 -2.53378,2.26394 -3.15214,3.59513 -3.15214,6.78596 0,4.78108 1.7243,8.31199 7.56099,15.48291 6.0573,7.44196 7.71174,11.00982 7.71174,16.63063 0,9.65247 -7.07305,17.03818 -17.05453,17.80843 -2.99501,0.23112 -6.60936,0.0413 -8.0319,-0.42185 z m 73.9937,-1.43016 c -8.7818,-4.638 -13.1292,-16.78945 -10.9747,-30.67564 3.1421,-20.25129 16.7469,-40.62597 32.1586,-48.16117 7.2886,-3.56357 13.2578,-4.31225 21.9691,-2.75545 6.7034,1.19798 7.2921,1.15851 8.5588,-0.57382 0.7481,-1.02315 1.5287,-1.66813 1.7345,-1.43328 0.2058,0.23485 0.9043,4.702 1.5522,9.927 0.6479,5.225 1.4416,11.3 1.7639,13.5 0.7777,5.30825 -0.8997,3.61671 -3.079,-3.105 -2.2756,-7.01877 -6.8808,-13.97652 -10.484,-15.83984 -7.5328,-3.89538 -18.7373,-0.24168 -27.6251,9.0084 -6.4097,6.67096 -13.4831,20.47507 -16.0108,31.24587 -2.2435,9.56017 -1.7046,22.39324 1.1454,27.2731 6.8709,11.76455 22.2853,10.38468 35.5617,-3.18342 3.279,-3.35103 6.1618,-5.89274 6.4063,-5.64824 0.9536,0.95357 -8.181,10.89677 -13.7085,14.92199 -11.1612,8.12778 -20.5992,9.91954 -28.9684,5.4995 z m 54.5545,0.64657 c -3.0494,-3.04946 -1.2682,-9.09439 8.9641,-30.42135 5.3238,-11.0964 9.9372,-21.46278 10.2519,-23.03642 1.0295,-5.14763 -2.8792,-3.56961 -9.5982,3.87496 -6.8445,7.58365 -8.2851,7.39703 -1.9642,-0.25445 5.2958,-6.41052 10.1268,-9.815 13.9277,-9.815 8.0955,0 7.2995,5.72971 -4.1091,29.57974 -12.0586,25.20889 -13.2608,28.75359 -9.7523,28.75359 0.5851,0 3.9336,-2.99988 7.4413,-6.6664 3.5076,-3.66652 6.6016,-6.44232 6.8755,-6.16845 0.2739,0.27388 -2.0275,3.28874 -5.1143,6.69969 -7.9786,8.8167 -13.2415,11.13494 -16.9224,7.45409 z m 31.2882,0.60097 c -3.6055,-2.10005 -2.2004,-8.10627 7.75,-33.12664 5.225,-13.13829 9.5,-24.09153 9.5,-24.34053 0,-0.249 -1.575,-0.45273 -3.5,-0.45273 -1.925,0 -3.5,-0.45 -3.5,-1 0,-0.55 1.823,-1 4.0511,-1 3.6764,0 4.1848,-0.32025 5.4983,-3.46393 0.796,-1.90517 2.4606,-3.98337 3.699,-4.61824 1.2384,-0.63486 3.9391,-2.76742 6.0016,-4.73901 2.0625,-1.97159 3.75,-3.33028 3.75,-3.01931 0,0.31098 -1.35,3.8392 -3,7.84049 -1.65,4.00129 -3,7.43818 -3,7.63754 0,0.19935 2.7,0.36246 6,0.36246 8.1617,0 7.6383,1.83554 -0.6285,2.20431 l -6.6286,0.29569 -10.4364,26.35965 c -5.7399,14.49781 -10.1856,27.01285 -9.8793,27.8112 0.8672,2.25991 5.8584,-1.15 10.8625,-7.42116 2.3122,-2.8977 4.3533,-4.82071 4.5358,-4.27333 0.4861,1.45831 -6.7069,9.9115 -11.2255,13.19211 -4.0793,2.96164 -6.9085,3.4647 -9.85,1.75143 z m 83.4765,0.0402 c -4.3332,-1.7403 -4.8344,-7.72046 -0.8793,-10.49073 2.8698,-2.0101 5.2792,-1.84305 7.6528,0.53059 2.7909,2.79084 2.5316,6.43671 -0.6348,8.92742 -2.9345,2.30823 -2.9544,2.31159 -6.1387,1.03272 z m -751.83357,-6.2101 c 1.30664,-3.4375 6.05927,-15.871 10.5614,-27.63 8.49209,-22.18027 8.95152,-25.01311 3.59138,-22.14445 -1.37211,0.73433 -4.41729,3.74448 -6.76707,6.68923 -2.34978,2.94475 -4.42499,4.89608 -4.61159,4.33629 -0.43684,-1.31054 7.13444,-10.36748 10.92062,-13.06347 3.4022,-2.42258 8.1494,-2.81569 10.49494,-0.86906 2.74909,2.28154 1.12079,9.9261 -6.02388,28.28093 -3.60729,9.26721 -6.55549,17.14221 -6.55157,17.5 0.004,0.35779 3.81899,-6.05545 8.47794,-14.25165 14.45053,-25.42192 23.93321,-35.93732 29.04028,-32.20294 2.93153,2.14358 0.94043,5.03888 -5.51467,8.01898 -8.64209,3.98977 -13.91017,10.4375 -26.48093,32.41063 l -10.97026,19.17551 h -4.27115 -4.27115 z m 194.02727,5.37916 c 0.29602,-0.47896 1.881,-1.13939 3.52218,-1.46763 2.16782,-0.43356 3.49983,-1.63132 4.87001,-4.37916 3.90484,-7.83103 27.33384,-70.28472 27.00578,-71.98818 -0.19911,-1.0339 -1.59372,-2.04653 -3.33035,-2.41817 -1.64328,-0.35166 -2.76279,-0.75253 -2.48779,-0.89081 1.39031,-0.69912 24,-0.52247 24,0.18751 0,0.455 -1.07515,0.82728 -2.38922,0.82728 -4.67559,0 -6.46694,3.08083 -15.61952,26.86299 -4.94519,12.84965 -8.99126,23.5677 -8.99126,23.81788 0,0.25019 4.05,-2.9812 9,-7.18087 6.77332,-5.7466 9,-8.23749 9,-10.06788 0,-2.02774 0.49157,-2.43212 2.95649,-2.43212 2.32093,0 5.9217,-2.51523 16.75,-11.70029 7.58643,-6.43516 14.35151,-12.39766 15.0335,-13.25 1.8933,-2.36619 1.09728,-5.50181 -1.48999,-5.86926 -1.2375,-0.17575 -2.25,-0.65725 -2.25,-1.07 0,-0.41275 4.95,-0.75045 11,-0.75045 10.93171,0 14.06992,0.8415 7.63807,2.04812 -1.84906,0.34688 -6.01156,2.47425 -9.25,4.72747 -4.76326,3.31416 -25.52998,20.20285 -31.23475,25.4019 -1.12236,1.02287 -0.64948,4.86965 2.83903,23.0949 4.18831,21.8812 5.43947,25.36761 9.10362,25.36761 0.9823,0 2.06411,0.45 2.40403,1 0.39904,0.64565 -3.67595,1 -11.5,1 -7.82405,0 -11.89904,-0.35435 -11.5,-1 0.33992,-0.55 1.70064,-1 3.02383,-1 4.4429,0 4.5406,-2.36646 0.90595,-21.94279 -1.87605,-10.10447 -3.56067,-18.52143 -3.74358,-18.70435 -0.18292,-0.18291 -4.85193,3.45325 -10.37557,8.08037 l -10.04299,8.41294 -4.13382,10.66657 c -2.2736,5.86661 -4.13382,11.07493 -4.13382,11.57404 0,0.49912 1.4625,1.54707 3.25,2.32878 3.05464,1.33586 2.54014,1.4262 -8.55902,1.50287 -6.49496,0.0449 -11.56682,-0.31031 -11.27081,-0.78927 z M 1016.086,166.36798 c 0.9916,-3.9875 2.1063,-9.86337 2.477,-13.0575 0.5677,-4.89278 1.0674,-5.9868 3.1724,-6.9459 3.3005,-1.50381 5.75,0.0376 6.1386,3.86285 0.2158,2.12487 -0.794,4.36773 -3.7505,8.33032 -2.2251,2.9824 -5.0258,7.59103 -6.2236,10.24139 -1.1978,2.65036 -2.5016,4.81884 -2.8974,4.81884 -0.3958,0 0.092,-3.2625 1.0835,-7.25 z m 14.4542,4.75 c 0.3285,-1.65 1.4469,-7.6755 2.4853,-13.39 1.0385,-5.71449 2.4877,-10.7701 3.2206,-11.23468 2.1721,-1.37693 4.4086,-1.00117 6.2676,1.05302 2.1588,2.38538 1.4436,5.11567 -2.7287,10.41765 -1.6646,2.11529 -4.56,6.61529 -6.4343,10 -2.4742,4.46811 -3.2441,5.33216 -2.8105,3.15401 z m -136.71158,-14.5801 c -2.8475,-1.65852 -2.3203,-7.5001 0.8653,-9.58736 2.3423,-1.53476 2.8901,-1.55996 5.25,-0.24151 3.2511,1.81644 4.0211,6.2721 1.5547,8.9974 -1.8924,2.09111 -4.9401,2.42149 -7.67,0.83147 z M 73.183844,134.24473 c -1.44051,-1.73571 -0.50537,-4.28884 1.79081,-4.8893 0.9667,-0.2528 4.24936,-0.008 7.29479,0.54401 7.10171,1.28723 9.58749,0.60692 14.03566,-3.84124 5.917196,-5.91721 10.485986,-16.12611 20.276106,-45.306733 5.09908,-15.19842 9.59514,-28.42099 9.99124,-29.38349 0.63056,-1.53223 0.0847,-1.75 -4.38681,-1.75 -2.80885,0 -5.10699,-0.45 -5.10699,-1 0,-0.55326 2.62623,-1 5.87868,-1 5.65943,0 5.92766,-0.11826 7.19207,-3.17082 2.21242,-5.34124 12.07827,-14.53857 19.08211,-17.78907 8.30433,-3.85407 15.84341,-4.90098 18.21498,-2.52941 1.94133,1.94133 1.76384,3.37287 -0.60331,4.86603 -1.11662,0.70435 -3.58764,0.62781 -7.99152,-0.24754 -7.97953,-1.58608 -10.9237,-0.86053 -14.90411,3.6729 -2.56969,2.92672 -7.8689,12.84404 -7.8689,14.72642 0,0.25932 5.3633,0.47149 11.91844,0.47149 h 11.91844 l 2.30642,-3.75 c 6.21121,-10.09882 15.67091,-17.29637 26.12227,-19.8755 8.13909,-2.00852 11.73443,-1.34183 11.73443,2.17594 0,3.44583 -2.04886,3.94983 -9.9762,2.45405 -9.65326,-1.82144 -13.06786,-0.0414 -18.2149,9.49551 -2.07784,3.85 -3.78486,7.5625 -3.79339,8.25 -0.011,0.88243 2.04289,1.25 6.98449,1.25 9.4857,0 8.92923,1.84238 -0.66688,2.20794 l -7.66688,0.29206 -7.20984,21.5 c -9.14084,27.25834 -10.62834,30.942043 -15.9672,39.541713 -8.93463,14.39166 -23.76922,24.9292 -34.16163,24.26625 -4.13714,-0.26392 -4.87339,-0.63064 -5.14793,-2.56416 -0.41226,-2.90336 2.93097,-4.24297 7.77628,-3.1159 7.65226,1.77999 10.79551,1.14242 15.43042,-3.1299 6.34742,-5.85085 10.42129,-14.92919 21.43989,-47.777363 l 9.82148,-29.27937 -12.01987,0.27937 -12.01987,0.27936 -7.70505,23.65714 c -8.43984,25.9132 -13.41867,36.659763 -21.09069,45.523193 -5.33113,6.15903 -15.044246,13.27764 -20.711446,15.17914 -4.62638,1.55227 -10.61053,1.43618 -11.99559,-0.23272 z m 676.221206,0.38101 c -5.58414,-1.17391 -10.01864,-3.56418 -11.39964,-6.1446 -2.41191,-4.50671 2.27534,-9.20833 15.38867,-15.43582 l 7.79763,-3.70308 -4.30653,-2.41386 c -5.25418,-2.94503 -6.80653,-4.86368 -6.80653,-8.412643 0,-3.33975 3.86311,-6.80996 10.33058,-9.27991 l 4.64088,-1.77236 -1.60555,-3.1048 c -1.19206,-2.30519 -1.48746,-4.92507 -1.14698,-10.17274 0.6976,-10.75207 5.82283,-19.09575 14.69654,-23.92543 6.0475,-3.29144 13.3254,-3.84125 17.2043,-1.29969 2.4348,1.59535 2.6448,1.57475 4.4664,-0.43802 5.6033,-6.1916 15.5653,-8.84448 16.2121,-4.3173 0.4893,3.42457 -2.2341,4.92121 -6.5465,3.59768 -4.8983,-1.50332 -9.9507,1.12853 -9.3928,4.89279 0.1974,1.33211 0.4076,5.79702 0.4672,9.92202 0.087,6.03172 -0.3467,8.38097 -2.215,12 -6.3257,12.25274 -18.8986,19.20479 -27.9173,15.43654 -3.30433,-1.38064 -3.85146,-1.3273 -8.11849,0.79153 -3.11024,1.54441 -4.67821,2.99624 -4.89649,4.53383 -0.28712,2.02244 1.51431,3.14227 17.01638,10.577963 22.559,10.82062 26.471,15.14963 20.3084,22.47334 -4.3747,5.1991 -9.2794,6.50793 -25.50367,6.80576 -7.975,0.1464 -16.37812,-0.12864 -18.6736,-0.6112 z m 29.58377,-1.08192 c 9.198,-1.97262 12.6758,-7.15574 7.8398,-11.6841 -3.7119,-3.47584 -22.28681,-11.57912 -24.93953,-10.87986 -4.06145,1.07061 -12.72358,6.57592 -14.41978,9.16465 -3.67044,5.6018 -1.16861,10.55134 6.53269,12.9241 5.53747,1.7061 18.13062,1.9456 24.98682,0.47521 z m 2.0842,-48.039523 c 6.391,-6.58546 12.9596,-21.90662 12.9938,-30.30758 0.026,-6.40645 -6.4024,-8.62541 -11.8088,-4.07618 -9.5688,8.05157 -17.69178,31.84217 -12.6079,36.92601 2.8765,2.8766 7.0698,1.94337 11.4229,-2.54225 z M 181.10357,106.82769 c -9.75357,-5.38998 -10.46809,-20.075333 -1.80699,-37.139073 6.59619,-12.99554 17.6496,-21.92576 27.6785,-22.3619 6.11382,-0.26587 9.63304,1.63223 12.68643,6.84245 5.86005,9.99941 1.0642,28.53597 -11.12006,42.98042 -7.88894,9.352353 -20.1813,13.688203 -27.43788,9.678103 z m 16.10748,-6.10247 c 12.48446,-12.837873 22.51087,-43.319003 16.45166,-50.014363 -2.76159,-3.05152 -7.45276,-2.69501 -12.48265,0.94862 -12.4849,9.04402 -25.51744,44.20872 -19.54471,52.735993 1.18284,1.68873 2.55203,2.22251 5.70094,2.22251 3.74181,0 4.70069,-0.57221 9.87476,-5.89276 z m 74.74402,5.76918 c -4.67456,-4.67455 -0.21134,-23.592643 9.32196,-39.512683 7.04609,-11.76654 13.00651,-17.53401 20.09254,-19.44208 3.25291,-0.87591 4.52739,-0.70394 8.29328,1.1191 2.44733,1.18473 4.9079,3.01023 5.46793,4.05665 0.56003,1.04643 1.39088,1.90259 1.84634,1.90259 0.85205,0 10.11167,-24.51171 10.10517,-26.75 -0.002,-0.79106 -1.47225,-1.25 -4.00364,-1.25 -6.79566,0 -4.40617,-1.75136 2.95716,-2.16742 5.33343,-0.30137 7.70333,-0.94479 10.15429,-2.75686 2.87354,-2.1245 3.14469,-2.17204 2.679,-0.46973 -0.28497,1.04171 -7.3294,19.47992 -15.65429,40.97382 -8.32489,21.49389 -15.13616,39.804833 -15.13616,40.690983 0,3.77687 2.54942,2.65612 8.62941,-3.793583 3.51786,-3.73177 6.63909,-6.54205 6.93607,-6.24507 0.29698,0.29699 -2.03123,3.31716 -5.17379,6.71151 -8.21489,8.873053 -13.27144,11.056683 -16.7367,7.227613 -2.66189,-2.94136 -2.02385,-6.04371 4.84501,-23.557973 3.575,-9.11555 6.5,-16.91772 6.5,-17.33815 0,-0.42044 -4.3321,5.75816 -9.62688,13.73021 -5.29479,7.97206 -11.42026,16.85165 -13.61217,19.73242 -6.71329,8.823103 -13.49367,11.529513 -17.88453,7.138653 z m 15.0315,-6.42433 c 3.7535,-4.275003 29.09208,-42.003243 29.09208,-43.317073 0,-1.44623 -7.85431,-8.13502 -9.55254,-8.13502 -2.84176,0 -7.20035,2.9002 -10.36659,6.89789 -8.4198,10.63087 -19.75909,42.12339 -17.19408,47.752993 1.35245,2.96829 3.28199,2.1988 8.02113,-3.19879 z m 46.59208,7.35296 c -2.97828,-1.68887 -3.46787,-2.83094 -3.48469,-8.128733 -0.0313,-9.86506 10.18184,-33.23033 18.63485,-42.63211 6.85876,-7.62859 11.2155,-9.73064 19.05773,-9.19501 1.21434,0.0829 4.10567,1.95611 6.42517,4.16259 4.97964,4.73702 6.34284,4.58671 11.33915,-1.25035 1.94028,-2.26679 3.52779,-3.64027 3.52779,-3.05218 0,0.58809 -4.74775,13.33526 -10.55056,28.32705 -5.8028,14.9918 -10.30636,27.894173 -10.0079,28.671953 0.8513,2.21845 5.89143,-1.24688 10.84809,-7.458573 2.31225,-2.8977 4.35559,-4.81403 4.54077,-4.2585 0.42482,1.27446 -4.74509,7.848723 -9.35525,11.896483 -4.21738,3.70291 -7.77441,4.75264 -11.04889,3.26068 -3.95757,-1.80319 -3.20568,-6.96619 3.59925,-24.714883 3.31403,-8.64368 5.86779,-15.87351 5.67502,-16.06627 -0.19276,-0.19277 -5.2182,6.90295 -11.16765,15.76825 -12.06532,17.978633 -15.53961,22.299553 -19.63166,24.415633 -3.33101,1.72254 -5.68592,1.79373 -8.40122,0.25397 z m 12.71587,-6.60475 c 4.52706,-4.839793 28.72524,-40.259093 29.48215,-43.153543 0.51005,-1.95042 -5.16743,-7.87549 -8.29968,-8.66163 -3.22721,-0.80998 -8.26589,2.51007 -12.26885,8.08409 -10.75523,14.97639 -20.5038,48.530783 -14.09967,48.530783 0.38308,0 2.7168,-2.15986 5.18605,-4.7997 z m 39.79522,7.55541 c -0.006,-0.40936 6.73891,-18.269733 14.98891,-39.689723 8.25,-21.41999 15,-39.64756 15,-40.50571 0,-1.15366 -1.04243,-1.56028 -4,-1.56028 -6.79566,0 -4.40617,-1.75136 2.95716,-2.16742 5.21962,-0.29494 7.7171,-0.95497 10,-2.64278 1.67356,-1.23732 3.04284,-1.82672 3.04284,-1.30978 0,0.51694 -6.0485,16.56891 -13.44112,35.67106 -7.39262,19.10214 -13.08049,34.33016 -12.63971,33.84004 0.44078,-0.49011 5.90152,-8.51378 12.13499,-17.83037 11.77065,-17.59252 17.68317,-24.44885 21.31642,-24.71919 3.97681,-0.29591 6.01884,0.20091 7.93907,1.93151 1.6275,1.46679 1.84254,2.70609 1.42749,8.22693 -1.167,15.52293 -13.73465,39.77409 -24.42303,47.127903 -7.97274,5.48538 -14.85202,4.77527 -20.66507,-2.13314 -2.51065,-2.983743 -2.67841,-3.030933 -5.53112,-1.55574 -1.61807,0.83674 -4.10154,2.99276 -5.51884,4.79116 -1.4173,1.7984 -2.58189,2.93489 -2.58799,2.52553 z m 29.92452,-5.3165 c 6.7516,-6.099673 16.33399,-26.747343 19.57385,-42.176833 2.28374,-10.87604 -0.45012,-13.3911 -6.85268,-6.30424 -4.29048,4.74905 -29.65678,42.51621 -29.65678,44.15513 0,0.63282 1.60704,2.666213 3.5712,4.518653 4.77987,4.508 8.21613,4.45845 13.36441,-0.19271 z m 30.81439,4.48069 c -3.78658,-2.20548 -2.24606,-7.719303 12.2863,-43.975163 7.71996,-19.26004 13.7684,-35.45172 13.44098,-35.9815 -0.32742,-0.52978 -2.14376,-0.96324 -4.0363,-0.96324 -6.28549,0 -3.55507,-1.76786 3.3314,-2.15698 5.03438,-0.28447 7.60069,-0.97248 10,-2.68094 1.77519,-1.26405 3.22762,-2.06408 3.22762,-1.77784 0,0.28624 -7.45606,19.0364 -16.56902,41.66704 -9.11296,22.63064 -16.32104,41.792833 -16.01796,42.582643 0.87573,2.28213 5.5611,-0.65415 10.08528,-6.320383 5.4957,-6.88299 5.5017,-6.88867 5.5017,-5.21316 0,0.82521 -2.29766,4.0783 -5.10591,7.22909 -7.06932,7.931603 -11.76658,10.140103 -16.14409,7.590433 z m 36.62225,-0.4548 c -8.63927,-4.40972 -8.71542,-22.086413 -0.16142,-37.465103 8.96756,-16.12218 21.42982,-24.32714 33.15232,-21.82697 8.4209,1.796 10.09907,8.09583 3.96518,14.8853 -4.37206,4.83936 -18.97482,12.21832 -27.57833,13.93569 -3.1625,0.63128 -5.75,1.36717 -5.75,1.63533 0,0.26815 -0.47833,3.57045 -1.06295,7.33845 -1.30774,8.42855 -0.0304,14.26972 3.64754,16.679583 4.15959,2.72547 9.6345,0.3905 17.21705,-7.342803 3.49523,-3.56472 6.52323,-6.31304 6.7289,-6.10737 0.94566,0.94566 -9.02609,11.900533 -13.86804,15.235323 -6.33812,4.36522 -11.71747,5.36663 -16.29025,3.03257 z m 18.31124,-35.480813 c 7.23083,-3.55973 12.85835,-9.56908 14.43127,-15.41046 1.3511,-5.01763 0.28164,-6.96536 -4.06003,-7.39423 -7.23623,-0.7148 -17.7846,10.4589 -23.11907,24.48963 -0.97622,2.56765 -0.94068,2.59327 2.76316,1.99222 2.06366,-0.33489 6.55676,-1.98961 9.98467,-3.67716 z m 42.06651,35.935613 c -3.78658,-2.20548 -2.24606,-7.719303 12.2863,-43.975163 7.71996,-19.26004 13.7684,-35.45172 13.44098,-35.9815 -0.32742,-0.52978 -2.14376,-0.96324 -4.0363,-0.96324 -6.28549,0 -3.55507,-1.76786 3.3314,-2.15698 5.03438,-0.28447 7.60069,-0.97248 10,-2.68094 1.77519,-1.26405 3.22762,-2.06408 3.22762,-1.77784 0,0.28624 -7.45606,19.0364 -16.56902,41.66704 -9.11296,22.63064 -16.32104,41.792833 -16.01796,42.582643 0.87573,2.28213 5.5611,-0.65415 10.08528,-6.320383 5.4957,-6.88299 5.5017,-6.88867 5.5017,-5.21316 0,0.82521 -2.29766,4.0783 -5.10591,7.22909 -7.06932,7.931603 -11.76658,10.140103 -16.14409,7.590433 z m 30.77031,-0.89746 c -2.93371,-3.24171 -1.47684,-8.005433 9.36503,-30.622093 5.56306,-11.6048 10.11466,-22.0673 10.11466,-23.25 0,-3.8857 -3.28616,-2.34556 -9.73419,4.56218 -3.44619,3.69189 -6.26581,6.24357 -6.26581,5.67041 0,-1.96638 11.41799,-13.65964 14.66134,-15.0148 3.9183,-1.63717 7.85093,-0.4802 8.82761,2.59705 1.12739,3.55209 -0.42755,7.8149 -10.61721,29.10665 -5.42946,11.3451 -9.87174,21.568563 -9.87174,22.718793 0,4.26978 2.321,3.37859 8.62941,-3.313423 3.51786,-3.73177 6.63909,-6.54205 6.93607,-6.24507 0.29698,0.29699 -2.03123,3.31716 -5.17379,6.71151 -8.32413,8.991053 -13.26479,11.064023 -16.87138,7.078793 z m 35.81778,-0.59344 c -2.23607,-2.23607 -2.48458,-3.11541 -1.90764,-6.750003 1.21316,-7.64255 3.95016,-12.52552 19.43827,-34.679 l 5.24345,-7.5 -4.30608,-0.68141 c -13.56591,-2.14672 -13.74133,-2.15093 -14.43384,-0.34626 -0.3648,0.95063 -0.21033,3.70778 0.34327,6.12698 1.15578,5.05078 -0.1122,7.85259 -3.28162,7.25124 -6.04202,-1.14639 0.29953,-16.07574 8.66634,-20.40238 2.5472,-1.31721 3.58222,-1.29909 9.40978,0.16475 6.20209,1.55791 6.65217,1.55028 8.52501,-0.14462 3.75335,-3.39673 2.72999,-0.93398 -3.75298,9.0317 -19.77339,30.39585 -22.20812,49.326333 -5.52461,42.954833 6.33641,-2.419893 13.41723,-10.053943 18.21343,-19.636473 4.92904,-9.84791 5.63263,-14.4045 3.58653,-23.2271 -0.87872,-3.78896 -1.34648,-7.68045 -1.03947,-8.64776 0.77553,-2.44348 2.94385,-3.0577 5.13487,-1.45455 1.52164,1.11338 1.81775,2.57484 1.68012,8.29227 -0.43522,18.08018 -14.64647,41.72201 -29.55862,49.173703 -7.76787,3.88165 -12.88115,4.02913 -16.43621,0.47408 z m 49.18222,0.59344 c -2.93371,-3.24171 -1.47684,-8.005433 9.36503,-30.622093 5.56306,-11.6048 10.11466,-22.0673 10.11466,-23.25 0,-3.8857 -3.28616,-2.34556 -9.73419,4.56218 -3.44619,3.69189 -6.26581,6.24357 -6.26581,5.67041 0,-1.96638 11.41799,-13.65964 14.66134,-15.0148 3.9183,-1.63717 7.85093,-0.4802 8.82761,2.59705 1.12739,3.55209 -0.42755,7.8149 -10.61721,29.10665 -5.42946,11.3451 -9.87174,21.568563 -9.87174,22.718793 0,4.26978 2.321,3.37859 8.62941,-3.313423 3.51786,-3.73177 6.63909,-6.54205 6.93607,-6.24507 0.29698,0.29699 -2.03123,3.31716 -5.17379,6.71151 -8.32413,8.991053 -13.26479,11.064023 -16.87138,7.078793 z m 65.22969,0.89746 c -1.22771,-0.71508 -1.75,-2.27452 -1.75,-5.22515 0,-3.271753 2.22326,-8.839073 10.01016,-25.066703 11.42117,-23.80131 11.96335,-25.31725 9.40592,-26.29863 -2.56795,-0.98541 -7.80112,5.20795 -27.91608,33.03813 l -17,23.520463 -4.25,0.056 c -2.3375,0.0308 -4.25,-0.20793 -4.25,-0.53051 0,-0.32258 4.95,-12.473933 11,-27.003003 6.05,-14.52907 11,-27.09014 11,-27.91349 0,-3.36248 -4.12176,-1.18571 -9.92041,5.23912 -6.6911,7.41367 -8.37154,7.25523 -2.20442,-0.20784 7.51247,-9.09113 15.49135,-12.45906 18.82217,-7.94495 2.07634,2.81398 1.02793,6.85448 -6.33551,24.41667 -8.73151,20.82512 -10.62411,25.79078 -9.1251,23.94174 0.6948,-0.85704 7.84862,-10.53945 15.89738,-21.51646 8.04876,-10.97701 16.48686,-21.81095 18.75132,-24.07542 5.77807,-5.77806 11.7608,-6.61648 13.88865,-1.94636 1.66454,3.65327 0.48695,7.10248 -9.76309,28.5965 -10.49084,21.998973 -11.47739,24.436323 -10.51879,25.987393 0.96969,1.56899 5.79761,-1.38415 9.09415,-5.562723 6.17245,-7.82394 6.36783,-8.01879 6.39141,-6.37429 0.0122,0.85271 -2.27542,4.1283 -5.08367,7.27909 -7.06932,7.931603 -11.76658,10.140103 -16.14409,7.590433 z m 103.79857,-0.2607 c -3.5911,-2.62593 -1.6706,-9.465453 8.7496,-31.159203 5.2837,-11 9.9019,-21.2375 10.2627,-22.75 1.1959,-5.01341 -2.8243,-3.36048 -9.4723,3.89462 -3.3487,3.65455 -6.0886,5.94734 -6.0886,5.09509 0,-2.45138 12.1399,-14.36941 15.2223,-14.94417 1.4973,-0.27918 3.7473,0.0106 5,0.64391 1.9236,0.97249 2.2685,1.92177 2.2183,6.10603 -0.05,4.14031 -1.5557,8.03173 -9.1642,23.6796 -9.7343,20.0196 -11.7923,25.131163 -10.7786,26.771253 1.0517,1.70171 6.2033,-1.9962 10.7919,-7.746643 2.3122,-2.8977 4.3533,-4.82071 4.5358,-4.27333 0.4861,1.45831 -6.7069,9.911503 -11.2255,13.192113 -4.2783,3.10617 -7.2412,3.5456 -10.0514,1.49073 z m 63.9719,-0.63658 c -2.8257,-3.12238 -1.5008,-7.437303 9.0346,-29.422243 10.4735,-21.85573 12.0233,-26.60038 8.6892,-26.60038 -2.524,0 -8.1025,6.8363 -28.7641,35.25 l -15.816,21.750003 h -4.3455 -4.3455 l 1.5771,-3.75 c 10.9568,-26.052593 20.3403,-49.140463 20.6114,-50.713753 0.8897,-5.16408 -5.1584,-1.60759 -12.4811,7.33932 -1.5195,1.85656 -3.0333,3.10503 -3.364,2.77437 -0.8062,-0.80624 7.9906,-11.02045 11.8707,-13.78332 3.457,-2.46155 7.9141,-2.85726 10.2594,-0.91084 2.9491,2.44748 1.6917,7.90205 -6.0828,26.38763 -4.1999,9.98613 -8.2972,19.73159 -9.1051,21.65659 -0.8079,1.925 -1.2432,3.275 -0.9672,3 0.2759,-0.275 7.5681,-10.175 16.2048,-22 17.6644,-24.18542 20.6142,-27.64268 25.2995,-29.65182 2.7505,-1.17951 3.7433,-1.19596 6,-0.0994 2.3656,1.14945 2.6975,1.88428 2.6514,5.87057 -0.042,3.65471 -1.9743,8.53365 -9.7609,24.64851 -5.3396,11.05053 -9.9737,21.41885 -10.2981,23.040733 -1.1015,5.50749 1.5062,4.78528 8.2775,-2.292443 3.5453,-3.70576 6.639,-6.54467 6.875,-6.30869 0.82,0.81997 -8.0645,10.586763 -11.9909,13.181833 -4.7218,3.1207 -7.6131,3.30329 -10.0294,0.63335 z m 51.051,0.40595 c -0.8643,-0.86428 -1.5662,-3.00178 -1.5598,-4.75 0.01,-1.74821 4.4592,-14.316073 9.8951,-27.928573 l 9.8834,-24.75 h -3.8951 c -2.1423,0 -3.8951,-0.45 -3.8951,-1 0,-0.55 1.9346,-1 4.2991,-1 4.0092,0 4.3849,-0.2371 5.5704,-3.51557 0.8782,-2.42867 2.4524,-4.11815 5.0917,-5.46463 2.1013,-1.07198 4.7554,-3.20247 5.898,-4.73443 2.8953,-3.88186 2.6415,-1.9127 -0.8046,6.24348 l -2.9455,6.97115 5.9455,0.29772 c 7.9844,0.39982 7.6141,2.20228 -0.4524,2.20228 h -6.3979 l -9.5534,24.25 c -5.2544,13.3375 -10.001,25.45264 -10.548,26.922543 -0.769,2.0665 -0.6513,2.95735 0.5189,3.92851 1.2774,1.06017 2.5127,0.18536 7.9236,-5.611353 3.5257,-3.77702 6.6445,-6.63315 6.9307,-6.34695 0.2862,0.2862 -2.0051,3.31114 -5.0919,6.72209 -7.8923,8.721303 -13.2465,11.130033 -16.8127,7.563733 z m 61.94878,-0.40613 c -2.9838,-3.29708 -1.4007,-8.490853 9.3748,-30.756913 5.5577,-11.48425 10.1049,-21.8671 10.1049,-23.07299 0,-4.03353 -3.6503,-2.5273 -8.7135,3.59552 -2.6326,3.18344 -12.2115,16.00684 -21.28648,28.49646 l -16.5,22.708403 -4.2354,0.004 -4.2354,0.004 1.878,-4.75 c 1.0329,-2.6125 8.0014,-20.043453 15.4854,-38.735453 7.4841,-18.69291 13.60738,-34.78041 13.60738,-35.75092 0,-1.39198 -0.8445,-1.76455 -3.99998,-1.76455 -6.7956,0 -4.4061,-1.75136 2.95718,-2.16742 5.2196,-0.29494 7.7171,-0.95497 10,-2.64278 1.6735,-1.23732 3.0428,-1.78466 3.0428,-1.2163 0,0.56835 -6.9659,18.44091 -15.47978,39.71679 -8.5139,21.27589 -15.3764,38.7755 -15.25,38.88803 0.1264,0.11253 6.7548,-8.80171 14.7298,-19.80942 21.42358,-29.57055 26.13348,-34.18943 32.42418,-31.7977 5.9037,2.24455 4.7129,7.20915 -7.9041,32.95572 -5.2361,10.68481 -9.5201,20.445753 -9.5201,21.690993 0,4.45134 2.2455,3.62085 8.5914,-3.177513 3.5004,-3.74991 6.5985,-6.58385 6.8847,-6.29765 0.2862,0.2862 -2.0052,3.31114 -5.0919,6.72209 -8.1496,9.005643 -13.2373,11.164993 -16.8639,7.157603 z m 36.881,0.0805 c -11.2042,-6.832193 -6.8015,-31.828983 8.5222,-48.385323 6.7443,-7.28676 13.7104,-11.00334 20.624,-11.00334 5.7586,0 8.7608,1.30034 11.0426,4.78288 2.5212,3.84788 0.3692,8.71377 -5.971,13.50062 -7.3523,5.55106 -14.7397,8.6933 -26.8242,11.40972 -3.3211,0.74653 -4.7811,5.14238 -4.7893,14.41941 0,5.6633 0.301,6.63353 2.9175,9.250003 1.6077,1.6077 3.655,2.92308 4.5496,2.92308 3.0989,0 8.0562,-3.23818 14.2773,-9.326043 7.9534,-7.78314 8.1121,-6.20942 0.2521,2.49945 -6.1972,6.866333 -14.1522,11.829873 -18.9484,11.822853 -1.4046,-0.002 -3.9481,-0.85404 -5.6524,-1.89331 z m 17.109,-34.107343 c 5.0483,-2.16396 12.9558,-9.06255 15.0665,-13.14408 1.7373,-3.35961 1.8453,-8.02943 0.2232,-9.65153 -3.3588,-3.35885 -12.5899,0.99974 -18.0793,8.53638 -3.6379,4.99472 -6.9555,11.12105 -8.2016,15.1454 -0.7066,2.28184 -0.5844,2.35305 2.9122,1.69708 2.0074,-0.37659 5.6429,-1.53905 8.079,-2.58325 z M 23.498824,106.74714 c 0.29602,-0.47896 1.81733,-1.12666 3.38071,-1.43934 4.43457,-0.88691 8.99453,-6.173393 34.52113,-40.021293 23.35651,-30.97041 23.81571,-31.6713 23.5,-35.86904 l -0.32201,-4.2814 4.3687,-0.17463 4.36869,-0.17462 -0.73542,38.72742 c -0.67612,35.60433 -0.59929,38.863573 0.95273,40.415593 0.92849,0.92848 2.30446,1.68815 3.05771,1.68815 0.75326,0 1.64767,0.45 1.98759,1 0.39848,0.64475 -3.50929,1 -11,1 -7.49071,0 -11.39848,-0.35525 -11,-1 0.33992,-0.55 1.46596,-1 2.50231,-1 3.50007,0 4.99769,-3.81246 4.99769,-12.722513 v -8.27749 h -17.50207 -17.50207 l -4.51091,6.12765 c -6.84947,9.304343 -7.13357,12.711453 -1.27347,15.272193 3.10791,1.35809 2.63994,1.44149 -8.5205,1.51859 -6.49496,0.0449 -11.56682,-0.31031 -11.27081,-0.78927 z m 61.0645,-42.379163 c 0.38674,-10.5875 0.54841,-21.02011 0.35925,-23.18357 l -0.34392,-3.93358 -16.30551,21.74644 c -8.96803,11.96054 -16.55367,22.39315 -16.85699,23.18357 -0.46575,1.21373 2.01318,1.43714 15.94626,1.43714 h 16.49773 z M 226.08883,106.92548 c 0.006,-0.44413 4.50561,-12.465633 10,-26.714463 5.4944,-14.24882 9.98982,-26.73632 9.98982,-27.75 0,-3.72214 -3.86573,-1.81543 -9.92041,4.89308 -3.34377,3.70486 -6.07959,6.20551 -6.07959,5.557 0,-2.01741 11.32997,-13.53175 14.70217,-14.94141 4.21515,-1.76203 8.00434,-0.36925 8.91991,3.27866 0.77693,3.09553 -0.77635,8.174 -8.90639,29.11963 -3.04213,7.8375 -5.38075,14.25 -5.19694,14.25 0.18381,0 3.57788,-5.7375 7.5424,-12.75 14.46068,-25.57831 23.1781,-35.8581 29.24711,-34.48887 1.28485,0.28987 1.71904,1.15988 1.5,3.00563 -0.24836,2.09288 -1.62924,3.2651 -7.10622,6.03237 -8.9431,4.51856 -11.87586,8.1746 -25.23997,31.46469 l -11.03793,19.236183 -4.21207,0.3075 c -2.31664,0.16912 -4.20749,-0.0559 -4.20189,-0.5 z M 26.566414,49.617977 c 0.34992,-1.375 1.47043,-7.17105 2.49004,-12.8801 2.0286,-11.35868 3.41643,-13.73974 7.42233,-12.73432 4.88353,1.22569 4.43519,4.73357 -1.78814,13.99073 -3.0866,4.59128 -5.61199,8.77386 -5.61199,9.29461 0,0.52075 -0.7084,1.82033 -1.57422,2.88795 -1.51726,1.87089 -1.5512,1.85066 -0.93802,-0.55887 z m 14.84986,0.56255 c 1.30786,-3.40821 2.67412,-9.57404 3.65291,-16.48525 1.15885,-8.18256 2.18016,-10.0773 5.43191,-10.0773 5.88059,0 5.95831,5.19288 0.19937,13.32081 -2.408,3.39855 -5.34215,8.09169 -6.52032,10.42919 -2.00535,3.97861 -3.98397,5.99208 -2.76387,2.81255 z M 601.65868,33.706407 c -4.37625,-4.8357 1.55835,-12.19346 6.97325,-8.64548 4.5478,2.97984 2.41631,10.55705 -2.96972,10.55705 -1.25047,0 -3.05206,-0.8602 -4.00353,-1.91157 z m 85,0 c -4.37625,-4.8357 1.55835,-12.19346 6.97325,-8.64548 4.5478,2.97984 2.41631,10.55705 -2.96972,10.55705 -1.25047,0 -3.05206,-0.8602 -4.00353,-1.91157 z m 168.33334,-0.17509 c -1.5417,-1.54168 -1.915,-2.78224 -1.4293,-4.75 0.9057,-3.66924 1.9406,-4.49667 5.6241,-4.49667 5.3401,0 7.9329,6.1762 4.0631,9.67834 -2.4865,2.25027 -5.7464,2.07986 -8.2579,-0.43167 z"
       id="path900" />
  </g>
</svg>
