<?xml version="1.0" encoding="UTF-8" standalone="no"?>
<svg
   xmlns:svg="http://www.w3.org/2000/svg"
   xmlns="http://www.w3.org/2000/svg"
   xmlns:sodipodi="http://sodipodi.sourceforge.net/DTD/sodipodi-0.dtd"
   xmlns:inkscape="http://www.inkscape.org/namespaces/inkscape"
   inkscape:version="1.1-dev (a1a64ec, 2020-05-08)"
   height="11.000001"
   width="11.000001"
   sodipodi:docname="close.svg"
   xml:space="preserve"
   viewBox="0 0 11 11"
   y="0px"
   x="0px"
   id="Capa_1"
   version="1.1"><defs
   id="defs862" /><sodipodi:namedview
   inkscape:current-layer="Capa_1"
   inkscape:window-maximized="1"
   inkscape:window-y="23"
   inkscape:window-x="0"
   inkscape:cy="7.2954602"
   inkscape:cx="18.208979"
   inkscape:zoom="21.668365"
   fit-margin-bottom="1.3877788e-16"
   fit-margin-right="1.3877788e-16"
   fit-margin-left="1.3877788e-16"
   fit-margin-top="1.3877788e-16"
   lock-margins="true"
   showgrid="false"
   id="namedview860"
   inkscape:window-height="829"
   inkscape:window-width="1440"
   inkscape:pageshadow="2"
   inkscape:pageopacity="0"
   guidetolerance="10"
   gridtolerance="10"
   objecttolerance="10"
   borderopacity="1"
   bordercolor="#666666"
   pagecolor="#ffffff" />
<polygon
   transform="matrix(0.04147986,0,0,0.04147986,-2.5942326,-1.680022)"
   style="fill:#4b4d4b;fill-opacity:1"
   points="184.011,152.353 243.57,92.794 275.439,124.663 215.88,184.223 275.439,243.782 243.57,275.651 184.011,216.092 124.452,275.651 92.582,243.782 152.142,184.223 92.582,124.663 124.452,92.794 "
   id="polygon825" />
<g
   transform="translate(-92.582,-92.794)"
   id="g829">
</g>
<g
   transform="translate(-92.582,-92.794)"
   id="g831">
</g>
<g
   transform="translate(-92.582,-92.794)"
   id="g833">
</g>
<g
   transform="translate(-92.582,-92.794)"
   id="g835">
</g>
<g
   transform="translate(-92.582,-92.794)"
   id="g837">
</g>
<g
   transform="translate(-92.582,-92.794)"
   id="g839">
</g>
<g
   transform="translate(-92.582,-92.794)"
   id="g841">
</g>
<g
   transform="translate(-92.582,-92.794)"
   id="g843">
</g>
<g
   transform="translate(-92.582,-92.794)"
   id="g845">
</g>
<g
   transform="translate(-92.582,-92.794)"
   id="g847">
</g>
<g
   transform="translate(-92.582,-92.794)"
   id="g849">
</g>
<g
   transform="translate(-92.582,-92.794)"
   id="g851">
</g>
<g
   transform="translate(-92.582,-92.794)"
   id="g853">
</g>
<g
   transform="translate(-92.582,-92.794)"
   id="g855">
</g>
<g
   transform="translate(-92.582,-92.794)"
   id="g857">
</g>
</svg>
