<?xml version="1.0" encoding="UTF-8" standalone="no"?>
<svg
   xmlns:svg="http://www.w3.org/2000/svg"
   xmlns="http://www.w3.org/2000/svg"
   xmlns:sodipodi="http://sodipodi.sourceforge.net/DTD/sodipodi-0.dtd"
   xmlns:inkscape="http://www.inkscape.org/namespaces/inkscape"
   sodipodi:docname="cuntry cal.svg"
   inkscape:version="1.1-dev (a1a64ec, 2020-05-08)"
   id="svg76"
   version="1.1"
   viewBox="0 0 100.29791 24.706473"
   height="93.378792"
   width="379.07874">
  <defs
     id="defs72" />
  <sodipodi:namedview
     fit-margin-bottom="3"
     fit-margin-right="3"
     fit-margin-left="3"
     fit-margin-top="3"
     lock-margins="true"
     units="px"
     inkscape:window-maximized="0"
     inkscape:window-y="23"
     inkscape:window-x="0"
     inkscape:window-height="829"
     inkscape:window-width="1252"
     showgrid="false"
     inkscape:current-layer="layer1"
     inkscape:document-units="mm"
     inkscape:cy="69.604495"
     inkscape:cx="193.49845"
     inkscape:zoom="1.3578329"
     inkscape:pageshadow="2"
     inkscape:pageopacity="0.0"
     borderopacity="1.0"
     bordercolor="#666666"
     pagecolor="#ffffff"
     id="base" />
  <g
     transform="translate(-44.391771,-39.560943)"
     id="layer1"
     inkscape:groupmode="layer"
     inkscape:label="Layer 1">
    <g
       style="fill:#392702;fill-opacity:1"
       id="g12398">
      <path
         transform="matrix(0.26458333,0,0,0.26458333,44.391771,39.560943)"
         d="M 54.673828 3.0117188 C 54.353362 2.9445187 53.850754 3.1464593 52.814453 3.7070312 L 51.078125 4.6464844 L 49.671875 3.9433594 C 48.898225 3.5569821 48.034653 3.2402344 47.753906 3.2402344 C 47.179607 3.2402344 47.152251 3.3739163 46.419922 9.4804688 C 46.145528 11.76847 45.705994 15.296315 45.445312 17.320312 C 45.184638 19.344314 44.766235 22.729797 44.513672 24.841797 C 43.297065 35.015329 42.319348 41.255019 41.724609 42.642578 C 41.289994 43.656565 40.742685 44.312629 39.992188 44.716797 C 39.388877 45.041685 38.894531 45.365209 38.894531 45.4375 C 38.894531 45.509802 39.469827 46.195236 40.173828 46.958984 C 41.715709 48.631728 41.736773 48.91891 40.828125 56.259766 C 39.416933 67.66065 39.187106 68.516818 37.267578 69.496094 C 36.5928 69.840409 35.531217 70.121094 34.908203 70.121094 L 33.775391 70.121094 L 33.775391 79.1875 C 33.775391 84.171147 33.87104 88.344643 33.988281 88.466797 C 34.105598 88.583962 35.18216 88.681641 36.380859 88.681641 C 38.198514 88.681641 38.856425 88.519517 40.347656 87.712891 L 42.136719 86.746094 L 44.320312 87.533203 C 45.521167 87.966375 47.202912 88.366958 48.058594 88.421875 L 49.615234 88.521484 L 49.699219 79.320312 L 49.783203 70.121094 L 48.673828 70.121094 C 47.079748 70.121094 46.038252 69.543688 45.470703 68.347656 C 44.853204 67.046365 44.85197 66.955917 45.490234 62.28125 C 45.845586 59.678176 46.176091 58.31217 46.515625 58.041016 C 46.861036 57.765148 48.368595 57.640625 51.371094 57.640625 L 55.724609 57.640625 L 56.136719 59.960938 C 57.031529 64.998991 57.112542 66.323514 56.603516 67.595703 C 55.997003 69.11152 55.101029 69.704764 53.105469 69.912109 C 52.24168 70.002062 51.441376 70.085184 51.326172 70.097656 C 51.210972 70.108995 51.099732 74.142789 51.080078 79.058594 C 51.053621 85.661391 51.144169 88.058375 51.425781 88.232422 C 52.330778 88.791716 55.695814 88.33601 57.654297 87.388672 L 59.615234 86.439453 L 61.494141 87.316406 C 62.973561 88.005641 63.85227 88.191306 65.615234 88.195312 L 67.855469 88.203125 L 67.855469 79.083984 L 67.855469 69.962891 L 66.988281 70.052734 C 65.694454 70.186908 63.956386 69.332884 63.441406 68.308594 C 63.191088 67.810717 62.738273 65.459984 62.433594 63.083984 C 62.128926 60.707984 61.748818 57.987988 61.589844 57.041016 C 61.430877 56.094044 61.208247 53.777682 61.09375 51.892578 L 60.884766 48.464844 L 62.048828 47.175781 C 62.689594 46.466526 63.214844 45.750053 63.214844 45.583984 C 63.214844 45.417912 62.717422 45.043864 62.109375 44.753906 C 60.774994 44.117555 60.043668 42.803887 59.6875 40.400391 C 59.319601 37.917831 59.072835 36.34173 58.726562 34.283203 C 58.09774 30.544971 56.517702 16.613565 55.724609 7.8027344 C 55.50362 5.3477611 55.177159 3.3978623 54.947266 3.1679688 C 54.868273 3.0889766 54.780675 3.0360467 54.673828 3.0136719 L 54.673828 3.0117188 z M 254.50781 3.1054688 C 252.93757 3.143264 251.19503 3.4971972 250.29297 4.0683594 C 249.33694 4.6736507 249.31849 4.6723747 247.45703 3.9160156 C 245.01455 2.9235117 243.97311 2.9118252 243.95508 3.875 C 243.94752 4.2709811 243.8782 11.901978 243.79883 20.833984 L 243.6543 37.074219 L 245.71289 37.074219 C 246.91134 37.074219 247.86656 36.921772 247.99805 36.708984 C 248.12239 36.507914 248.27723 34.383254 248.34375 31.988281 C 248.58375 23.311053 248.85804 22.380341 251.37305 21.703125 C 253.07716 21.244253 254.23806 21.536814 255.35938 22.707031 L 256.28125 23.667969 L 256.40234 32.658203 C 256.54219 43.041737 256.45337 43.603775 254.48242 44.908203 L 253.15625 45.785156 L 254.20312 46.603516 C 256.28054 48.229317 256.43351 49.046421 256.44141 58.445312 C 256.44897 69.064689 256.28341 69.571053 252.62305 70.019531 L 251.19727 70.195312 L 251.29297 79.152344 C 251.34513 84.078996 251.4665 88.237277 251.5625 88.392578 C 251.83841 88.838903 255.8736 88.426591 256.93164 87.84375 C 257.4582 87.55386 258.34725 86.944949 258.9082 86.490234 L 259.92969 85.664062 L 260.66992 86.519531 C 261.07698 86.990347 261.80167 87.580667 262.28125 87.830078 C 263.52347 88.476264 266.74191 88.760863 267.60156 88.300781 C 268.29541 87.929254 268.29978 87.858169 268.25586 79.546875 C 268.23318 74.938119 268.14244 70.983098 268.05664 70.759766 C 267.96366 70.517876 267.3382 70.355469 266.50977 70.355469 C 265.74486 70.355469 264.74273 70.182722 264.28125 69.972656 C 262.69105 69.248121 262.57137 68.565602 262.3418 58.777344 C 262.09991 48.463429 262.13995 48.241686 264.45117 46.921875 C 265.15125 46.522114 265.72524 46.109607 265.72656 46.005859 C 265.72796 45.9023 265.38491 45.661166 264.96289 45.46875 C 264.54102 45.276372 263.79421 44.592936 263.30469 43.951172 L 262.41602 42.785156 L 262.43164 33.376953 C 262.44676 22.858717 262.4702 22.748666 264.6875 21.822266 C 267.06565 20.82859 269.34314 22.265196 269.71875 24.996094 C 269.92209 26.474834 270.14119 31.07635 270.18359 34.753906 L 270.20898 37.074219 L 272.87891 37.074219 L 275.54883 37.074219 L 275.75781 32.035156 C 275.87271 29.263137 275.872 21.689689 275.75586 15.205078 C 275.582 5.4918813 275.46558 3.3829493 275.09375 3.2402344 C 274.84544 3.1449903 273.78219 3.3286639 272.73242 3.6464844 C 270.93019 4.1921348 270.72991 4.1939823 269.12891 3.6894531 C 266.49401 2.8588641 263.12432 2.9790196 261.01172 3.9785156 C 259.49103 4.6979109 259.20413 4.7439019 258.74023 4.3476562 C 258.44845 4.0982074 257.6337 3.6747098 256.92969 3.40625 C 256.32973 3.1775886 255.44997 3.0835475 254.50781 3.1054688 z M 87.339844 3.1367188 L 87.339844 3.1386719 C 87.05105 3.1462309 86.710456 3.1690459 86.308594 3.2011719 C 84.061355 3.3893923 82.13059 4.1722799 81.097656 5.3144531 L 80.482422 5.9960938 L 79.658203 5.2070312 C 78.428598 4.0292927 76.684001 3.421875 74.523438 3.421875 L 72.59375 3.421875 L 72.59375 12.382812 L 72.59375 21.341797 L 73.792969 21.359375 C 75.838181 21.389611 77.175889 22.024503 77.792969 23.259766 C 78.278574 24.231822 78.350904 25.373638 78.345703 31.900391 C 78.338144 41.581424 78.124488 43.133175 76.578125 44.716797 L 75.408203 45.914062 L 76.392578 46.642578 C 78.205096 47.98261 78.422263 49.369867 78.300781 58.880859 C 78.20652 66.261445 78.124278 67.394939 77.628906 68.150391 C 76.800562 69.413584 75.793722 69.957591 74.099609 70.054688 C 72.666923 70.136703 72.590949 70.188088 72.5625 71.101562 C 72.54587 71.629562 72.54902 75.444103 72.566406 79.580078 C 72.58417 83.716091 72.596837 87.44364 72.595703 87.863281 C 72.593303 88.61004 72.640072 88.623609 74.832031 88.466797 C 77.058237 88.307679 77.217298 88.237771 80.177734 86.140625 C 80.503001 85.910074 80.745872 85.976196 81.041016 86.373047 C 81.266464 86.676165 82.229396 87.287168 83.181641 87.730469 C 84.670767 88.423634 85.365849 88.536077 88.152344 88.539062 C 91.67639 88.542086 93.453937 88.099866 95.169922 86.791016 L 96.191406 86.011719 L 97.228516 86.939453 C 98.080844 87.700385 100.46838 88.562924 101.64844 88.537109 C 102.70675 88.514432 102.73207 88.16257 102.89258 71.464844 L 103.05273 54.941406 L 101.98242 54.943359 C 101.39419 54.945363 100.17037 55.035681 99.263672 55.144531 L 97.615234 55.341797 L 97.496094 60.662109 C 97.35833 66.783659 97.029278 67.869874 94.890625 69.285156 C 93.745152 70.043178 93.24729 70.147336 90.191406 70.251953 C 87.489339 70.344552 86.560887 70.259511 85.765625 69.847656 C 83.722545 68.791127 83.705194 68.69615 83.857422 58.861328 C 84.011022 48.937876 84.116772 48.385656 86.15625 46.830078 L 87.333984 45.931641 L 86.3125 45.236328 C 83.986329 43.652593 83.962475 43.556127 83.855469 35.236328 C 83.699601 23.119352 84.131604 21.660156 87.859375 21.660156 L 89.648438 21.660156 L 89.416016 12.785156 C 89.261811 6.8749956 89.061989 3.7607808 88.816406 3.4648438 C 88.608532 3.2142611 88.206236 3.1140416 87.339844 3.1367188 z M 17.632812 3.2070312 C 17.331018 3.2073563 17.019781 3.219069 16.695312 3.2402344 C 12.879053 3.4894564 11.332339 4.2662502 9.3886719 6.9140625 C 8.0850864 8.6898886 7.1003767 11.022572 6.6269531 13.458984 C 6.4559673 14.338983 6.2096412 21.035846 6.078125 28.339844 C 5.9244494 36.873915 5.7102261 41.920925 5.4804688 42.462891 C 5.2838199 42.926737 4.6465164 43.758765 4.0625 44.3125 L 3 45.320312 L 4.0273438 46.189453 C 4.5925947 46.667877 5.2172692 47.491527 5.4160156 48.019531 C 5.6516692 48.64555 5.8315776 53.376494 5.9316406 61.619141 C 6.0389792 70.461017 6.2209632 75.029573 6.5371094 76.820312 C 7.328442 81.302685 9.9380583 85.487969 12.853516 87.248047 L 12.556641 86.931641 C 12.56469 86.899444 12.570194 86.873757 12.574219 86.849609 C 12.550071 86.853634 12.520358 86.863163 12.492188 86.867188 L 11.892578 86.246094 C 11.96502 85.9684 12.139266 85.807763 12.251953 85.703125 L 13.273438 85.490234 C 13.309657 85.562676 13.34304 85.623699 13.367188 85.667969 C 13.371211 85.667969 13.378789 85.662228 13.382812 85.658203 C 13.471352 85.605884 13.576529 85.550721 13.697266 85.486328 L 14.361328 86.185547 C 14.309009 86.278111 14.268879 86.379855 14.224609 86.480469 C 14.119971 86.72999 13.978984 87.059665 13.697266 87.289062 L 13.990234 87.183594 C 14.159265 87.183594 14.312504 87.248226 14.445312 87.308594 C 14.489582 87.324692 14.534093 87.349373 14.570312 87.357422 C 14.437504 87.37352 14.312794 87.401931 14.236328 87.482422 C 14.143764 87.579011 14.130859 87.682647 14.130859 87.714844 L 14.972656 87.148438 C 15.045098 87.228927 15.173712 87.304156 15.310547 87.388672 C 15.581022 87.55165 15.961384 87.802377 16.125 88.28125 C 16.899691 88.390958 17.721657 88.467013 18.388672 88.474609 C 20.310599 88.497287 20.95732 88.349893 22.619141 87.519531 C 24.677842 86.490782 26.779747 84.413488 27.822266 82.375 C 29.476546 79.140367 30.348423 71.267759 30.357422 59.5 L 30.359375 55.302734 L 27.720703 55.142578 C 26.268703 55.054402 24.971844 55.04321 24.839844 55.119141 C 24.707825 55.195071 24.599609 57.101876 24.599609 59.355469 C 24.599609 65.779282 23.809857 68.6744 21.833984 69.5 C 21.192323 69.767969 19.603117 69.939453 17.773438 69.939453 C 14.442525 69.939453 13.554729 69.548039 12.568359 67.640625 C 11.97085 66.485223 11.563508 55.51374 11.947266 50.931641 C 12.18564 48.085569 12.185716 48.081484 13.580078 46.8125 L 14.976562 45.542969 L 13.46875 44.177734 L 11.958984 42.8125 L 11.861328 37.736328 C 11.807319 34.944338 11.888549 30.610449 12.041016 28.105469 C 12.287857 24.051022 12.397125 23.467962 13.03125 22.792969 C 14.47354 21.257721 18.808906 20.790462 21.265625 21.90625 C 24.044288 23.168253 24.72172 25.044543 24.744141 31.539062 L 24.759766 36.179688 L 27.427734 36.339844 C 28.895041 36.427831 30.155816 36.440661 30.228516 36.367188 C 30.301196 36.293865 30.359375 28.84131 30.359375 19.806641 L 30.359375 3.3789062 L 29.154297 3.3789062 C 27.977363 3.3789062 25.838385 4.5139209 25.060547 5.5507812 C 24.779615 5.925219 24.465542 5.8272906 23.199219 4.9726562 C 21.355822 3.728485 19.745372 3.2047296 17.632812 3.2070312 z M 141.57031 3.2324219 C 141.39419 3.231477 141.24111 3.2400487 141.11914 3.2578125 L 140.10352 3.40625 L 140.14844 12.189453 L 140.19531 20.972656 L 140.98242 21.271484 C 141.4154 21.436121 142.18509 21.570312 142.69336 21.570312 C 143.20163 21.570312 143.99555 21.742847 144.45703 21.953125 C 146.0916 22.6979 146.20829 23.396686 146.1875 32.195312 C 146.16104 43.222659 146.11265 43.452865 143.32812 45.283203 L 142.54883 45.794922 L 143.92188 46.662109 C 146.10837 48.042389 146.20793 48.524909 146.32227 58.298828 C 146.43187 67.676683 146.32982 68.340966 144.63281 69.34375 C 144.12273 69.644978 143.04997 69.890625 142.23828 69.890625 L 140.76758 69.890625 L 140.76758 78.957031 C 140.76758 83.943702 140.8633 88.118974 140.98047 88.236328 C 141.3263 88.582155 144.10122 88.481464 145.2793 88.080078 C 145.87752 87.875984 146.96936 87.298935 147.70508 86.798828 C 149.28878 85.722381 149.75564 85.677315 150.52148 86.523438 C 151.29085 87.373529 154.25204 88.451172 155.82031 88.451172 L 157.08789 88.451172 L 157.08789 79.330078 L 157.08789 70.210938 L 155.54297 70.210938 C 154.3492 70.210938 153.8507 70.046921 153.34375 69.490234 C 152.01426 68.030619 151.9668 67.657357 151.9668 58.392578 L 151.9668 49.412109 L 153.11328 48.144531 C 153.74299 47.447537 154.53474 46.789017 154.87305 46.681641 C 155.79306 46.389634 155.62947 46.028812 154.12695 45.021484 C 153.25445 44.436516 152.62979 43.71173 152.38477 43 C 151.97835 41.819555 151.86145 25.766508 152.24609 24.003906 C 152.52653 22.719207 153.80999 21.869303 155.84375 21.621094 C 157.53721 21.414429 157.56644 21.392658 157.54883 20.371094 C 157.53749 19.799092 157.50314 15.708731 157.46875 11.283203 L 157.4082 3.2382812 L 155.13086 3.4277344 C 153.29552 3.5815989 152.48237 3.841059 150.93359 4.7636719 L 149.01172 5.9082031 L 148.00977 5.15625 C 147.45867 4.7423539 146.71921 4.2891229 146.36719 4.1484375 C 145.19406 3.6795493 142.80316 3.2390512 141.57031 3.2324219 z M 120.02344 3.2402344 L 119.79688 4.7519531 C 119.6726 5.5828067 119.61277 9.4373893 119.66406 13.318359 C 119.76414 20.888677 119.84253 21.242188 121.41797 21.242188 C 122.46314 21.242188 123.99752 22.053233 124.41016 22.824219 C 124.92921 23.794083 124.80608 25.64226 123.65039 34.294922 C 122.67261 41.615564 122.48789 42.503841 121.71094 43.625 C 121.23861 44.3066 120.4312 45.038561 119.91602 45.251953 C 118.84164 45.696955 118.72102 46.076752 119.56836 46.345703 C 120.62533 46.681325 121.06295 48.052841 120.99805 50.818359 C 120.94404 53.119374 120.71182 55.386442 119.63477 64.123047 C 119.23456 67.369245 119.0156 69.321978 118.99609 69.802734 C 118.98702 70.022703 118.8492 70.203125 118.69141 70.203125 C 118.53361 70.203125 118.23568 68.94235 118.02734 67.402344 C 117.55881 63.938822 117.09844 60.717834 116.71484 58.203125 C 116.55376 57.147125 116.3294 54.598666 116.21484 52.541016 C 115.99983 48.679019 116.28156 47.085729 117.24805 46.714844 C 117.98073 46.433647 117.76507 45.628695 116.83594 45.179688 C 115.35324 44.463165 114.87874 43.13897 114.04102 37.380859 C 112.53376 27.020683 112.42285 25.706569 112.92578 24.126953 C 113.5266 22.239986 114.97095 21.242188 117.10547 21.242188 L 118.6582 21.242188 L 118.6582 12.283203 L 118.6582 3.3222656 L 116.5 3.3300781 C 114.25201 3.3376372 112.17585 4.0210201 111.33984 5.03125 C 110.7425 5.753102 110.25101 5.7014994 108.875 4.7675781 C 107.33346 3.7214427 105.82373 3.3262597 103.35352 3.3242188 L 101.32812 3.3222656 L 101.55469 12.201172 C 101.67862 17.085191 101.84703 21.199498 101.92969 21.341797 C 102.01235 21.484285 102.49373 21.509556 103 21.398438 C 104.42625 21.085115 105.75805 22.043148 106.32031 23.789062 C 107.43236 27.242152 108.89433 40.971486 108.35742 42.916016 C 108.19698 43.497118 107.58707 44.320327 106.96484 44.794922 L 105.85742 45.640625 L 107.2793 46.542969 C 108.06228 47.039561 108.9146 47.85211 109.17188 48.349609 C 109.65366 49.281301 110.33804 53.634205 110.97266 59.802734 C 111.17184 61.738722 111.60951 65.625394 111.94531 68.441406 C 112.47064 72.84671 112.97356 77.912562 113.73242 86.441406 C 113.90265 88.354603 113.94661 88.441406 114.76953 88.441406 C 115.24266 88.441406 116.19054 88.062765 116.875 87.597656 C 117.96609 86.856264 118.2018 86.803434 118.78906 87.173828 C 120.7519 88.411812 121.19998 88.589051 121.52539 88.263672 C 121.86887 87.920113 121.98096 87.187142 123.31445 76.626953 C 123.74611 73.208597 124.23935 69.536479 124.41016 68.466797 C 124.58095 67.397153 125.01558 64.290525 125.375 61.5625 C 126.92273 49.815124 127.12961 49.034254 129.16016 47.259766 L 130.33008 46.236328 L 129.42969 45.294922 C 127.99659 43.79906 127.92635 42.736158 128.76172 35.236328 C 129.82553 25.685575 130.06154 24.562322 131.29102 23.220703 C 132.09273 22.345894 132.71187 22.028258 134.20312 21.730469 L 136.09766 21.351562 L 135.99023 12.580078 C 135.93082 7.7556624 135.81512 3.7001637 135.73242 3.5664062 C 135.51465 3.2141543 133.09755 3.2713062 131.68945 3.6621094 C 131.02465 3.8469283 129.96751 4.4488693 129.33984 5 C 128.38981 5.8341039 128.11115 5.9359773 127.66992 5.6132812 C 126.27831 4.5954923 123.56356 3.5625468 121.88281 3.4101562 L 120.02344 3.2402344 z M 165.64062 3.2773438 C 164.3783 3.3612493 164.51179 4.8224545 164.43945 12.488281 L 164.35352 21.482422 L 166.01953 21.644531 C 167.38953 21.776059 167.85018 21.989602 168.61523 22.845703 L 169.54688 23.886719 L 169.42578 33.367188 C 169.29539 43.727742 169.22814 44.117162 167.33203 45.515625 L 166.44336 46.171875 L 167.48438 47.132812 C 168.05728 47.661379 168.67064 48.471105 168.8457 48.931641 C 169.26825 50.042897 169.25408 64.342653 168.82812 67.005859 C 168.39786 69.691894 167.69816 70.423032 165.12109 70.876953 L 163.17969 71.216797 L 163.00391 80.230469 C 162.90791 85.188188 162.85737 89.274037 162.89062 89.310547 C 162.92464 89.348342 164.02507 89.402538 165.33789 89.431641 C 167.71982 89.484932 168.77796 89.18824 170.79688 87.904297 C 171.60494 87.390432 171.66567 87.405871 172.98828 88.46875 C 174.22933 89.466054 174.5655 89.573167 176.82422 89.675781 L 179.30078 89.787109 L 179.53516 81.355469 C 179.66404 76.71814 179.79638 72.564975 179.82812 72.125 C 179.8799 71.407419 179.75365 71.315775 178.60547 71.242188 C 175.67471 71.054345 175.33943 70.904696 174.79688 69.548828 C 174.40312 68.564753 174.28516 67.096168 174.28516 63.158203 C 174.28516 58.826184 174.21144 58.044922 173.80469 58.044922 C 173.53785 58.044922 173.32617 57.75995 173.32617 57.404297 C 173.32617 56.977626 173.53817 56.763672 173.96484 56.763672 C 174.55494 56.763672 174.60625 56.546715 174.61914 53.964844 C 174.63804 50.036592 174.9979 48.464641 176.08984 47.525391 C 176.9323 46.800704 176.95421 46.723754 176.41211 46.396484 C 175.10405 45.606979 174.91866 45.357333 174.84375 44.285156 C 174.69862 42.205018 175.32513 26.365234 175.55273 26.365234 C 175.6767 26.365234 176.01737 27.768356 176.31055 29.484375 C 176.60384 31.200356 177.13306 34.188975 177.48633 36.125 C 178.94821 44.136502 178.97416 44.485508 178.18945 45.546875 C 177.80205 46.070869 177.48633 46.578156 177.48633 46.675781 C 177.48633 46.773293 177.93007 47.249575 178.47266 47.734375 C 179.29077 48.465373 179.59127 49.161892 180.23242 51.810547 C 181.58326 57.391133 184.05803 69.955463 186.125 81.724609 C 186.85141 85.860622 187.50466 89.424525 187.57617 89.644531 C 187.75343 90.190635 188.39797 90.145977 189.28125 89.527344 C 189.96334 89.049611 190.11324 89.054169 191.27539 89.578125 C 191.96663 89.889936 192.59538 90.082357 192.67188 90.005859 C 192.84573 89.832001 193.39773 73.953155 193.64453 62.044922 C 193.88869 50.266742 194.05509 49.31325 196.05078 48.28125 C 197.24344 47.664469 197.25368 47.308909 196.09375 46.708984 C 195.59187 46.449331 194.92248 45.844113 194.60742 45.363281 C 194.08004 44.558393 194.04763 43.751985 194.19922 35.1875 C 194.40936 23.319179 194.46152 23.153394 198.125 22.845703 L 200.04492 22.683594 L 200.04492 13.564453 L 200.04492 4.4453125 L 197.94336 4.3515625 C 196.11344 4.2703027 195.59822 4.3855698 193.97266 5.2402344 C 192.14054 6.2039761 192.09311 6.2113815 191.43555 5.6269531 C 190.06208 4.4062413 185.80708 3.3331092 184.06836 3.7695312 L 183.24609 3.9765625 L 183.24609 13.089844 L 183.24609 22.205078 L 184.69531 22.205078 C 185.50451 22.205078 186.50412 22.438299 186.95312 22.732422 C 188.65893 23.850142 188.70096 24.186689 188.52344 35.230469 C 188.37037 44.743615 188.31856 45.460776 187.72266 46.271484 C 186.92068 47.362936 186.9201 47.709499 187.72461 47.964844 C 188.45794 48.197663 188.44717 48.135318 188.39648 51.324219 C 188.33261 55.334109 187.98475 59.644531 187.72461 59.644531 C 187.4608 59.644531 187.43396 59.523241 186.64453 54.683594 C 186.35729 52.923619 185.95346 50.850786 185.74805 50.076172 C 185.39655 48.751334 185.42109 48.629448 186.15039 48.029297 C 186.57788 47.677045 186.76613 47.334753 186.57031 47.265625 C 186.37529 47.196838 185.97315 46.963643 185.67578 46.746094 C 185.11864 46.338736 185.12349 46.360384 180.23828 21.564453 C 176.70081 3.6092027 176.75098 3.8216376 175.91211 3.6992188 C 174.9472 3.5582424 173.55543 4.1574098 172.67578 5.09375 L 171.96484 5.8515625 L 170.54688 4.7695312 C 169.52349 3.987925 168.65366 3.6258027 167.42773 3.4726562 C 166.63751 3.3740106 166.06335 3.2493752 165.64258 3.2773438 L 165.64062 3.2773438 z M 291.79688 3.3867188 C 290.24485 3.352703 288.67198 3.5065561 287.67188 3.859375 C 284.72811 4.898027 282.56437 7.5043231 280.92969 11.976562 C 279.62409 15.548481 279.3233 19.281254 279.32031 31.96875 C 279.31729 43.062495 279.32411 43.006655 277.42188 44.816406 L 276.42969 45.759766 L 277.67969 47.056641 C 278.36699 47.769573 279.02108 48.662975 279.13477 49.042969 C 279.24853 49.422962 279.39391 55.326078 279.45703 62.162109 C 279.56248 73.588604 279.62484 74.79887 280.24805 77.152344 C 281.13714 80.509925 282.21905 82.671493 284 84.652344 C 285.88595 86.749982 287.10569 87.596608 288.88672 88.048828 C 290.70656 88.510913 294.39847 88.308847 296.24609 87.646484 C 300.4498 86.13902 303.50335 80.36816 303.82812 73.3125 C 303.90901 71.552525 304.01084 65.562949 304.05469 60.003906 C 304.14237 48.962394 304.07737 49.36876 306.13672 47.154297 L 306.95117 46.277344 L 305.7168 45.210938 C 304.63045 44.271876 304.45592 43.917842 304.24805 42.248047 C 304.11803 41.204935 303.99867 35.240162 303.98242 28.992188 C 303.94841 16.404358 303.71404 14.455926 301.71875 10.275391 C 300.5319 7.7886127 297.77242 4.8791748 295.79883 4.0332031 C 294.88025 3.6394519 293.3489 3.4197896 291.79688 3.3867188 z M 307.91016 3.7304688 L 307.78711 6.7304688 C 307.72021 8.380327 307.67377 12.538703 307.68359 15.970703 L 307.70312 22.208984 L 309.32617 22.408203 C 311.24969 22.642987 312.19696 23.097827 312.69336 24.025391 C 312.93865 24.483859 313.06451 27.587627 313.08008 33.537109 C 313.09898 41.286724 313.03548 42.49762 312.55469 43.410156 C 312.25308 43.982158 311.90287 44.454637 311.77539 44.460938 C 311.64802 44.467363 311.1128 44.825398 310.58594 45.255859 L 309.62891 46.039062 L 311.22656 47.445312 L 312.82422 48.851562 L 312.82422 58.585938 C 312.82422 69.79029 312.85069 69.671688 310.20898 70.347656 C 309.35961 70.564979 308.33614 70.873631 307.93555 71.033203 L 307.20703 71.324219 L 307.23242 79.246094 C 307.24754 83.603813 307.34282 87.709122 307.44336 88.369141 L 307.625 89.570312 L 309.51562 89.570312 C 311.62808 89.570312 313.85822 88.639004 315.20312 87.197266 L 315.98242 86.363281 L 316.80273 87.132812 C 317.25431 87.55646 318.41675 88.242014 319.38477 88.65625 C 320.93354 89.319028 321.62462 89.407317 325.14453 89.386719 C 328.79839 89.364042 329.2826 89.290356 330.74414 88.533203 C 333.89162 86.902488 335.74788 84.190538 336.95117 79.464844 C 337.83037 76.012019 337.94029 74.273523 338.07812 61.730469 C 338.14275 55.83447 338.30402 50.721143 338.43555 50.369141 C 338.56707 50.017153 339.26545 49.112692 339.98828 48.357422 L 341.30273 46.984375 L 340.13086 45.957031 C 339.48592 45.392294 338.80674 44.622534 338.62109 44.248047 C 338.40377 43.809728 338.26582 38.965159 338.23438 30.648438 C 338.20036 21.830301 338.05671 17.000499 337.7793 15.433594 C 336.62677 8.9215585 332.46342 4.8459229 326.14844 4.0488281 C 323.75263 3.7464281 322.99749 3.774581 321.17383 4.2246094 C 319.99152 4.5163889 318.61568 5.0460212 318.11523 5.4023438 C 316.93016 6.2461913 316.79515 6.2309694 314.64648 5.0332031 C 313.16294 4.2061858 312.36644 3.9919386 310.36719 3.875 L 307.91016 3.7304688 z M 342.68555 4.5390625 L 342.5625 7.5390625 C 342.4956 9.1889208 342.44916 13.347297 342.45898 16.779297 L 342.47852 23.017578 L 344.10156 23.216797 C 346.02508 23.451581 346.97235 23.90642 347.46875 24.833984 C 347.71404 25.292452 347.8399 28.39622 347.85547 34.345703 C 347.87437 42.095318 347.81087 43.306213 347.33008 44.21875 C 347.02847 44.790751 346.67826 45.263231 346.55078 45.269531 C 346.42341 45.275956 345.88819 45.633991 345.36133 46.064453 L 344.4043 46.847656 L 346.00195 48.253906 L 347.59961 49.660156 L 347.59961 59.394531 C 347.59961 70.598884 347.62608 70.480281 344.98438 71.15625 C 344.135 71.373573 343.11153 71.682225 342.71094 71.841797 L 341.98242 72.132812 L 342.00781 80.054688 C 342.02293 84.412407 342.11821 88.517715 342.21875 89.177734 L 342.40039 90.378906 L 344.29102 90.378906 C 346.40347 90.378906 348.63361 89.447598 349.97852 88.005859 L 350.75781 87.171875 L 351.57812 87.941406 C 352.0297 88.365053 353.19214 89.050608 354.16016 89.464844 C 355.70893 90.127622 356.40001 90.215911 359.91992 90.195312 C 363.57378 90.172635 364.05799 90.09895 365.51953 89.341797 C 368.66701 87.711082 370.52327 84.999132 371.72656 80.273438 C 372.60576 76.820612 372.71568 75.082116 372.85352 62.539062 C 372.91815 56.643064 373.07941 51.529737 373.21094 51.177734 C 373.34247 50.825747 374.04084 49.921286 374.76367 49.166016 L 376.07812 47.792969 L 374.90625 46.765625 C 374.26131 46.200888 373.58213 45.431128 373.39648 45.056641 C 373.17916 44.618321 373.04121 39.773753 373.00977 31.457031 C 372.97575 22.638895 372.8321 17.809093 372.55469 16.242188 C 371.40216 9.7301522 367.23881 5.6545167 360.92383 4.8574219 C 358.52802 4.5550219 357.77288 4.5831748 355.94922 5.0332031 C 354.76691 5.3249827 353.39107 5.854615 352.89062 6.2109375 C 351.70555 7.0547851 351.57054 7.0395632 349.42188 5.8417969 C 347.93833 5.0147796 347.14183 4.8005323 345.14258 4.6835938 L 342.68555 4.5390625 z M 262.36914 4.9453125 C 262.46461 4.9618061 262.54467 5.005707 262.60938 5.0742188 C 262.76162 5.2391545 262.74902 5.4590956 262.73633 5.6367188 C 262.73379 5.6900057 262.72735 5.7619347 262.73242 5.7949219 L 262.41797 6.1542969 L 261.99805 6.1542969 L 261.68555 5.9003906 C 261.62465 5.5933564 261.72367 5.4161362 261.78711 5.296875 C 261.81248 5.2562754 261.825 5.2318216 261.83008 5.2089844 L 262.03906 4.9804688 C 262.1634 4.9398692 262.27367 4.9288189 262.36914 4.9453125 z M 285.10938 11.380859 C 285.34893 11.431292 285.48262 11.666204 285.49023 12.044922 L 285.09375 12.431641 C 284.97703 12.398653 284.90251 12.334937 284.85938 12.296875 L 284.58203 11.982422 L 284.58203 11.703125 L 284.83594 11.394531 C 284.93871 11.368522 285.02952 11.364049 285.10938 11.380859 z M 121.17383 11.396484 C 121.29563 11.424397 121.37229 11.488697 121.41797 11.529297 L 121.67773 11.910156 C 121.75132 11.859407 121.8358 11.832031 121.92969 11.832031 C 122.31538 11.832031 122.66114 12.347663 122.67383 12.669922 L 122.31055 12.996094 C 122.0365 12.952957 121.90093 12.771805 121.82227 12.660156 C 121.79943 12.629707 121.76913 12.585737 121.75391 12.578125 L 121.52344 12.185547 L 121.16016 12.431641 C 121.04343 12.401191 120.97146 12.336306 120.92578 12.300781 L 120.65039 11.908203 C 120.68084 11.786404 120.74514 11.709737 120.7832 11.664062 L 121.17383 11.396484 z M 269.45703 12.828125 C 269.63737 12.801734 269.83578 12.850456 270.01562 12.994141 L 270.13281 13.193359 C 270.19117 13.59428 270.04603 13.818855 269.93945 13.986328 C 269.89632 14.052302 269.86093 14.104332 269.8457 14.160156 L 269.4668 14.386719 C 269.0608 14.290295 268.81253 13.919652 268.86328 13.488281 C 268.90452 13.123519 269.15647 12.87211 269.45703 12.828125 z M 50.839844 20.636719 C 51.066918 20.769531 51.319717 21.885848 51.515625 23.720703 C 51.637779 24.864702 52.091369 28.609016 52.523438 32.041016 C 52.955502 35.473016 53.318238 39.413016 53.328125 40.796875 C 53.344755 43.121254 53.278653 43.382831 52.460938 44.236328 C 51.341234 45.405049 50.60712 45.404127 49.429688 44.226562 C 48.594178 43.391053 48.493734 43.074068 48.490234 41.265625 C 48.486077 39.183419 50.313639 21.700849 50.625 20.841797 C 50.691898 20.65728 50.764178 20.59246 50.839844 20.636719 z M 311.12695 21.183594 C 311.44921 21.183594 311.67188 21.406841 311.67188 21.726562 C 311.67188 21.924485 311.5796 22.148917 311.4375 22.291016 C 311.32839 22.400127 311.19171 22.460938 311.05469 22.460938 L 311.05469 22.130859 C 310.93543 22.133397 310.80991 22.010496 310.73633 21.617188 C 310.91141 21.533451 311.03248 21.509181 311.12891 21.511719 L 311.12695 21.183594 z M 292.47852 21.380859 L 292.48047 21.380859 C 295.26389 21.331634 296.54408 21.830956 297.46484 23.199219 C 298.18072 24.263118 298.19727 24.466922 298.19727 32.662109 C 298.19727 41.95045 297.98863 43.256491 296.25977 44.796875 C 295.10882 45.822336 295.1017 45.958728 296.14844 46.935547 C 296.60557 47.362256 297.26962 48.275496 297.62305 48.964844 C 298.22868 50.146135 298.25769 50.697896 298.13867 58.564453 C 298.00072 67.67217 297.87105 68.352847 296.04883 69.546875 C 294.87438 70.316425 288.91568 70.497249 287.39453 69.810547 C 285.68237 69.037482 285.588 68.445592 285.58203 58.591797 C 285.57447 48.826632 285.66328 48.289293 287.46094 47.111328 C 288.48595 46.439744 288.48769 46.050088 287.47266 45.25 C 285.62277 43.794882 285.55795 43.396277 285.57617 33.632812 C 285.59885 21.906186 285.65708 21.777178 291.19141 21.435547 C 291.65325 21.405356 292.08119 21.38806 292.47852 21.380859 z M 325.0918 22.849609 L 325.09375 22.849609 C 328.92408 22.849701 329.57796 23.092323 331.04297 25.052734 C 331.66081 25.879536 331.70904 26.440963 331.80273 33.884766 C 331.86396 38.753349 331.77239 42.315163 331.56641 43.078125 C 331.38197 43.763232 330.69794 44.94639 330.04688 45.707031 L 328.86328 47.089844 L 329.875 47.929688 C 331.70633 49.451707 331.86133 50.309785 331.86133 58.833984 C 331.86133 67.875695 331.70296 68.59311 329.40625 69.939453 L 329.4043 69.939453 C 328.24466 70.618785 327.47519 70.796076 325.20312 70.900391 C 322.19867 71.038343 321.01275 70.710278 319.86328 69.421875 C 319.03027 68.488218 318.91837 65.945043 319.31836 57.072266 C 319.65096 49.694579 319.87401 48.791781 321.62109 47.759766 C 322.82714 47.047158 322.8283 46.671866 321.62891 45.988281 C 321.10567 45.690568 320.38626 44.970965 320.03125 44.388672 C 319.42845 43.399959 319.38608 42.790364 319.38672 35.169922 C 319.38732 26.568333 319.56057 25.184676 320.8125 23.730469 C 321.55394 22.86916 321.64627 22.849619 325.0918 22.849609 z M 359.86719 23.658203 L 359.86914 23.658203 C 363.69947 23.658295 364.35335 23.900917 365.81836 25.861328 C 366.4362 26.68813 366.48443 27.249557 366.57812 34.693359 C 366.63935 39.561943 366.54778 43.123757 366.3418 43.886719 C 366.15736 44.571826 365.47333 45.754984 364.82227 46.515625 L 363.63867 47.898438 L 364.65039 48.738281 C 366.48172 50.260301 366.63672 51.118379 366.63672 59.642578 C 366.63672 68.684289 366.47835 69.401704 364.18164 70.748047 L 364.17969 70.748047 C 363.02005 71.427379 362.25058 71.604669 359.97852 71.708984 C 356.97406 71.846937 355.78814 71.518872 354.63867 70.230469 C 353.80566 69.296812 353.69376 66.753637 354.09375 57.880859 C 354.42635 50.503172 354.6494 49.600374 356.39648 48.568359 C 357.60253 47.855752 357.60369 47.480459 356.4043 46.796875 C 355.88106 46.499162 355.16165 45.779559 354.80664 45.197266 C 354.20384 44.208553 354.16147 43.598958 354.16211 35.978516 C 354.16271 27.376927 354.33596 25.99327 355.58789 24.539062 C 356.32933 23.677754 356.42166 23.658213 359.86719 23.658203 z M 51.166016 46.205078 C 52.492898 46.326212 53.752353 47.317527 54.275391 48.902344 C 54.472531 49.499725 54.551619 50.198335 54.453125 50.455078 C 54.311128 50.825094 53.542405 50.921875 50.744141 50.921875 C 47.408832 50.921875 47.214844 50.885968 47.214844 50.271484 C 47.214844 49.103093 48.081289 47.511894 49.121094 46.771484 C 49.584282 46.441645 50.088018 46.257775 50.595703 46.207031 C 50.786078 46.188134 50.976461 46.187802 51.166016 46.205078 z M 9.3847656 55.931641 L 9.8066406 55.931641 L 10.123047 56.234375 C 10.125584 56.297812 10.123631 56.363129 10.121094 56.431641 C 10.118556 56.487465 10.116019 56.575019 10.121094 56.605469 C 10.113481 56.564869 10.052887 56.4998 9.984375 56.492188 L 10.212891 56.980469 C 10.047955 57.231679 9.8645706 57.285156 9.7402344 57.285156 C 9.2175149 57.285156 9.0759718 56.462763 9.0683594 56.259766 L 9.3847656 55.931641 z M 171.2793 66.953125 C 171.4909 66.965733 171.61704 67.050829 171.68555 67.126953 C 171.76167 67.205615 171.84589 67.349952 171.82812 67.585938 L 171.50977 67.878906 L 171.0918 67.878906 L 170.77539 67.560547 L 170.77539 67.279297 L 171.03906 66.966797 C 171.12978 66.951572 171.20876 66.948922 171.2793 66.953125 z M 36.642578 76.597656 C 36.868413 76.597656 37.037109 76.772996 37.037109 77.003906 L 37.037109 77.007812 C 37.037109 77.172748 36.956752 77.358286 36.822266 77.490234 C 36.708079 77.604421 36.562605 77.669922 36.417969 77.669922 L 36.417969 77.328125 C 36.390057 77.328125 36.366387 77.348625 36.335938 77.335938 C 36.305488 77.201451 36.354532 77.151928 36.417969 77.111328 L 36.417969 77.072266 C 36.420506 77.082416 36.438284 77.081647 36.443359 77.091797 C 36.522021 77.053735 36.611528 77.025127 36.619141 76.916016 C 36.634365 76.913478 36.632428 76.929103 36.642578 76.931641 L 36.642578 76.597656 z M 37.037109 77.003906 L 36.712891 77.005859 C 36.712891 77.010934 36.709569 77.018363 36.707031 77.023438 L 37.037109 77.003906 z M 36.642578 77.195312 C 36.637503 77.202925 36.630075 77.211138 36.625 77.21875 C 36.632612 77.21875 36.634966 77.232422 36.642578 77.232422 L 36.642578 77.195312 z M 18.236328 78.419922 C 18.328787 78.40101 18.428482 78.401625 18.53125 78.423828 L 18.691406 78.509766 C 18.77768 78.598577 18.891209 78.737224 18.888672 78.919922 C 18.886134 79.110232 18.767731 79.222504 18.699219 79.291016 C 18.656082 79.331615 18.635934 79.352747 18.630859 79.373047 L 18.302734 79.607422 C 17.972863 79.587122 17.732038 79.324797 17.742188 79 C 17.7498 78.703116 17.958951 78.476658 18.236328 78.419922 z M 318.15625 81.625 C 318.35925 81.640225 318.45765 81.741066 318.50586 81.822266 C 318.61243 82.004964 318.52594 82.183473 318.47266 82.302734 C 318.42952 82.389008 318.39825 82.463107 318.41602 82.496094 L 318.13086 82.958984 C 317.57769 82.953909 317.46092 82.646989 317.43555 82.517578 C 317.36196 82.139495 317.73201 81.764577 318.01367 81.650391 L 318.15625 81.625 z M 326.23242 82.742188 L 326.79297 82.742188 L 327.10938 83.060547 L 327.10938 83.621094 L 326.74414 83.935547 L 326.79297 83.621094 L 326.73047 83.933594 C 326.48941 83.895532 326.18622 83.848282 326.01367 83.599609 C 325.90456 83.439749 325.87171 83.239107 325.91992 82.998047 L 326.23242 82.742188 z M 44.056641 83.431641 L 44.056641 83.779297 C 44.094703 83.779297 44.111944 83.751569 44.160156 83.761719 L 44.160156 84.316406 C 44.111944 84.326556 44.094703 84.299412 44.056641 84.296875 L 44.056641 84.644531 C 43.703932 84.644531 43.4375 84.382206 43.4375 84.037109 C 43.4375 83.877249 43.499679 83.721024 43.611328 83.609375 C 43.722977 83.495189 43.884092 83.431641 44.056641 83.431641 z M 322.5293 84.416016 C 322.96574 84.416016 323.00509 84.94295 323.02539 85.224609 C 323.02793 85.272821 323.03008 85.311932 323.03516 85.339844 L 322.84961 85.373047 L 322.83203 85.376953 L 323.01953 85.591797 C 322.97386 85.670459 322.85454 85.880859 322.62109 85.880859 C 322.30137 85.880859 322.23317 85.548301 322.1875 85.330078 C 322.17481 85.259029 322.14667 85.137087 322.12891 85.101562 C 322.14159 85.126937 322.20084 85.179303 322.28711 85.189453 L 322.08398 84.667969 C 322.17787 84.558857 322.3263 84.416016 322.5293 84.416016 z M 48.595703 85.814453 L 48.943359 86.095703 C 48.968734 86.329151 48.917305 86.516689 48.792969 86.65625 C 48.663558 86.800886 48.467807 86.875 48.208984 86.875 C 48.15316 86.875 48.096056 86.872262 48.035156 86.867188 L 47.929688 86.265625 C 47.939837 86.255475 47.969935 86.21209 47.990234 86.181641 C 48.076508 86.052229 48.235382 85.814453 48.595703 85.814453 z M 13.519531 87.40625 C 13.453431 87.442972 13.362361 87.461259 13.279297 87.486328 C 13.338488 87.516886 13.397664 87.545734 13.457031 87.574219 C 13.474737 87.51735 13.480775 87.458684 13.519531 87.40625 z "
         style="fill:#392702;fill-opacity:1;stroke-width:0.32"
         id="path365" />
    </g>
  </g>
</svg>
