<?xml version="1.0" encoding="UTF-8" standalone="no"?>
<svg
   xmlns:dc="http://purl.org/dc/elements/1.1/"
   xmlns:cc="http://creativecommons.org/ns#"
   xmlns:rdf="http://www.w3.org/1999/02/22-rdf-syntax-ns#"
   xmlns:svg="http://www.w3.org/2000/svg"
   xmlns="http://www.w3.org/2000/svg"
   xmlns:sodipodi="http://sodipodi.sourceforge.net/DTD/sodipodi-0.dtd"
   xmlns:inkscape="http://www.inkscape.org/namespaces/inkscape"
   width="306.03705"
   height="152.03775"
   viewBox="0 0 80.972303 40.226655"
   version="1.1"
   id="svg8"
   inkscape:version="1.0.1 (c497b03c, 2020-09-10)"
   sodipodi:docname="drawing.svg">
  <style
     id="style833"></style>
  <defs
     id="defs2">
    <rect
       x="44.601189"
       y="122.46429"
       width="219.70483"
       height="99.885872"
       id="rect837" />
    <rect
       x="44.601189"
       y="122.46429"
       width="219.70483"
       height="99.885872"
       id="rect837-4" />
    <rect
       x="44.601189"
       y="122.46429"
       width="219.70483"
       height="99.885872"
       id="rect874" />
  </defs>
  <sodipodi:namedview
     id="base"
     pagecolor="#ffffff"
     bordercolor="#666666"
     borderopacity="1.0"
     inkscape:pageopacity="0.0"
     inkscape:pageshadow="2"
     inkscape:zoom="1.6348308"
     inkscape:cx="104.33933"
     inkscape:cy="113.61487"
     inkscape:document-units="mm"
     inkscape:current-layer="layer1"
     inkscape:document-rotation="0"
     showgrid="false"
     lock-margins="true"
     fit-margin-top="5"
     fit-margin-left="5"
     fit-margin-right="5"
     fit-margin-bottom="5"
     units="px"
     inkscape:window-width="1252"
     inkscape:window-height="819"
     inkscape:window-x="0"
     inkscape:window-y="25"
     inkscape:window-maximized="0" />
  <metadata
     id="metadata5">
    <rdf:RDF>
      <cc:Work
         rdf:about="">
        <dc:format>image/svg+xml</dc:format>
        <dc:type
           rdf:resource="http://purl.org/dc/dcmitype/StillImage" />
        <dc:title></dc:title>
      </cc:Work>
    </rdf:RDF>
  </metadata>
  <g
     inkscape:label="Layer 1"
     inkscape:groupmode="layer"
     id="layer1"
     transform="translate(-45.005846,-129.9839)">
    <path
       id="path843"
       style="opacity:1;fill:#e6e5d4;fill-opacity:0.69999999;stroke:none;stroke-width:1.00157;stroke-linecap:butt;stroke-linejoin:miter;stroke-miterlimit:4;stroke-dasharray:none;stroke-opacity:1"
       d="m 209.44727,2.9179688 c -2.08377,0 -7.20878,0.1844714 -12.73243,2.2949218 -5.5211,2.1095055 -11.51296,6.2983184 -14.68359,14.0039064 -0.14516,0.348394 -0.2614,0.706609 -0.39063,1.060547 -9.78784,21.764943 -25.6504,29.831578 -52.07421,24.83789 -3.47403,-1.128954 -7.14575,-1.685546 -10.84961,-1.685546 -4.04792,0 -7.56301,0.64218 -10.5918,1.601562 -7.5293,1.91626 -13.57871,1.976902 -17.333984,-3.912109 l -0.05078,-0.228516 -0.257812,0.09375 C 70.149118,44.044008 61.056674,28.17893 58.126953,5.5683594 V 4.7324219 l -2.738281,0.3105469 c -8.374976,0.9517228 -16.726166,1.5214843 -25.0625,1.5214843 -8.33633,0 -16.887886,-0.5711599 -25.060547,-1.5214843 L 2.5253906,4.7265625 V 14.779297 l 2.296875,0.148437 c 2.9963263,0.193285 6.4063794,0.404717 9.0644534,1.158204 2.658073,0.753448 4.255594,1.805864 4.886719,3.699218 0.265247,0.79578 0.451171,4.406766 0.451171,6.134766 V 125.95117 c 0,2.47589 -0.377484,6.30636 -0.953125,7.26367 -0.982352,1.375 -3.07999,2.39659 -5.691406,2.95313 -2.6356383,0.56171 -5.5671544,0.67003 -7.7128905,0.76758 l -2.3417969,0.10351 v 10.03906 l 2.6796875,-0.25 c 8.2524999,-0.76765 16.6305779,-1.52929 24.9296879,-1.52929 8.494416,0 16.8645,0.76129 25.3125,1.52929 l 2.679687,0.24219 v -0.0449 l 1.306641,-0.043 v 0.0508 l 2.642578,-0.19922 c 7.484799,-0.57577 15.10869,-1.14257 22.470703,-1.14257 6.971206,0 14.007328,0.56071 21.111325,1.13671 l 2.65821,0.22071 v -0.22071 c 2.31632,-1.44212 4.82876,-2.02033 7.94921,-0.1289 v 0.34961 l 2.6504,-0.22071 c 7.104,-0.576 14.14793,-1.13671 21.11914,-1.13671 7.55716,0 15.17145,0.5668 22.65625,1.14257 l 0.40625,0.0312 -0.008,0.17579 1.17774,-0.0879 1.0664,0.0801 v -0.16015 l 0.52344,-0.0391 c 7.4848,-0.57577 15.10869,-1.14257 22.4707,-1.14257 7.55717,0 14.97905,0.56635 22.66211,1.14257 l 2.64258,0.19336 v -0.93359 c 0.87663,-3.29577 5.71921,-15.157 28.42188,-2.69336 0.0203,0.002 0.0402,0.004 0.0605,0.006 0.50059,0.29208 1.00207,0.58927 1.4961,0.8457 0.002,0.001 0.005,-0.001 0.008,0 0.003,0.001 0.005,0.004 0.008,0.006 7.47281,3.93853 14.83965,4.11914 17.64258,4.11914 12.97644,0 21.12726,-5.75576 25.03125,-9.24218 0.004,-0.004 0.004,-0.01 0.008,-0.0137 16.56004,-14.32323 17.16211,-38.07378 17.16211,-43.316402 0,-5.305286 -0.23619,-26.741333 -14.29882,-41.619141 l -0.0137,-0.01563 -0.0156,-0.01563 c -7.30027,-7.503043 -16.16392,-11.300781 -26.71485,-11.300781 -0.0986,0 -0.19462,0.0052 -0.29296,0.0059 -1.039,-0.08128 -2.09758,-0.101282 -3.17579,-0.04492 -14.04138,-0.594061 -22.57659,-4.815426 -27.10937,-23.072265 -0.25585,-6.008296 -4.2317,-11.0812459 -9.32813,-13.8417974 h -0.008 C 216.91971,2.8882583 211.36727,2.9179688 209.44727,2.9179688 Z"
       transform="matrix(0.26458333,0,0,0.26458333,45.005846,129.9839)"
       sodipodi:nodetypes="sscccscccccccsccccccsscsccccsccccccsccccccssccccccscccccsscsccscccscccccs" />
    <text
       xml:space="preserve"
       id="text835"
       style="font-style:normal;font-variant:normal;font-weight:500;font-stretch:normal;font-size:50.79999999999999716px;line-height:1.25;font-family:'Corporate A BQ';-inkscape-font-specification:'Corporate A BQ Medium';letter-spacing:-1.75682999999999989px;white-space:pre;shape-inside:url(#rect837);fill:#41411f;fill-opacity:1;stroke:none;stroke-width:1.3;stroke-linecap:square;stroke-miterlimit:4;stroke-dasharray:none;stroke-opacity:1;paint-order:markers stroke fill;"
       transform="translate(-0.09955127,-0.00628051)"><tspan
         x="44.601562"
         y="168.03463"><tspan
           style="font-style:normal;font-variant:normal;font-weight:500;font-stretch:normal;font-size:50.8px;font-family:'Corporate A BQ';-inkscape-font-specification:'Corporate A BQ Medium';fill:#41411f;fill-opacity:1;stroke:none;stroke-width:1.3;stroke-linecap:square;stroke-miterlimit:4;stroke-dasharray:none;stroke-opacity:1;paint-order:markers stroke fill">Info</tspan></tspan></text>
    <g
       aria-label="Info"
       transform="translate(-0.005453,-0.00200804)"
       id="text835-6"
       style="font-style:normal;font-variant:normal;font-weight:500;font-stretch:normal;font-size:50.79999999999999716px;line-height:1.25;font-family:'Corporate A BQ';-inkscape-font-specification:'Corporate A BQ Medium';letter-spacing:-1.75682999999999989px;white-space:pre;shape-inside:url(#rect837-4);fill:none;fill-opacity:1;stroke:none;stroke-width:1.3;stroke-linecap:square;stroke-miterlimit:4;stroke-dasharray:none;paint-order:markers stroke fill" />
  </g>
</svg>
