<?xml version="1.0" encoding="UTF-8" standalone="no"?>
<svg
   xmlns:dc="http://purl.org/dc/elements/1.1/"
   xmlns:cc="http://creativecommons.org/ns#"
   xmlns:rdf="http://www.w3.org/1999/02/22-rdf-syntax-ns#"
   xmlns:svg="http://www.w3.org/2000/svg"
   xmlns="http://www.w3.org/2000/svg"
   xmlns:sodipodi="http://sodipodi.sourceforge.net/DTD/sodipodi-0.dtd"
   xmlns:inkscape="http://www.inkscape.org/namespaces/inkscape"
   width="129.5871"
   height="37.199894"
   viewBox="0 0 34.286585 9.8424722"
   version="1.1"
   id="svg8"
   inkscape:version="1.0.1 (c497b03c, 2020-09-10)"
   sodipodi:docname="editorialnew.svg">
  <style
     id="style833"></style>
  <defs
     id="defs2">
    <rect
       x="30.994047"
       y="95.25"
       width="167.06548"
       height="78.619049"
       id="rect837" />
  </defs>
  <sodipodi:namedview
     id="base"
     pagecolor="#ffffff"
     bordercolor="#666666"
     borderopacity="1.0"
     inkscape:pageopacity="0.0"
     inkscape:pageshadow="2"
     inkscape:zoom="2.0057227"
     inkscape:cx="50.767008"
     inkscape:cy="79.298684"
     inkscape:document-units="mm"
     inkscape:current-layer="layer1"
     inkscape:document-rotation="0"
     showgrid="false"
     lock-margins="true"
     units="px"
     fit-margin-top="2"
     fit-margin-left="2"
     fit-margin-right="2"
     fit-margin-bottom="2"
     inkscape:window-width="1252"
     inkscape:window-height="819"
     inkscape:window-x="0"
     inkscape:window-y="25"
     inkscape:window-maximized="0" />
  <metadata
     id="metadata5">
    <rdf:RDF>
      <cc:Work
         rdf:about="">
        <dc:format>image/svg+xml</dc:format>
        <dc:type
           rdf:resource="http://purl.org/dc/dcmitype/StillImage" />
        <dc:title />
      </cc:Work>
    </rdf:RDF>
  </metadata>
  <g
     inkscape:label="Layer 1"
     inkscape:groupmode="layer"
     id="layer1"
     transform="translate(-30.983556,-95.895508)">
    <g
       aria-label="OSWALD"
       id="text835"
       style="font-style:normal;font-weight:normal;font-size:10.5833px;line-height:1.25;font-family:sans-serif;white-space:pre;shape-inside:url(#rect837);fill:#ffffff;fill-opacity:1;stroke:none">
      <path
         d="m 33.968048,105.20881 q -0.910164,0 -1.449912,-0.33866 -0.539749,-0.33867 -0.772581,-0.97367 -0.232833,-0.63499 -0.232833,-1.50282 v -3.206744 q 0,-0.867831 0.232833,-1.481662 0.232832,-0.624415 0.772581,-0.952497 0.539748,-0.328082 1.449912,-0.328082 0.93133,0 1.460495,0.328082 0.539748,0.328082 0.772581,0.952497 0.243416,0.613831 0.243416,1.481662 v 3.217324 q 0,0.85725 -0.243416,1.49224 -0.232833,0.62442 -0.772581,0.97367 -0.529165,0.33866 -1.460495,0.33866 z m 0,-1.15358 q 0.391582,0 0.571498,-0.16933 0.190499,-0.16933 0.253999,-0.46566 0.0635,-0.29634 0.0635,-0.64559 v -3.947566 q 0,-0.359832 -0.0635,-0.645581 -0.0635,-0.28575 -0.253999,-0.444499 -0.179916,-0.169333 -0.571498,-0.169333 -0.370416,0 -0.560915,0.169333 -0.190499,0.158749 -0.253999,0.444499 -0.0635,0.285749 -0.0635,0.645581 v 3.947566 q 0,0.34925 0.05292,0.64559 0.0635,0.29633 0.254,0.46566 0.190499,0.16933 0.571498,0.16933 z"
         style="font-style:normal;font-variant:normal;font-weight:500;font-stretch:normal;font-family:Oswald;-inkscape-font-specification:'Oswald Medium';fill:#ffffff"
         id="path847" />
      <path
         d="m 39.751821,105.20881 q -0.772581,0 -1.291163,-0.29633 -0.518581,-0.30691 -0.783164,-0.889 -0.264582,-0.58208 -0.296332,-1.42874 l 1.344079,-0.26458 q 0.02117,0.49741 0.116416,0.87841 0.105833,0.381 0.306916,0.59266 0.211666,0.20109 0.550331,0.20109 0.380999,0 0.539749,-0.22225 0.158749,-0.23283 0.158749,-0.58208 0,-0.56092 -0.253999,-0.92075 -0.253999,-0.35983 -0.677331,-0.71966 l -1.079497,-0.9525 q -0.455082,-0.39158 -0.730247,-0.867832 -0.264583,-0.486832 -0.264583,-1.195913 0,-1.015997 0.592665,-1.566329 0.592665,-0.550331 1.619245,-0.550331 0.603248,0 1.005413,0.190499 0.402166,0.179916 0.634998,0.507999 0.243416,0.328082 0.359832,0.751414 0.116417,0.412749 0.148167,0.878414 l -1.333496,0.232832 q -0.02117,-0.402165 -0.09525,-0.719664 -0.0635,-0.317499 -0.243416,-0.497415 -0.169333,-0.179916 -0.507998,-0.179916 -0.349249,0 -0.539748,0.232832 -0.179917,0.22225 -0.179917,0.560915 0,0.433916 0.179917,0.719665 0.179916,0.275165 0.518581,0.571498 l 1.068914,0.941912 q 0.529165,0.4445 0.89958,1.04775 0.380999,0.59266 0.380999,1.43933 0,0.61383 -0.275166,1.09008 -0.264582,0.47625 -0.751414,0.75141 -0.476249,0.26458 -1.12183,0.26458 z"
         style="font-style:normal;font-variant:normal;font-weight:500;font-stretch:normal;font-family:Oswald;-inkscape-font-specification:'Oswald Medium';fill:#ffffff"
         id="path849" />
      <path
         d="m 43.722046,105.0924 -1.217079,-8.572475 h 1.312329 l 0.709081,5.556235 0.888997,-5.535069 h 1.068914 l 0.910163,5.535069 0.698498,-5.556235 h 1.291163 l -1.195913,8.572475 h -1.269996 l -0.952497,-5.746734 -0.941914,5.746734 z"
         style="font-style:normal;font-variant:normal;font-weight:500;font-stretch:normal;font-family:Oswald;-inkscape-font-specification:'Oswald Medium';fill:#ffffff"
         id="path851" />
      <path
         d="m 49.66457,105.0924 1.714494,-8.572475 h 1.672162 l 1.714494,8.572475 h -1.449912 l -0.338665,-1.97908 h -1.492246 l -0.349249,1.97908 z m 1.979077,-2.97391 h 1.164163 l -0.582082,-3.598322 z"
         style="font-style:normal;font-variant:normal;font-weight:500;font-stretch:normal;font-family:Oswald;-inkscape-font-specification:'Oswald Medium';fill:#ffffff"
         id="path853" />
      <path
         d="m 55.576169,105.0924 v -8.572475 h 1.566328 v 7.492975 h 2.074327 v 1.0795 z"
         style="font-style:normal;font-variant:normal;font-weight:500;font-stretch:normal;font-family:Oswald;-inkscape-font-specification:'Oswald Medium';fill:#ffffff"
         id="path855" />
      <path
         d="m 59.999658,105.0924 v -8.572475 h 2.02141 q 1.047747,0 1.629828,0.285749 0.592665,0.285749 0.836081,0.878414 0.253999,0.592664 0.253999,1.502828 v 3.132654 q 0,0.93133 -0.253999,1.55575 -0.243416,0.61383 -0.825498,0.92074 -0.571498,0.29634 -1.576911,0.29634 z m 1.566328,-1.09008 h 0.476248 q 0.539749,0 0.772581,-0.1905 0.232833,-0.1905 0.285749,-0.55033 0.05292,-0.37042 0.05292,-0.89958 v -3.280827 q 0,-0.518582 -0.07408,-0.836081 -0.07408,-0.317499 -0.306916,-0.465665 -0.232832,-0.148166 -0.751414,-0.148166 h -0.455082 z"
         style="font-style:normal;font-variant:normal;font-weight:500;font-stretch:normal;font-family:Oswald;-inkscape-font-specification:'Oswald Medium';fill:#ffffff"
         id="path857" />
    </g>
  </g>
</svg>
