<?xml version="1.0" encoding="UTF-8" standalone="no"?>
<svg
   xmlns:dc="http://purl.org/dc/elements/1.1/"
   xmlns:cc="http://creativecommons.org/ns#"
   xmlns:rdf="http://www.w3.org/1999/02/22-rdf-syntax-ns#"
   xmlns:svg="http://www.w3.org/2000/svg"
   xmlns="http://www.w3.org/2000/svg"
   xmlns:sodipodi="http://sodipodi.sourceforge.net/DTD/sodipodi-0.dtd"
   xmlns:inkscape="http://www.inkscape.org/namespaces/inkscape"
   width="1098.209"
   height="163.856"
   viewBox="0 0 290.56781 43.353566"
   version="1.1"
   id="svg8"
   inkscape:version="1.0.1 (c497b03c, 2020-09-10)"
   sodipodi:docname="editorialnew.svg">
  <style
     id="style833"></style>
  <defs
     id="defs2">
    <rect
       x="27.214287"
       y="44.601189"
       width="363.6131"
       height="140.60715"
       id="rect837" />
  </defs>
  <sodipodi:namedview
     id="base"
     pagecolor="#ffffff"
     bordercolor="#666666"
     borderopacity="1.0"
     inkscape:pageopacity="0.0"
     inkscape:pageshadow="2"
     inkscape:zoom="0.35"
     inkscape:cx="345.06159"
     inkscape:cy="363.72431"
     inkscape:document-units="mm"
     inkscape:current-layer="layer1"
     inkscape:document-rotation="0"
     showgrid="false"
     fit-margin-top="1"
     lock-margins="true"
     units="px"
     fit-margin-left="1"
     fit-margin-right="1"
     fit-margin-bottom="1"
     inkscape:window-width="1252"
     inkscape:window-height="791"
     inkscape:window-x="0"
     inkscape:window-y="25"
     inkscape:window-maximized="0" />
  <metadata
     id="metadata5">
    <rdf:RDF>
      <cc:Work
         rdf:about="">
        <dc:format>image/svg+xml</dc:format>
        <dc:type
           rdf:resource="http://purl.org/dc/dcmitype/StillImage" />
        <dc:title></dc:title>
      </cc:Work>
    </rdf:RDF>
  </metadata>
  <g
     inkscape:label="Layer 1"
     inkscape:groupmode="layer"
     id="layer1"
     transform="translate(-27.96626,-52.687229)">
    <g
       aria-label="Editorial New"
       id="text835"
       style="font-style:normal;font-variant:normal;font-weight:normal;font-stretch:normal;font-size:50.8px;line-height:1.25;font-family:'MS Mincho';-inkscape-font-specification:'MS Mincho';white-space:pre;shape-inside:url(#rect837);fill:#b25757;fill-opacity:1;stroke:none">
      <path
         d="M 55.256443,53.967812 H 28.230844 v 1.2192 c 4.7244,0 5.4356,0.9144 5.4356,4.0132 v 30.1752 c 0,3.0988 -0.7112,4.0132 -5.4356,4.0132 v 1.2192 h 27.330399 l 0.3556,-1.27 2.6924,-9.652 -1.1684,-0.3048 c -2.1336,7.6708 -3.4544,9.144 -6.5532,9.144 h -9.143999 c -1.9812,0 -2.3876,-0.508 -2.3876,-2.8956 v -15.2908 h 6.654799 c 3.0988,0 4.0132,0.7112 4.0132,5.9436 h 1.2192 v -14.0208 h -1.2192 c 0,5.2324 -0.9144,5.9436 -4.0132,5.9436 h -6.654799 v -16.1544 h 10.871199 c 3.0988,0 4.1656,1.1176 4.9276,7.62 l 1.2192,-0.1524 -0.9652,-8.1788 z"
         style="font-style:normal;font-variant:normal;font-weight:normal;font-stretch:normal;font-size:50.8px;font-family:'Editorial New';-inkscape-font-specification:'Editorial New';fill:#ffffff;fill-opacity:1"
         id="path6294" />
      <path
         d="m 84.76648,90.899412 c -2.7432,1.3716 -2.6416,0.7112 -2.6416,-2.54 v -34.6964 l -0.7112,-0.7112 -7.2644,3.6576 0.5588,1.0668 c 2.7432,-1.3716 2.6416,-0.762 2.6416,2.54 v 9.8044 h -0.1016 c -1.2192,-1.6256 -3.2512,-3.2512 -6.096,-3.2512 -6.4008,0 -10.16,6.7564 -10.16,15.494 0,8.1788 3.4036,13.3604 8.8392,13.3604 3.302,0 5.334,-1.9304 7.3152,-5.1308 h 0.2032 v 4.4196 l 0.7112,0.7112 7.2644,-3.6576 z m -7.4168,-2.794 c -1.4224,2.286 -2.8956,4.5212 -5.588,4.5212 -3.81,0 -5.2832,-5.2324 -5.2832,-11.8872 0,-6.1468 1.27,-11.8364 5.7404,-11.8364 2.9464,0 5.1308,3.2004 5.1308,9.2964 z"
         style="font-style:normal;font-variant:normal;font-weight:normal;font-stretch:normal;font-size:50.8px;font-family:'Editorial New';-inkscape-font-specification:'Editorial New';fill:#ffffff;fill-opacity:1"
         id="path6296" />
      <path
         d="m 92.319012,58.895412 c 1.6764,0 2.9972,-1.3208 2.9972,-2.9464 0,-1.6764 -1.3208,-2.9972 -2.9972,-2.9972 -1.6256,0 -2.9464,1.3208 -2.9464,2.9972 0,1.6256 1.3208,2.9464 2.9464,2.9464 z m 2.6416,30.48 v -21.8948 l -0.7112,-0.7112 -3.6068,1.8288 -3.81,1.8796 0.5588,1.0668 c 2.8448,-1.4224 2.794,-0.762 2.794,2.54 v 15.2908 c 0,3.2512 -0.508,4.0132 -3.6068,4.0132 v 1.2192 h 11.938 v -1.2192 c -3.0988,0 -3.556,-0.762 -3.556,-4.0132 z"
         style="font-style:normal;font-variant:normal;font-weight:normal;font-stretch:normal;font-size:50.8px;font-family:'Editorial New';-inkscape-font-specification:'Editorial New';fill:#ffffff;fill-opacity:1"
         id="path6298" />
      <path
         d="m 114.50194,83.431812 c -0.1016,6.7056 -1.016,9.1948 -3.3528,9.1948 -2.794,0 -3.0988,-3.048 -3.0988,-8.0264 v -14.6812 h 5.8928 v -2.1336 h -5.8928 v -7.2644 h -1.5748 c -0.4572,5.2832 -2.4384,7.112 -7.111996,7.2644 v 2.1336 h 3.962396 v 16.3068 c 0,6.8072 2.3876,9.398 6.4008,9.398 4.826,0 5.8928,-4.2672 5.9436,-12.192 z"
         style="font-style:normal;font-variant:normal;font-weight:normal;font-stretch:normal;font-size:50.8px;font-family:'Editorial New';-inkscape-font-specification:'Editorial New';fill:#ffffff;fill-opacity:1"
         id="path6300" />
      <path
         d="m 130.01975,95.623812 c 7.0612,0 11.43,-6.1976 11.43,-14.4272 0,-8.1788 -4.3688,-14.4272 -11.43,-14.4272 -7.112,0 -11.4808,6.2484 -11.4808,14.4272 0,8.2296 4.3688,14.4272 11.4808,14.4272 z m 1.0668,-2.1336 c -3.9116,0.3048 -6.2992,-3.6576 -7.0612,-11.7348 -0.6604,-8.128 1.016,-12.446 4.8768,-12.8016 3.9116,-0.3556 6.35,3.6068 7.0612,11.7348 0.6604,8.128 -1.016,12.446 -4.8768,12.8016 z"
         style="font-style:normal;font-variant:normal;font-weight:normal;font-stretch:normal;font-size:50.8px;font-family:'Editorial New';-inkscape-font-specification:'Editorial New';fill:#ffffff;fill-opacity:1"
         id="path6302" />
      <path
         d="m 158.77255,66.769412 c -3.302,0 -5.4864,2.8956 -6.8072,5.2832 h -0.1524 v -4.572 l -0.7112,-0.7112 -3.6068,1.8288 -3.81,1.8796 0.5588,1.0668 c 2.8448,-1.4224 2.794,-0.762 2.794,2.54 v 15.2908 c 0,3.2512 -0.508,4.0132 -3.6068,4.0132 v 1.2192 h 13.716 v -1.2192 c -4.6228,0 -5.334,-0.762 -5.334,-4.0132 v -14.4272 c 1.6764,-2.9464 2.8448,-4.5212 4.3688,-4.5212 0.508,0 0.8128,0.254 1.1684,0.8636 0.4572,0.8128 1.0668,1.4224 2.4892,1.4224 1.7272,0 2.6924,-1.3208 2.6924,-2.8448 0,-1.8796 -1.5748,-3.0988 -3.7592,-3.0988 z"
         style="font-style:normal;font-variant:normal;font-weight:normal;font-stretch:normal;font-size:50.8px;font-family:'Editorial New';-inkscape-font-specification:'Editorial New';fill:#ffffff;fill-opacity:1"
         id="path6304" />
      <path
         d="m 169.90808,58.895412 c 1.6764,0 2.9972,-1.3208 2.9972,-2.9464 0,-1.6764 -1.3208,-2.9972 -2.9972,-2.9972 -1.6256,0 -2.9464,1.3208 -2.9464,2.9972 0,1.6256 1.3208,2.9464 2.9464,2.9464 z m 2.6416,30.48 v -21.8948 l -0.7112,-0.7112 -3.6068,1.8288 -3.81,1.8796 0.5588,1.0668 c 2.8448,-1.4224 2.794,-0.762 2.794,2.54 v 15.2908 c 0,3.2512 -0.508,4.0132 -3.6068,4.0132 v 1.2192 h 11.938 v -1.2192 c -3.0988,0 -3.556,-0.762 -3.556,-4.0132 z"
         style="font-style:normal;font-variant:normal;font-weight:normal;font-stretch:normal;font-size:50.8px;font-family:'Editorial New';-inkscape-font-specification:'Editorial New';fill:#ffffff;fill-opacity:1"
         id="path6306" />
      <path
         d="m 199.64353,91.153412 c -0.6096,1.6256 -0.9652,2.3876 -1.8288,2.3876 -0.9652,0 -1.1176,-0.8128 -1.1176,-2.3876 v -16.3068 c 0,-5.5372 -3.2004,-8.0772 -8.2804,-8.0772 -4.9276,0 -8.5344,2.2352 -8.5344,5.8928 0,2.2352 1.016,3.5052 2.794,3.5052 1.6256,0 2.6924,-0.8128 2.6924,-2.032 0,-1.3716 -0.8128,-1.9304 -0.8128,-3.1496 0,-1.524 1.524,-2.4384 3.5052,-2.4384 3.4036,0 3.8608,2.3876 3.8608,6.1976 v 2.3876 l -2.3876,1.1176 c -5.3848,2.4384 -11.0744,4.4704 -11.0744,10.9728 0,3.9116 2.1844,6.4008 5.7404,6.4008 4.4196,0 6.6548,-3.6576 7.62,-5.2324 h 0.1016 v 0.2032 c 0,3.1496 1.3208,5.0292 4.318,5.0292 2.9464,0 3.8608,-1.8796 4.572,-4.4704 z m -13.1064,0.9144 c -1.9812,0 -3.3528,-1.3716 -3.3528,-4.1148 0,-3.6068 2.5908,-6.0452 6.5024,-7.874 l 2.2352,-1.0668 v 9.398 c -1.9304,2.4892 -3.4036,3.6576 -5.3848,3.6576 z"
         style="font-style:normal;font-variant:normal;font-weight:normal;font-stretch:normal;font-size:50.8px;font-family:'Editorial New';-inkscape-font-specification:'Editorial New';fill:#ffffff;fill-opacity:1"
         id="path6308" />
      <path
         d="m 210.05436,89.375412 v -35.7124 l -0.7112,-0.7112 -3.6068,1.778 -3.81,1.9304 0.5588,1.0668 c 2.8448,-1.4224 2.794,-0.8128 2.794,2.4892 v 29.1592 c 0,3.2512 -0.508,4.0132 -3.6068,4.0132 v 1.2192 h 11.938 v -1.2192 c -3.0988,0 -3.556,-0.762 -3.556,-4.0132 z"
         style="font-style:normal;font-variant:normal;font-weight:normal;font-stretch:normal;font-size:50.8px;font-family:'Editorial New';-inkscape-font-specification:'Editorial New';fill:#ffffff;fill-opacity:1"
         id="path6310" />
      <path
         d="m 263.45706,53.967812 h -12.9032 v 1.2192 c 4.7244,0 5.3848,0.9144 5.3848,4.0132 v 25.5524 h -0.1524 l -18.8976,-30.7848 h -10.6172 v 1.2192 c 2.54,0 4.064,0.3048 5.4356,1.9812 v 32.2072 c 0,3.0988 -0.7112,4.0132 -5.4356,4.0132 v 1.2192 h 12.954 v -1.2192 c -4.7244,0 -5.4356,-0.9144 -5.4356,-4.0132 v -28.956 l 21.7424,35.3568 h 2.54 v -36.576 c 0,-3.0988 0.6604,-4.0132 5.3848,-4.0132 z"
         style="font-style:normal;font-variant:normal;font-weight:normal;font-stretch:normal;font-size:50.8px;font-family:'Editorial New';-inkscape-font-specification:'Editorial New';fill:#ffffff;fill-opacity:1"
         id="path6312" />
      <path
         d="m 279.72656,83.939812 c -1.4224,5.9944 -3.7592,7.9248 -6.1976,7.9248 -4.0132,0 -6.096,-4.9784 -6.096,-11.8872 v -0.2032 h 13.462 c 0,-7.4168 -2.8448,-13.0048 -8.636,-13.0048 -6.1976,0 -9.7536,6.8072 -9.7536,14.6304 0,8.6868 3.5052,14.224 9.2964,14.224 4.7244,0 8.0772,-3.8608 9.144,-11.684 z m -7.6708,-15.0368 c 3.048,0 3.9624,3.9116 3.9624,8.7884 h -8.5344 c 0.254,-5.1308 1.5748,-8.7884 4.572,-8.7884 z"
         style="font-style:normal;font-variant:normal;font-weight:normal;font-stretch:normal;font-size:50.8px;font-family:'Editorial New';-inkscape-font-specification:'Editorial New';fill:#ffffff;fill-opacity:1"
         id="path6314" />
      <path
         d="m 318.26947,67.785412 h -8.3312 v 1.2192 c 3.2512,0 3.2004,0.7112 2.286,3.8608 l -4.2164,14.732 h -0.1524 l -4.1656,-14.732 c -0.9144,-3.1496 -0.9652,-3.8608 2.0828,-3.8608 v -1.2192 h -11.6332 v 1.2192 c 2.1844,0 3.0988,0.6604 4.0132,3.8608 l 1.27,4.2672 -3.6068,11.3284 h -0.1524 l -5.08,-15.6464 c -1.0668,-3.1496 -1.1176,-3.81 2.1336,-3.81 v -1.2192 h -11.8872 v 1.2192 c 2.1336,0 3.0988,0.6604 4.1656,3.81 l 7.5692,22.9616 h 2.9464 l 4.8768,-15.3416 4.5212,15.3416 h 2.8956 l 6.5532,-22.9108 c 0.8636,-3.1496 1.778,-3.8608 3.9116,-3.8608 z"
         style="font-style:normal;font-variant:normal;font-weight:normal;font-stretch:normal;font-size:50.8px;font-family:'Editorial New';-inkscape-font-specification:'Editorial New';fill:#ffffff;fill-opacity:1"
         id="path6316" />
    </g>
  </g>
</svg>
