<?xml version="1.0" encoding="iso-8859-1"?>
<!-- Generator: Adobe Illustrator 16.0.0, SVG Export Plug-In . SVG Version: 6.00 Build 0)  -->
<!DOCTYPE svg PUBLIC "-//W3C//DTD SVG 1.1//EN" "http://www.w3.org/Graphics/SVG/1.1/DTD/svg11.dtd">
<svg version="1.1" id="Capa_1" xmlns="http://www.w3.org/2000/svg" xmlns:xlink="http://www.w3.org/1999/xlink" x="0px" y="0px"
	 width="612px" height="612px" viewBox="0 0 612 612" style="enable-background:new 0 0 612 612;" xml:space="preserve">
<g>
	<g id="_x32__22_">
		<g>
			<path d="M535.5,0h-459C34.253,0,0,34.253,0,76.5v459C0,577.747,34.253,612,76.5,612h459c42.247,0,76.5-34.253,76.5-76.5v-459
				C612,34.253,577.747,0,535.5,0z M229.5,459c10.557,0,19.125,8.568,19.125,19.125s-8.568,19.125-19.125,19.125h-95.089
				c-5.355,0-10.156-2.219-13.617-5.757c-3.71-3.137-6.043-7.707-6.043-13.368V382.5c0-10.557,8.568-19.125,19.125-19.125
				S153,371.943,153,382.5l-0.421,49.075l91.379-91.38l27.043,27.043L179.239,459H229.5z M243.958,271.824l-91.379-91.398L153,229.5
				c0,10.557-8.568,19.125-19.125,19.125s-19.125-8.568-19.125-19.125v-95.625c0-5.661,2.333-10.232,6.043-13.388
				c3.461-3.519,8.281-5.737,13.617-5.737H229.5c10.557,0,19.125,8.568,19.125,19.125S240.057,153,229.5,153h-50.261l91.781,91.781
				L243.958,271.824z M497.25,478.125c0,5.661-2.333,10.231-6.044,13.388c-3.461,3.538-8.28,5.737-13.616,5.737H382.5
				c-10.557,0-19.125-8.568-19.125-19.125S371.943,459,382.5,459h50.261l-91.781-91.781l27.043-27.042l91.379,91.379L459,382.5
				c0-10.557,8.568-19.125,19.125-19.125s19.125,8.568,19.125,19.125V478.125z M497.25,229.5c0,10.557-8.568,19.125-19.125,19.125
				S459,240.057,459,229.5l0.421-49.075l-91.38,91.379l-27.042-27.043L432.761,153H382.5c-10.557,0-19.125-8.568-19.125-19.125
				s8.568-19.125,19.125-19.125h95.09c5.336,0,10.155,2.219,13.616,5.757c3.711,3.136,6.044,7.707,6.044,13.368V229.5z"/>
		</g>
	</g>
</g>
<g>
</g>
<g>
</g>
<g>
</g>
<g>
</g>
<g>
</g>
<g>
</g>
<g>
</g>
<g>
</g>
<g>
</g>
<g>
</g>
<g>
</g>
<g>
</g>
<g>
</g>
<g>
</g>
<g>
</g>
</svg>
