<svg width="20" height="20" version="1.1" viewBox="0 0 20 20" xml:space="preserve" xmlns="http://www.w3.org/2000/svg"><style/>
<g transform="matrix(.02451 0 0 .02451 2.5 2.5)">
	<g id="_x32__22_">
		
			<path d="m535.5 0h-459c-42.247 0-76.5 34.253-76.5 76.5v459c0 42.247 34.253 76.5 76.5 76.5h459c42.247 0 76.5-34.253 76.5-76.5v-459c0-42.247-34.253-76.5-76.5-76.5zm-306 459c10.557 0 19.125 8.568 19.125 19.125s-8.568 19.125-19.125 19.125h-95.089c-5.355 0-10.156-2.219-13.617-5.757-3.71-3.137-6.043-7.707-6.043-13.368v-95.625c0-10.557 8.568-19.125 19.125-19.125s19.124 8.568 19.124 19.125l-0.421 49.075 91.379-91.38 27.043 27.043-91.762 91.762zm14.458-187.18-91.379-91.398 0.421 49.074c0 10.557-8.568 19.125-19.125 19.125s-19.125-8.568-19.125-19.125v-95.625c0-5.661 2.333-10.232 6.043-13.388 3.461-3.519 8.281-5.737 13.617-5.737h95.09c10.557 0 19.125 8.568 19.125 19.125s-8.568 19.125-19.125 19.125h-50.261l91.781 91.781zm253.29 206.3c0 5.661-2.333 10.231-6.044 13.388-3.461 3.538-8.28 5.737-13.616 5.737h-95.09c-10.557 0-19.125-8.568-19.125-19.125s8.568-19.125 19.125-19.125h50.261l-91.781-91.781 27.043-27.042 91.379 91.379-0.402-49.056c0-10.557 8.568-19.125 19.125-19.125s19.125 8.568 19.125 19.125zm0-248.62c0 10.557-8.568 19.125-19.125 19.125s-19.125-8.568-19.125-19.125l0.421-49.075-91.38 91.379-27.042-27.043 91.762-91.761h-50.261c-10.557 0-19.125-8.568-19.125-19.125s8.568-19.125 19.125-19.125h95.09c5.336 0 10.155 2.219 13.616 5.757 3.711 3.136 6.044 7.707 6.044 13.368z"/>
		
	</g>
</g>















</svg>
