<?xml version="1.0" encoding="UTF-8" standalone="no"?>
<svg
   xmlns:dc="http://purl.org/dc/elements/1.1/"
   xmlns:cc="http://creativecommons.org/ns#"
   xmlns:rdf="http://www.w3.org/1999/02/22-rdf-syntax-ns#"
   xmlns:svg="http://www.w3.org/2000/svg"
   xmlns="http://www.w3.org/2000/svg"
   xmlns:sodipodi="http://sodipodi.sourceforge.net/DTD/sodipodi-0.dtd"
   xmlns:inkscape="http://www.inkscape.org/namespaces/inkscape"
   width="306.03705"
   height="152.03775"
   viewBox="0 0 80.972303 40.226655"
   version="1.1"
   id="svg8"
   inkscape:version="1.0.1 (c497b03c, 2020-09-10)"
   sodipodi:docname="info.svg">
  <style
     id="style833"></style>
  <defs
     id="defs2">
    <rect
       x="44.601189"
       y="122.46429"
       width="219.70483"
       height="99.885872"
       id="rect837" />
    <rect
       x="44.601189"
       y="122.46429"
       width="219.70483"
       height="99.885872"
       id="rect837-4" />
    <rect
       x="44.601189"
       y="122.46429"
       width="219.70483"
       height="99.885872"
       id="rect874" />
  </defs>
  <sodipodi:namedview
     id="base"
     pagecolor="#ffffff"
     bordercolor="#666666"
     borderopacity="1.0"
     inkscape:pageopacity="0.0"
     inkscape:pageshadow="2"
     inkscape:zoom="2.1111663"
     inkscape:cx="166.38793"
     inkscape:cy="74.727203"
     inkscape:document-units="mm"
     inkscape:current-layer="layer1"
     inkscape:document-rotation="0"
     showgrid="false"
     lock-margins="true"
     fit-margin-top="5"
     fit-margin-left="5"
     fit-margin-right="5"
     fit-margin-bottom="5"
     units="px"
     inkscape:window-width="1252"
     inkscape:window-height="819"
     inkscape:window-x="0"
     inkscape:window-y="25"
     inkscape:window-maximized="0" />
  <metadata
     id="metadata5">
    <rdf:RDF>
      <cc:Work
         rdf:about="">
        <dc:format>image/svg+xml</dc:format>
        <dc:type
           rdf:resource="http://purl.org/dc/dcmitype/StillImage" />
        <dc:title></dc:title>
      </cc:Work>
    </rdf:RDF>
  </metadata>
  <g
     inkscape:label="Layer 1"
     inkscape:groupmode="layer"
     id="layer1"
     transform="translate(-45.005846,-129.9839)">
    <path
       style="color:#000000;font-style:normal;font-variant:normal;font-weight:normal;font-stretch:normal;font-size:medium;line-height:normal;font-family:sans-serif;font-variant-ligatures:normal;font-variant-position:normal;font-variant-caps:normal;font-variant-numeric:normal;font-variant-alternates:normal;font-variant-east-asian:normal;font-feature-settings:normal;font-variation-settings:normal;text-indent:0;text-align:start;text-decoration:none;text-decoration-line:none;text-decoration-style:solid;text-decoration-color:#000000;letter-spacing:normal;word-spacing:normal;text-transform:none;writing-mode:lr-tb;direction:ltr;text-orientation:mixed;dominant-baseline:auto;baseline-shift:baseline;text-anchor:start;white-space:normal;shape-padding:0;shape-margin:0;inline-size:0;clip-rule:nonzero;display:inline;overflow:visible;visibility:visible;opacity:1;isolation:auto;mix-blend-mode:normal;color-interpolation:sRGB;color-interpolation-filters:linearRGB;solid-color:#000000;solid-opacity:1;vector-effect:none;fill:#e5e4d3;fill-opacity:0.701961;fill-rule:nonzero;stroke:none;stroke-width:3.26929;stroke-linecap:butt;stroke-linejoin:miter;stroke-miterlimit:4;stroke-dasharray:none;stroke-dashoffset:0;stroke-opacity:1;paint-order:stroke fill markers;color-rendering:auto;image-rendering:auto;shape-rendering:auto;text-rendering:auto;enable-background:accumulate;stop-color:#000000;stop-opacity:1"
       d="m 209.44727,1.2832031 c -2.18025,0 -7.50752,0.1829098 -13.31641,2.4023438 -5.82671,2.226272 -12.24426,6.7271641 -15.61133,14.9101561 -0.16443,0.395722 -0.27693,0.740308 -0.38476,1.041016 -4.78735,10.632291 -10.929,17.711094 -19.00586,21.623047 -8.08498,3.915879 -18.26432,4.705936 -31.25977,2.25 l 0.20313,0.05078 c -3.64581,-1.184777 -7.48785,-1.765625 -11.35547,-1.765625 -4.22081,0 -7.91025,0.671821 -11.08594,1.677734 l 0.0918,-0.02539 c -3.66724,0.933337 -6.86841,1.360699 -9.414066,0.941406 -2.484745,-0.409261 -4.372512,-1.534162 -6.007813,-4.009766 l -0.36914,-1.660156 -1.800782,0.652344 C 80.474385,40.79299 73.902104,37.879676 69.048828,31.875 64.188296,25.861346 61.209238,16.540552 59.761719,5.4375 V 2.9023438 l -4.556641,0.515625 h -0.002 C 46.876558,4.3641904 38.588024,4.9296875 30.326172,4.9296875 22.064507,4.9296875 13.572431,4.363815 5.4550781,3.4199219 H 5.453125 L 0.890625,2.8925781 V 16.3125 l 3.8261719,0.246094 c 2.9994135,0.193484 6.3422681,0.424284 8.7246091,1.099609 2.439159,0.691396 3.354352,1.363851 3.78125,2.644531 -0.03284,-0.09854 0.05936,0.284402 0.109375,0.720704 0.05001,0.436301 0.09613,0.994948 0.134766,1.585937 0.07727,1.181977 0.123047,2.505173 0.123047,3.310547 V 125.95117 c 0,1.15487 -0.09046,2.69195 -0.248047,4.00586 -0.07879,0.65696 -0.17573,1.26266 -0.275391,1.71875 -0.08936,0.40894 -0.194092,0.63914 -0.175781,0.625 -0.591618,0.7853 -2.299192,1.7665 -4.650391,2.26758 -2.4358651,0.51913 -5.2888952,0.63625 -7.4472652,0.73437 l -3.9023438,0.17188 v 13.39844 l 4.4667969,-0.41797 c 8.2501941,-0.76744 16.5782451,-1.52149 24.7773441,-1.52149 8.396748,0 16.716015,0.75348 25.164062,1.52149 v 0.002 l 2.5,0.22461 v 0.11328 l 0.681641,-0.0508 1.28125,0.11524 v -0.21094 l 2.439453,-0.1836 v -0.002 c 7.48196,-0.57555 15.067591,-1.13672 22.345703,-1.13672 6.882921,0 13.874725,0.55504 20.976565,1.13086 l 4.42773,0.36719 v -0.91406 c 1.46237,-0.77925 2.83322,-1.06879 4.67969,-0.17774 v 1.09375 l 4.41797,-0.36914 c 7.10242,-0.57587 14.10277,-1.13086 20.98633,-1.13086 7.08603,0 14.25656,0.51184 21.35742,1.05469 l -0.0195,0.42773 2.89453,-0.21679 2.70117,0.20312 v -0.40039 c 7.16189,-0.54819 14.40031,-1.06836 21.35937,-1.06836 7.47551,0 14.85464,0.56235 22.53907,1.13867 h 0.002 l 4.39844,0.32032 v -2.39258 c 0.39729,-1.43904 1.59662,-4.54896 5.04687,-6.0586 3.5205,-1.54036 9.83652,-1.60295 20.95313,4.5 l 0.29297,0.16016 0.0508,0.006 c 0.40204,0.23494 0.80793,0.47569 1.24609,0.70312 l 0.0117,0.006 0.0117,0.006 c 2e-5,1e-5 0.0274,0.009 0.0312,0.01 0.0641,0.0337 0.12533,0.045 0.18945,0.0781 1.8e-4,6e-5 -0.0688,-0.0357 -0.0977,-0.0488 0.0765,0.0243 0.11243,0.0343 0.20117,0.0625 -0.0301,-0.004 -0.10365,-0.0137 -0.10352,-0.0137 7.76279,4.01368 15.32413,4.20899 18.16797,4.20899 13.45981,0 22.04067,-6.01422 26.12109,-9.6582 l 0.0332,-0.0293 0.0332,-0.0332 c 0.0268,-0.0268 0.01,-0.0247 0.0332,-0.0508 17.09782,-14.90454 17.61524,-39.0809 17.61524,-44.435542 0,-5.353803 -0.15132,-27.301387 -14.74609,-42.742188 l 0.043,0.04492 -0.0488,-0.05469 -0.0391,-0.03906 C 282.74526,45.234239 273.37092,41.21875 262.42773,41.21875 c -0.15607,0 -0.25639,0.0055 -0.30468,0.0059 l 0.13867,0.0059 c -1.10428,-0.08639 -2.23463,-0.109155 -3.38867,-0.04883 h 0.15625 c -6.8713,-0.29071 -12.12339,-1.458689 -16.19727,-4.578125 -4.07388,-3.119437 -7.18081,-8.33172 -9.39648,-17.25586 l 0.0469,0.326172 C 233.19761,12.985438 228.82159,7.4533146 223.30078,4.4628906 L 222.93555,4.265625 h -0.11133 C 216.9915,1.2874005 211.3004,1.2832031 209.44727,1.2832031 Z M 287.43164,140.30078 c -0.011,0.0106 -0.002,0.0108 -0.0137,0.0215 l -0.0391,0.0351 c 0.0202,-0.0174 0.0326,-0.0392 0.0527,-0.0566 z m -121.11914,8.13867 -0.33203,0.0254 0.002,-0.002 c 0.10977,-0.008 0.22026,-0.015 0.33008,-0.0234 z"
       id="path915"
       transform="matrix(0.26458333,0,0,0.26458333,45.005846,129.9839)"
       sodipodi:nodetypes="ssccsccsccscccsccccscccccccsssssscsccccscccccccccsccccccscccccsccccscccccscscccsccscsccccsccccscccccscccccccc" />
    <g
       aria-label="Info"
       transform="translate(-0.005453,-0.00200804)"
       id="text835-6"
       style="font-style:normal;font-variant:normal;font-weight:500;font-stretch:normal;font-size:50.79999999999999716px;line-height:1.25;font-family:'Corporate A BQ';-inkscape-font-specification:'Corporate A BQ Medium';letter-spacing:-1.75682999999999989px;white-space:pre;shape-inside:url(#rect837-4);fill:none;fill-opacity:1;stroke:none;stroke-width:1.3;stroke-linecap:square;stroke-miterlimit:4;stroke-dasharray:none;paint-order:markers stroke fill" />
  </g>
</svg>
