<?xml version="1.0" encoding="UTF-8" standalone="no"?>
<svg
   xmlns:dc="http://purl.org/dc/elements/1.1/"
   xmlns:cc="http://creativecommons.org/ns#"
   xmlns:rdf="http://www.w3.org/1999/02/22-rdf-syntax-ns#"
   xmlns:svg="http://www.w3.org/2000/svg"
   xmlns="http://www.w3.org/2000/svg"
   xmlns:sodipodi="http://sodipodi.sourceforge.net/DTD/sodipodi-0.dtd"
   xmlns:inkscape="http://www.inkscape.org/namespaces/inkscape"
   width="269.34207"
   height="33.990459"
   viewBox="0 0 71.263427 8.9933093"
   version="1.1"
   id="svg8"
   inkscape:version="1.0.1 (c497b03c, 2020-09-10)"
   sodipodi:docname="mailto.svg"
   inkscape:export-filename="/Users/williamandree/Kod3n/willandree.xyz/public/mailto.png"
   inkscape:export-xdpi="96"
   inkscape:export-ydpi="96">
  <style
     id="style833"></style>
  <defs
     id="defs2">
    <rect
       x="38.55357"
       y="114.90476"
       width="154.97025"
       height="71.815475"
       id="rect837" />
  </defs>
  <sodipodi:namedview
     id="base"
     pagecolor="#ffffff"
     bordercolor="#666666"
     borderopacity="1.0"
     inkscape:pageopacity="0.0"
     inkscape:pageshadow="2"
     inkscape:zoom="2.6323401"
     inkscape:cx="172.62331"
     inkscape:cy="81.565394"
     inkscape:document-units="mm"
     inkscape:current-layer="layer1"
     inkscape:document-rotation="0"
     showgrid="false"
     lock-margins="true"
     units="px"
     fit-margin-top="1"
     fit-margin-left="1"
     fit-margin-right="1"
     fit-margin-bottom="1"
     inkscape:window-width="1252"
     inkscape:window-height="791"
     inkscape:window-x="0"
     inkscape:window-y="25"
     inkscape:window-maximized="0" />
  <metadata
     id="metadata5">
    <rdf:RDF>
      <cc:Work
         rdf:about="">
        <dc:format>image/svg+xml</dc:format>
        <dc:type
           rdf:resource="http://purl.org/dc/dcmitype/StillImage" />
        <dc:title></dc:title>
      </cc:Work>
    </rdf:RDF>
  </metadata>
  <g
     inkscape:label="Layer 1"
     inkscape:groupmode="layer"
     id="layer1"
     transform="translate(-20.247429,-52.271905)">
    <g
       aria-label="MAIL-TO"
       id="text4320"
       style="font-style:normal;font-weight:normal;font-size:10.58329999999999949px;line-height:1.25;font-family:sans-serif;fill:#dfff7c;fill-opacity:1;stroke:none;stroke-width:0.264583">
      <path
         d="m 20.512012,60.69595 h 2.370659 v -5.4504 l 3.100907,5.4504 h 1.322912 l 3.100907,-5.4504 v 5.4504 h 2.434159 v -7.873975 h -3.376073 l -2.730491,4.900067 -2.719908,-4.900067 h -3.503072 z"
         style="font-style:normal;font-variant:normal;font-weight:normal;font-stretch:normal;font-family:'Druk Wide Medium';-inkscape-font-specification:'Druk Wide Medium, ';stroke-width:0.264583;fill:#dfff7c;fill-opacity:1"
         id="path4477" />
      <path
         d="m 40.35884,57.478626 h -2.98449 l 1.460495,-2.95274 z m 1.650995,3.217324 h 2.656408 L 40.45409,52.821975 h -3.196157 l -3.97932,7.873975 h 2.508242 l 0.709081,-1.439329 h 4.773068 z"
         style="font-style:normal;font-variant:normal;font-weight:normal;font-stretch:normal;font-family:'Druk Wide Medium';-inkscape-font-specification:'Druk Wide Medium, ';stroke-width:0.264583;fill:#dfff7c;fill-opacity:1"
         id="path4479" />
      <path
         d="m 47.575825,52.821975 h -2.465909 v 7.873975 h 2.465909 z"
         style="font-style:normal;font-variant:normal;font-weight:normal;font-stretch:normal;font-family:'Druk Wide Medium';-inkscape-font-specification:'Druk Wide Medium, ';stroke-width:0.264583;fill:#dfff7c;fill-opacity:1"
         id="path4481" />
      <path
         d="m 48.789266,52.821975 v 7.873975 h 7.937475 v -1.957911 h -5.471566 v -5.916064 z"
         style="font-style:normal;font-variant:normal;font-weight:normal;font-stretch:normal;font-family:'Druk Wide Medium';-inkscape-font-specification:'Druk Wide Medium, ';stroke-width:0.264583;fill:#dfff7c;fill-opacity:1"
         id="path4483" />
      <path
         d="m 57.331807,56.642546 v 1.820327 h 3.397239 v -1.820327 z"
         style="font-style:normal;font-variant:normal;font-weight:normal;font-stretch:normal;font-family:'Druk Wide Medium';-inkscape-font-specification:'Druk Wide Medium, ';stroke-width:0.264583;fill:#dfff7c;fill-opacity:1"
         id="path4485" />
      <path
         d="m 63.113763,60.69595 h 2.487075 v -6.011315 h 3.39724 v -1.86266 h -9.270971 v 1.86266 h 3.386656 z"
         style="font-style:normal;font-variant:normal;font-weight:normal;font-stretch:normal;font-family:'Druk Wide Medium';-inkscape-font-specification:'Druk Wide Medium, ';stroke-width:0.264583;fill:#dfff7c;fill-opacity:1"
         id="path4487" />
      <path
         d="m 74.811947,52.684392 c -0.687915,0 -1.312329,0.05292 -1.873244,0.148166 -0.571498,0.09525 -1.037163,0.222249 -1.418162,0.370415 -0.380999,0.15875 -0.709081,0.349249 -0.984247,0.571499 -0.285749,0.232832 -0.507998,0.455081 -0.666748,0.677331 -0.158749,0.232832 -0.285749,0.476248 -0.380999,0.751414 -0.09525,0.275166 -0.158749,0.507998 -0.179916,0.719664 -0.03175,0.211666 -0.04233,0.423332 -0.04233,0.656165 v 0.317499 c 0,0.232833 0.01058,0.444499 0.04233,0.656165 0.02117,0.211666 0.08467,0.455081 0.179916,0.730247 0.09525,0.275166 0.22225,0.518582 0.380999,0.751415 0.15875,0.232832 0.380999,0.455081 0.666748,0.687914 0.285749,0.232833 0.613831,0.423332 0.99483,0.582081 0.370416,0.15875 0.836081,0.28575 1.407579,0.380999 0.560915,0.105833 1.185329,0.148166 1.873244,0.148166 h 0.455082 c 0.677331,0 1.301746,-0.04233 1.862661,-0.148166 0.560914,-0.09525 1.02658,-0.222249 1.407578,-0.380999 0.370416,-0.158749 0.698498,-0.349248 0.984247,-0.582081 0.285749,-0.232833 0.507999,-0.455082 0.666748,-0.687914 0.148166,-0.232833 0.275166,-0.476249 0.380999,-0.751415 0.09525,-0.275166 0.158749,-0.518581 0.190499,-0.730247 0.02117,-0.211666 0.04233,-0.423332 0.04233,-0.656165 v -0.317499 c 0,-0.232833 -0.02117,-0.455082 -0.04233,-0.666748 -0.03175,-0.211666 -0.09525,-0.444498 -0.190499,-0.719664 -0.105833,-0.264583 -0.232833,-0.507999 -0.391582,-0.740831 -0.15875,-0.22225 -0.380999,-0.444499 -0.656165,-0.677331 -0.285749,-0.22225 -0.613831,-0.412749 -0.99483,-0.571499 -0.380999,-0.148166 -0.846664,-0.275165 -1.396995,-0.370415 -0.560915,-0.09525 -1.18533,-0.148166 -1.862661,-0.148166 z m 3.407822,4.116903 c 0,0.253999 -0.05292,0.497415 -0.137582,0.719665 -0.08467,0.232832 -0.243416,0.455082 -0.455082,0.677331 -0.22225,0.222249 -0.550332,0.402165 -0.994831,0.529165 -0.444498,0.126999 -0.973663,0.190499 -1.598078,0.190499 -0.634998,0 -1.174746,-0.0635 -1.619245,-0.201082 -0.444498,-0.127 -0.77258,-0.306916 -0.984246,-0.539749 -0.211666,-0.222249 -0.370416,-0.444498 -0.455082,-0.677331 -0.08467,-0.222249 -0.127,-0.465665 -0.127,-0.719664 v -0.127 c 0,-1.375829 1.05833,-2.063743 3.185573,-2.063743 0.507999,0 0.963081,0.05292 1.354663,0.137583 0.380998,0.08467 0.687914,0.201082 0.920747,0.328082 0.222249,0.137583 0.402165,0.296332 0.550331,0.486832 0.137583,0.190499 0.232833,0.380998 0.285749,0.550331 0.04233,0.179916 0.07408,0.370416 0.07408,0.560915 z"
         style="font-style:normal;font-variant:normal;font-weight:normal;font-stretch:normal;font-family:'Druk Wide Medium';-inkscape-font-specification:'Druk Wide Medium, ';stroke-width:0.264583;fill:#dfff7c;fill-opacity:1"
         id="path4489" />
    </g>
    <g
       id="g4475"
       transform="matrix(0.06491803,0,0,0.06491803,81.174949,51.732933)"
       style="fill:#dfff7c;fill-opacity:1">
      <g
         id="g4418"
         style="fill:#dfff7c;fill-opacity:1">
	<g
   id="g4416"
   style="fill:#dfff7c;fill-opacity:1">
		<path
   style="fill:#dfff7c;fill-opacity:1"
   d="m 109.719,40.548 v -28.17 l 45.42,45.426 -45.42,45.42 V 74.708 C 56.202,78.742 12.966,106.613 2.452,142.76 0.847,137.247 0,131.537 0,125.689 0,81.534 48.027,45.196 109.719,40.548 Z"
   id="path4414" />

	</g>

</g>
      <g
         id="g4420"
         style="fill:#dfff7c;fill-opacity:1">
</g>
      <g
         id="g4422"
         style="fill:#dfff7c;fill-opacity:1">
</g>
      <g
         id="g4424"
         style="fill:#dfff7c;fill-opacity:1">
</g>
      <g
         id="g4426"
         style="fill:#dfff7c;fill-opacity:1">
</g>
      <g
         id="g4428"
         style="fill:#dfff7c;fill-opacity:1">
</g>
      <g
         id="g4430"
         style="fill:#dfff7c;fill-opacity:1">
</g>
      <g
         id="g4432"
         style="fill:#dfff7c;fill-opacity:1">
</g>
      <g
         id="g4434"
         style="fill:#dfff7c;fill-opacity:1">
</g>
      <g
         id="g4436"
         style="fill:#dfff7c;fill-opacity:1">
</g>
      <g
         id="g4438"
         style="fill:#dfff7c;fill-opacity:1">
</g>
      <g
         id="g4440"
         style="fill:#dfff7c;fill-opacity:1">
</g>
      <g
         id="g4442"
         style="fill:#dfff7c;fill-opacity:1">
</g>
      <g
         id="g4444"
         style="fill:#dfff7c;fill-opacity:1">
</g>
      <g
         id="g4446"
         style="fill:#dfff7c;fill-opacity:1">
</g>
      <g
         id="g4448"
         style="fill:#dfff7c;fill-opacity:1">
</g>
    </g>
  </g>
</svg>
