<?xml version="1.0" encoding="UTF-8" standalone="no"?>
<svg
   xmlns:dc="http://purl.org/dc/elements/1.1/"
   xmlns:cc="http://creativecommons.org/ns#"
   xmlns:rdf="http://www.w3.org/1999/02/22-rdf-syntax-ns#"
   xmlns:svg="http://www.w3.org/2000/svg"
   xmlns="http://www.w3.org/2000/svg"
   xmlns:sodipodi="http://sodipodi.sourceforge.net/DTD/sodipodi-0.dtd"
   xmlns:inkscape="http://www.inkscape.org/namespaces/inkscape"
   width="853.75"
   height="138.25"
   viewBox="0 0 225.88803 36.578645"
   version="1.1"
   id="svg8"
   sodipodi:docname="mincho.svg"
   inkscape:version="1.0.1 (c497b03c, 2020-09-10)">
  <sodipodi:namedview
     pagecolor="#ffffff"
     bordercolor="#666666"
     borderopacity="1"
     objecttolerance="10"
     gridtolerance="10"
     guidetolerance="10"
     inkscape:pageopacity="0"
     inkscape:pageshadow="2"
     inkscape:window-width="1440"
     inkscape:window-height="819"
     id="namedview953"
     showgrid="false"
     inkscape:zoom="1.3048316"
     inkscape:cx="426.875"
     inkscape:cy="69.125"
     inkscape:window-x="0"
     inkscape:window-y="25"
     inkscape:window-maximized="1"
     inkscape:current-layer="svg8"
     inkscape:document-rotation="0" />
  <style
     id="style833"></style>
  <defs
     id="defs2">
    <rect
       x="27.214287"
       y="44.601189"
       width="243.41667"
       height="111.88095"
       id="rect837" />
  </defs>
  <metadata
     id="metadata5">
    <rdf:RDF>
      <cc:Work
         rdf:about="">
        <dc:format>image/svg+xml</dc:format>
        <dc:type
           rdf:resource="http://purl.org/dc/dcmitype/StillImage" />
        <dc:title />
      </cc:Work>
    </rdf:RDF>
  </metadata>
  <g
     id="layer1"
     transform="translate(-27.479427,-58.161458)"
     style="fill:#ffffff;fill-opacity:1">
    <g
       aria-label="MS Mincho"
       id="text835"
       style="font-style:normal;font-variant:normal;font-weight:normal;font-stretch:normal;font-size:50.8px;line-height:1.25;font-family:'MS Mincho';-inkscape-font-specification:'MS Mincho';white-space:pre;shape-inside:url(#rect837);fill:#ffffff;fill-opacity:1;stroke:none">
      <path
         d="m 49.439843,91.035937 q 0,1.5875 1.785938,1.5875 h 0.79375 v 1.190625 h -8.532812 v -1.190625 h 0.992187 q 1.785937,0 1.785937,-1.5875 V 65.040625 h -0.396875 l -6.746874,28.773437 h -1.190625 v 0 L 31.778906,65.635937 h -0.396875 v 25.4 q 0,1.5875 1.785938,1.5875 h 0.595312 v 1.190625 h -5.953125 v -1.190625 h 0.595313 q 1.785937,0 1.785937,-1.5875 V 62.659375 q 0,-1.5875 -1.785937,-1.5875 h -0.79375 V 59.88125 h 5.754687 l 5.754688,26.590624 h 0.396875 L 45.669531,59.88125 h 6.35 v 1.190625 h -0.79375 q -1.785938,0 -1.785938,1.5875 z"
         style="font-style:normal;font-variant:normal;font-weight:normal;font-stretch:normal;font-size:50.8px;font-family:'MS Mincho';-inkscape-font-specification:'MS Mincho';fill:#ffffff;fill-opacity:1"
         id="path5704" />
      <path
         d="m 72.260156,85.082812 q 0,-1.785938 -1.785938,-3.571875 -2.778125,-2.778125 -6.945312,-4.564062 -4.167188,-1.785938 -6.151563,-3.373438 -2.182812,-1.785937 -2.182812,-5.357812 0,-3.373438 2.579687,-5.953125 2.38125,-2.38125 6.945313,-2.38125 2.182812,0 3.96875,0.79375 1.389062,0.595312 2.38125,0.595312 0.992187,0 1.984375,-1.389062 l 0.79375,8.135937 -1.190625,0.595313 q -1.5875,-4.167188 -3.175,-5.55625 -1.984375,-1.785938 -5.159375,-1.785938 -3.175,0 -4.564063,1.389063 -1.984375,1.785937 -1.984375,4.7625 0,2.778125 1.984375,4.167187 0.992188,0.595313 5.357813,2.579688 4.960937,2.182812 7.739062,5.159374 2.182813,2.38125 2.182813,5.754688 0,3.571875 -2.579688,6.151562 -2.579687,2.579688 -7.14375,2.579688 -2.38125,0 -4.167187,-0.79375 -1.389063,-0.595313 -2.182813,-0.595313 -1.190625,0 -2.579687,1.389063 l -1.5875,-9.723438 1.190625,-0.595312 q 1.5875,5.357812 3.175,6.746875 2.38125,2.182812 6.35,2.182812 3.175,0 4.7625,-1.5875 1.984375,-1.785937 1.984375,-5.754687 z"
         style="font-style:normal;font-variant:normal;font-weight:normal;font-stretch:normal;font-size:50.8px;font-family:'MS Mincho';-inkscape-font-specification:'MS Mincho';fill:#ffffff;fill-opacity:1"
         id="path5706" />
      <path
         d="m 125.63984,91.035937 q 0,1.5875 1.78594,1.5875 h 0.79375 v 1.190625 h -8.53281 v -1.190625 h 0.99218 q 1.78594,0 1.78594,-1.5875 V 65.040625 h -0.39687 l -6.74688,28.773437 h -1.19062 v 0 L 107.9789,65.635937 h -0.39687 v 25.4 q 0,1.5875 1.78594,1.5875 h 0.59531 v 1.190625 h -5.95313 v -1.190625 h 0.59532 q 1.78593,0 1.78593,-1.5875 V 62.659375 q 0,-1.5875 -1.78593,-1.5875 h -0.79375 V 59.88125 h 5.75468 l 5.75469,26.590624 h 0.39688 l 6.15156,-26.590624 h 6.35 v 1.190625 h -0.79375 q -1.78594,0 -1.78594,1.5875 z"
         style="font-style:normal;font-variant:normal;font-weight:normal;font-stretch:normal;font-size:50.8px;font-family:'MS Mincho';-inkscape-font-specification:'MS Mincho';fill:#ffffff;fill-opacity:1"
         id="path5708" />
      <path
         d="m 143.49922,60.278125 q 0.79375,0.79375 0.79375,1.5875 0,0.992187 -0.79375,1.785937 -0.79375,0.79375 -1.78594,0.79375 -0.99219,0 -1.78594,-0.79375 -0.79375,-0.79375 -0.79375,-1.785937 0,-0.79375 0.79375,-1.5875 0.79375,-0.79375 1.78594,-0.79375 0.99219,0 1.78594,0.79375 z m -3.37344,14.2875 q 0,-1.785938 -1.78594,-1.785938 h -4.16719 v -1.190625 h 1.98438 q 3.37344,0 6.35,-1.389062 h 0.39687 v 20.835937 q 0,1.5875 1.78594,1.5875 h 4.16719 v 1.190625 h -14.68438 v -1.190625 h 4.16719 q 1.78594,0 1.78594,-1.5875 z"
         style="font-style:normal;font-variant:normal;font-weight:normal;font-stretch:normal;font-size:50.8px;font-family:'MS Mincho';-inkscape-font-specification:'MS Mincho';fill:#ffffff;fill-opacity:1"
         id="path5710" />
      <path
         d="m 158.58047,73.970312 q 0,-1.190625 -0.99219,-1.190625 h -1.5875 v -1.190625 h 1.38906 q 1.78594,0 3.57188,-0.992187 h 0.39687 v 4.960937 q 3.37344,-3.96875 7.34219,-3.96875 6.54844,0 6.54844,7.14375 v 12.303125 q 0,1.5875 1.78594,1.5875 h 0.99218 v 1.190625 h -8.33437 v -1.190625 h 0.99219 q 1.78593,0 1.78593,-1.5875 V 78.137499 q 0,-4.960937 -4.56406,-4.960937 -3.57187,0 -6.54844,4.564063 v 13.295312 q 0,1.5875 1.78594,1.5875 h 0.99219 v 1.190625 h -8.33438 v -1.190625 h 0.99219 q 1.78594,0 1.78594,-1.5875 z"
         style="font-style:normal;font-variant:normal;font-weight:normal;font-stretch:normal;font-size:50.8px;font-family:'MS Mincho';-inkscape-font-specification:'MS Mincho';fill:#ffffff;fill-opacity:1"
         id="path5712" />
      <path
         d="m 198.4664,79.129687 q -1.78594,0 -1.78594,-1.984375 0,0.595313 0.39688,-1.389062 0.19843,-0.992188 -1.5875,-2.182813 -1.19063,-0.79375 -2.57969,-0.79375 -2.38125,0 -4.16719,1.785938 -2.97656,2.778125 -2.97656,8.731249 0,5.159375 2.57969,7.540625 1.38906,1.389063 4.36562,1.389063 3.57188,0 5.15938,-1.5875 1.78593,-1.785938 2.97656,-4.365625 l 0.99219,0.396875 q -1.19063,2.976562 -3.175,4.7625 -2.57969,2.38125 -6.35,2.38125 -3.96875,0 -6.54844,-2.579688 -3.175,-2.976562 -3.175,-7.9375 0,-5.357812 3.57188,-8.929687 2.77812,-2.778125 7.14374,-2.778125 3.37344,0 5.55625,2.182813 1.5875,1.5875 1.5875,3.175 0,2.182812 -1.98437,2.182812 z"
         style="font-style:normal;font-variant:normal;font-weight:normal;font-stretch:normal;font-size:50.8px;font-family:'MS Mincho';-inkscape-font-specification:'MS Mincho';fill:#ffffff;fill-opacity:1"
         id="path5714" />
      <path
         d="m 221.48516,92.623437 q 1.78594,0 1.78594,-1.5875 V 78.931249 q 0,-3.571874 -0.99219,-4.564062 -1.19063,-1.190625 -2.77813,-1.190625 -3.96875,0 -7.34218,4.960937 v 12.898438 q 0,1.5875 1.78593,1.5875 h 0.99219 v 1.190625 h -8.33437 v -1.190625 h 0.99218 q 1.78594,0 1.78594,-1.5875 V 62.659375 q 0,-1.5875 -1.78594,-1.5875 h -1.19062 V 59.88125 h 2.18281 q 1.5875,0 3.175,-1.5875 h 0.39688 v 17.859375 q 3.37343,-4.564063 7.73906,-4.564063 2.97656,0 4.7625,1.785938 1.38906,1.389062 1.38906,5.159374 v 12.501563 q 0,1.5875 1.78594,1.5875 h 0.99219 v 1.190625 h -8.33438 v -1.190625 z"
         style="font-style:normal;font-variant:normal;font-weight:normal;font-stretch:normal;font-size:50.8px;font-family:'MS Mincho';-inkscape-font-specification:'MS Mincho';fill:#ffffff;fill-opacity:1"
         id="path5716" />
      <path
         d="m 242.9164,71.589062 q 3.96875,0 6.54844,2.579688 3.77031,3.770312 3.77031,8.532812 0,5.159375 -3.57187,8.532812 -2.57969,2.579688 -6.74688,2.579688 -3.96875,0 -6.54843,-2.579688 -3.77032,-3.571875 -3.77032,-8.532812 0,-4.7625 3.57188,-8.334375 2.77812,-2.778125 6.74687,-2.778125 z m 0,1.389063 q -2.57968,0 -4.56406,1.984375 -2.57969,2.38125 -2.57969,7.937499 0,5.55625 2.57969,7.9375 1.78594,1.785938 4.56406,1.785938 2.77813,0 4.56407,-1.785938 2.57968,-2.38125 2.57968,-7.9375 0,-5.556249 -2.57968,-7.937499 -1.98438,-1.984375 -4.56407,-1.984375 z"
         style="font-style:normal;font-variant:normal;font-weight:normal;font-stretch:normal;font-size:50.8px;font-family:'MS Mincho';-inkscape-font-specification:'MS Mincho';fill:#ffffff;fill-opacity:1"
         id="path5718" />
    </g>
  </g>
</svg>
