<?xml version="1.0" encoding="UTF-8" standalone="no"?>
<svg
   xmlns:dc="http://purl.org/dc/elements/1.1/"
   xmlns:cc="http://creativecommons.org/ns#"
   xmlns:rdf="http://www.w3.org/1999/02/22-rdf-syntax-ns#"
   xmlns:svg="http://www.w3.org/2000/svg"
   xmlns="http://www.w3.org/2000/svg"
   xmlns:sodipodi="http://sodipodi.sourceforge.net/DTD/sodipodi-0.dtd"
   xmlns:inkscape="http://www.inkscape.org/namespaces/inkscape"
   version="1.1"
   width="517.06445"
   height="254.94141"
   x="0"
   y="0"
   viewBox="0 0 486.90909 240.07314"
   xml:space="preserve"
   class=""
   id="svg941"
   sodipodi:docname="pdf-file.svg"
   inkscape:version="1.0.1 (c497b03c, 2020-09-10)"><style
     id="style949"></style><metadata
     id="metadata947"><rdf:RDF><cc:Work
         rdf:about=""><dc:format>image/svg+xml</dc:format><dc:type
           rdf:resource="http://purl.org/dc/dcmitype/StillImage" /><dc:title></dc:title></cc:Work></rdf:RDF></metadata><defs
     id="defs945">
















</defs><sodipodi:namedview
     pagecolor="#ffffff"
     bordercolor="#666666"
     borderopacity="1"
     objecttolerance="10"
     gridtolerance="10"
     guidetolerance="10"
     inkscape:pageopacity="0"
     inkscape:pageshadow="2"
     inkscape:window-width="1293"
     inkscape:window-height="795"
     id="namedview943"
     showgrid="false"
     fit-margin-top="5"
     fit-margin-left="5"
     fit-margin-right="10"
     fit-margin-bottom="5"
     inkscape:zoom="0.85933688"
     inkscape:cx="236.8041"
     inkscape:cy="247.21092"
     inkscape:window-x="67"
     inkscape:window-y="25"
     inkscape:window-maximized="0"
     inkscape:current-layer="svg941"
     inkscape:document-rotation="0" /><g
     id="g909"
     transform="translate(-23.603673,-175.05679)"
     style="fill:#ff0000">
</g><g
     id="g911"
     transform="translate(-23.603673,-175.05679)"
     style="fill:#ff0000">
</g><g
     id="g913"
     transform="translate(-23.603673,-175.05679)"
     style="fill:#ff0000">
</g><g
     id="g915"
     transform="translate(-23.603673,-175.05679)"
     style="fill:#ff0000">
</g><g
     id="g917"
     transform="translate(-23.603673,-175.05679)"
     style="fill:#ff0000">
</g><g
     id="g919"
     transform="translate(-23.603673,-175.05679)"
     style="fill:#ff0000">
</g><g
     id="g921"
     transform="translate(-23.603673,-175.05679)"
     style="fill:#ff0000">
</g><g
     id="g923"
     transform="translate(-23.603673,-175.05679)"
     style="fill:#ff0000">
</g><g
     id="g925"
     transform="translate(-23.603673,-175.05679)"
     style="fill:#ff0000">
</g><g
     id="g927"
     transform="translate(-23.603673,-175.05679)"
     style="fill:#ff0000">
</g><g
     id="g929"
     transform="translate(-23.603673,-175.05679)"
     style="fill:#ff0000">
</g><g
     id="g931"
     transform="translate(-23.603673,-175.05679)"
     style="fill:#ff0000">
</g><g
     id="g933"
     transform="translate(-23.603673,-175.05679)"
     style="fill:#ff0000">
</g><g
     id="g935"
     transform="translate(-23.603673,-175.05679)"
     style="fill:#ff0000">
</g><g
     id="g937"
     transform="translate(-23.603673,-175.05679)"
     style="fill:#ff0000">
</g><g
     id="g877"
     transform="translate(-6.7556234e-6,-179.76518)"><g
       id="g1034"
       transform="matrix(0.97837935,0,0,0.97837935,-266.87811,-142.90749)"
       style="fill:#ff0000"><g
         id="g1041"
         style="fill:#ff0000"><g
           id="g1047"
           style="fill:#ff0000"><g
             id="g1052"
             transform="matrix(1.4136972,0,0,1.4136972,-114.83742,-235.95971)"
             style="fill:#ff0000"><path
               d="m 396.59245,471.36757 c 0,-8.007 -5.55599,-12.782 -15.35899,-12.782 -4.003,0 -6.714,0.39499 -8.132,0.77299 v 25.69 c 1.679,0.378 3.743,0.50401 6.588,0.50401 10.449,0 16.90299,-5.279 16.90299,-14.185 z"
               fill="#ffffff"
               data-original="#000000"
               class=""
               id="path901-0"
               style="fill:#ffffff;stroke-width:0.999998"
               sodipodi:nodetypes="ssccss" /><path
               d="m 457.27746,458.85457 c -4.39,0 -7.227,0.37899 -8.90501,0.77199 v 56.89601 c 1.67901,0.394 4.39001,0.394 6.84101,0.394 17.80899,0.12599 29.424,-9.677 29.424,-30.44901 0.126,-18.063 -10.458,-27.61299 -27.36,-27.61299 z"
               fill="#ffffff"
               data-original="#000000"
               class=""
               id="path903-2"
               style="fill:#ffffff;stroke-width:0.999998"
               sodipodi:nodetypes="sccccs" /><path
               id="path905-4"
               style="fill:#ffffff;stroke-width:1.46879"
               d="M 35.373047,195.89844 C 18.602376,195.89844 5,209.48417 5,226.26953 v 184.19531 c 0,16.78388 13.600896,30.36914 30.373047,30.36914 h 7.349609 l 0.002,0.006 c 0,0 16.777812,-0.0197 46.189453,-0.006 H 476.69336 c 16.77359,0 30.37109,-13.58526 30.37109,-30.36914 V 226.26953 c 0,-16.78536 -13.5975,-30.37109 -30.37109,-30.37109 H 88.914062 42.734375 Z M 155.7168,254.87109 c 17.81351,0 30.5083,3.40059 39.03906,10.23047 8.14885,6.43624 13.65039,17.0621 13.65039,29.56446 0,12.49943 -4.1681,23.12566 -11.75,30.32421 -9.86148,9.28279 -24.44584,13.44922 -41.50586,13.44922 -3.79684,0 -7.19988,-0.18799 -9.86133,-0.55664 v 45.67383 H 116.67578 V 257.51172 c 8.90089,-1.50403 21.41403,-2.64063 39.04102,-2.64063 z m 110.17773,0 c 24.25856,0 39.99031,4.35347 52.31641,13.63477 13.26466,9.86148 21.5957,25.57848 21.5957,48.14648 0,24.44514 -8.90093,41.32308 -21.22852,51.73828 -13.44972,11.18046 -33.92152,16.48438 -58.93359,16.48438 -14.97877,0 -25.59246,-0.94909 -32.79101,-1.89648 v -125.4668 c 10.61202,-1.68911 24.44415,-2.64063 39.04101,-2.64063 z m 92.93945,0.95118 h 78.08399 V 279.5 h -49.08789 v 29.19531 h 45.86914 v 23.49414 h -45.86914 v 51.36719 h -28.9961 z M 74.298828,339.80469 a 21.802638,22.10271 0 0 1 0.205078,0 21.802638,22.10271 0 0 1 21.802735,22.10156 21.802638,22.10271 0 0 1 -21.802735,22.10352 21.802638,22.10271 0 0 1 -21.802734,-22.10352 21.802638,22.10271 0 0 1 21.597656,-22.10156 z"
               transform="matrix(0.68083132,0,0,0.68083132,274.18398,270.2313)" /></g></g></g></g></g></svg>
