<?xml version="1.0" encoding="UTF-8" standalone="no"?>
<svg
   xmlns:dc="http://purl.org/dc/elements/1.1/"
   xmlns:cc="http://creativecommons.org/ns#"
   xmlns:rdf="http://www.w3.org/1999/02/22-rdf-syntax-ns#"
   xmlns:svg="http://www.w3.org/2000/svg"
   xmlns="http://www.w3.org/2000/svg"
   width="158.98105"
   height="35.932251"
   viewBox="0 0 42.063735 9.507075"
   version="1.1"
   id="svg1089">
  <style
     id="style1652"></style>
  <defs
     id="defs1083">
    <rect
       x="67.279762"
       y="115.66071"
       width="93.738098"
       height="86.178574"
       id="rect4156" />
  </defs>
  <metadata
     id="metadata1086">
    <rdf:RDF>
      <cc:Work
         rdf:about="">
        <dc:format>image/svg+xml</dc:format>
        <dc:type
           rdf:resource="http://purl.org/dc/dcmitype/StillImage" />
        <dc:title></dc:title>
      </cc:Work>
    </rdf:RDF>
  </metadata>
  <g
     id="layer1"
     transform="translate(-67.617962,-130.30035)">
    <g
       aria-label="
PDF"
       id="text4154"
       style="font-style:normal;font-weight:normal;font-size:10.5833px;line-height:1.25;font-family:sans-serif;white-space:pre;shape-inside:url(#rect4156);fill:#000000;fill-opacity:1;stroke:none">
      <path
         d="m 73.788026,136.15193 c 2.444742,0 3.672405,-0.85725 3.672405,-2.58233 v -0.10583 c 0,-1.70391 -1.227663,-2.56116 -3.672405,-2.56116 h -5.905481 v 7.87398 h 2.465909 v -2.62466 z m -3.439572,-3.46074 h 3.397239 c 0.761998,0 1.142996,0.28575 1.142996,0.83608 v 0.0318 c 0,0.55033 -0.380998,0.8255 -1.142996,0.8255 h -3.397239 z"
         style="font-style:normal;font-variant:normal;font-weight:normal;font-stretch:normal;font-family:'Druk Wide Medium';-inkscape-font-specification:'Druk Wide Medium, '"
         id="path4284" />
      <path
         d="m 78.27981,138.77659 h 5.22815 c 0.878414,0 1.661578,-0.0741 2.33891,-0.24342 0.677331,-0.15875 1.206496,-0.35983 1.608661,-0.61383 0.391582,-0.24342 0.709081,-0.53975 0.96308,-0.89958 0.254,-0.34925 0.423332,-0.68792 0.507999,-1.016 0.08467,-0.32808 0.126999,-0.67733 0.126999,-1.05833 v -0.3175 c 0,-0.3175 -0.04233,-0.61383 -0.105833,-0.88899 -0.0635,-0.27517 -0.169332,-0.56092 -0.317499,-0.85725 -0.148166,-0.28575 -0.370415,-0.53975 -0.645581,-0.77258 -0.285749,-0.23283 -0.624415,-0.43392 -1.015997,-0.62442 -0.402165,-0.1905 -0.888997,-0.32808 -1.481662,-0.43391 -0.592664,-0.0952 -1.259412,-0.14817 -1.98966,-0.14817 H 78.27981 Z m 2.465909,-6.01132 h 2.561159 c 2.106076,0 3.164406,0.67733 3.164406,2.02141 v 0.0635 c 0,1.35466 -1.05833,2.032 -3.164406,2.032 h -2.561159 z"
         style="font-style:normal;font-variant:normal;font-weight:normal;font-stretch:normal;font-family:'Druk Wide Medium';-inkscape-font-specification:'Druk Wide Medium, '"
         id="path4286" />
      <path
         d="m 89.896636,130.90261 v 7.87398 h 2.455326 v -3.12208 h 5.545649 v -1.79916 h -5.545649 v -1.16416 h 5.683232 v -1.78858 z"
         style="font-style:normal;font-variant:normal;font-weight:normal;font-stretch:normal;font-family:'Druk Wide Medium';-inkscape-font-specification:'Druk Wide Medium, '"
         id="path4288" />
    </g>
    <g
       id="g4282"
       transform="matrix(0.06885849,0,0,0.06885849,98.734477,129.7126)">
      <g
         id="g4225">
	<g
   id="g4223">
		<path
   style="fill:#010002"
   d="m 109.719,40.548 v -28.17 l 45.42,45.426 -45.42,45.42 V 74.708 C 56.202,78.742 12.966,106.613 2.452,142.76 0.847,137.247 0,131.537 0,125.689 0,81.534 48.027,45.196 109.719,40.548 Z"
   id="path4221" />

	</g>

</g>
      <g
         id="g4227">
</g>
      <g
         id="g4229">
</g>
      <g
         id="g4231">
</g>
      <g
         id="g4233">
</g>
      <g
         id="g4235">
</g>
      <g
         id="g4237">
</g>
      <g
         id="g4239">
</g>
      <g
         id="g4241">
</g>
      <g
         id="g4243">
</g>
      <g
         id="g4245">
</g>
      <g
         id="g4247">
</g>
      <g
         id="g4249">
</g>
      <g
         id="g4251">
</g>
      <g
         id="g4253">
</g>
      <g
         id="g4255">
</g>
    </g>
  </g>
</svg>
