<?xml version="1.0"?>
<svg xmlns="http://www.w3.org/2000/svg" xmlns:xlink="http://www.w3.org/1999/xlink" xmlns:svgjs="http://svgjs.com/svgjs" version="1.1" width="512" height="512" x="0" y="0" viewBox="0 0 32 56" style="enable-background:new 0 0 512 512" xml:space="preserve" class=""><g><g xmlns="http://www.w3.org/2000/svg" id="033---Peace-Hand"><path id="Shape" d="m11 34c0 .5522847.4477153 1 1 1h1.28c-.217479-.6428465-.2958769-1.3245676-.23-2h-1.05c-.5522847 0-1 .4477153-1 1z" fill="#ffffff" data-original="#000000" style="" class=""/><path id="Shape" d="m18.92.07c-.77843-.16598375-1.5909143-.01582593-2.258599.41741889-.6676846.43324483-1.1358368 1.11406176-1.301401 1.89258111l-2.88 18.36c-.1293819.6987293-.7284376 1.212699-1.4387142 1.2343685s-1.33954984-.4548258-1.5112858-1.1443685l-3.53-16.24c-.15744606-1.08577689-.89503943-1.99900707-1.92338293-2.38138169-1.0283435-.38237463-2.18339895-.17289847-3.01197655.54623981s-1.19850521 1.83322397-.96464052 2.90514188l3.35 18.34c.25841173 1.3964914.24142675 2.8300232-.05 4.22 1.02262075-1.0092632 2.11534735-1.9449312 3.27-2.8 1.2012848-.9163406 2.66912604-1.4149852 4.18-1.42h6.68l3.7-20.36c.1689571-.77989716.0202334-1.59497214-.413275-2.26493969s-1.1160754-1.1396145-1.896725-1.30506031z" fill="#ffffff" data-original="#000000" style="" class=""/><path id="Shape" d="m20.29 37.12c-.5220004.3780639-1.1131982.649879-1.74.8.1356986.2180011.2559918.4452216.36.68.1344744.3081002.1051455.6631514-.0780623.9450095-.1832078.2818582-.4957765.4528034-.8319377.4549905-.3952551-.0025789-.751903-.2377313-.91-.6-.6382125-1.462355-2.0844542-2.4055561-3.68-2.4h-1.41c-1.6568542 0-3-1.3431458-3-3s1.3431458-3 3-3h3c2.209139 0 4-1.790861 4-4v-1h-8.15c-1.08185107 0-2.13451915.3508894-3 1-3.92 2.92-7.85 7.27-7.85 12.23-.00290994 2.2349793.69672488 4.4143418 2 6.23l5 6.9c.75955737 1.0539141 1.11451402 2.3459564 1 3.64h17c0-2.72-.27-2 4.13-9.49 1.1572004-2.3393412 1.795098-4.901165 1.87-7.51v-4.62l-2.33 3.71c-.918715 1.5836995-2.6891437 2.4717909-4.5078855 2.2612683-1.8187418-.2105227-3.3394775-1.4795722-3.8721145-3.2312683z" fill="#ffffff" data-original="#000000" style="" class=""/><path id="Shape" d="m15.05 33c-.1833227.8386817.0729244 1.7129963.6799641 2.3200359.6070396.6070397 1.4813542.8632868 2.3200359.6799641 1.45-.32 2-1.45 2.75-2.73 4.08-6.52 3.93-6.26 4-6.46.9182919-1.2898758.6184864-3.0797595-.67-4-.6487772-.3627937-1.4158228-.4506582-2.1298337-.2439708-.7140108.2066873-1.3155102.6907096-1.6701663 1.3439708l-.27.43c.5740424.3586233.9277489.9832539.94 1.66v1c.0001144 3.2942801-2.6558343 5.9725477-5.95 6z" fill="#ffffff" data-original="#000000" style="" class=""/><path id="Shape" d="m30.8 26c-1.2986137-.7397918-2.9508544-.2932402-3.7 1-.58.94.4-.72-4.59 7.34-.3935511.6209216-.5231286 1.373191-.36 2.09.2624057 1.0535664 1.1496519 1.8346407 2.227983 1.9613724s2.1224929-.4273524 2.622017-1.3913724l4.6-7.31c.7979578-1.2398962.4398011-2.8918943-.8-3.69z" fill="#ffffff" data-original="#000000" style="" class=""/></g></g></svg>
