<?xml version="1.0" encoding="UTF-8" standalone="no"?>
<svg
   xmlns:dc="http://purl.org/dc/elements/1.1/"
   xmlns:cc="http://creativecommons.org/ns#"
   xmlns:rdf="http://www.w3.org/1999/02/22-rdf-syntax-ns#"
   xmlns:svg="http://www.w3.org/2000/svg"
   xmlns="http://www.w3.org/2000/svg"
   xmlns:sodipodi="http://sodipodi.sourceforge.net/DTD/sodipodi-0.dtd"
   xmlns:inkscape="http://www.inkscape.org/namespaces/inkscape"
   width="1061.4062"
   height="169.65625"
   viewBox="0 0 280.83042 44.888215"
   version="1.1"
   id="svg8"
   sodipodi:docname="rightgrotesk.svg"
   inkscape:version="1.0.1 (c497b03c, 2020-09-10)">
  <sodipodi:namedview
     pagecolor="#ffffff"
     bordercolor="#666666"
     borderopacity="1"
     objecttolerance="10"
     gridtolerance="10"
     guidetolerance="10"
     inkscape:pageopacity="0"
     inkscape:pageshadow="2"
     inkscape:window-width="1440"
     inkscape:window-height="805"
     id="namedview4543"
     showgrid="false"
     inkscape:zoom="1.049551"
     inkscape:cx="571.67303"
     inkscape:cy="116.27014"
     inkscape:window-x="0"
     inkscape:window-y="25"
     inkscape:window-maximized="0"
     inkscape:current-layer="svg8" />
  <style
     id="style833"></style>
  <defs
     id="defs2">
    <rect
       x="27.214287"
       y="44.601189"
       width="363.6131"
       height="140.60715"
       id="rect837" />
  </defs>
  <metadata
     id="metadata5">
    <rdf:RDF>
      <cc:Work
         rdf:about="">
        <dc:format>image/svg+xml</dc:format>
        <dc:type
           rdf:resource="http://purl.org/dc/dcmitype/StillImage" />
        <dc:title />
      </cc:Work>
    </rdf:RDF>
  </metadata>
  <g
     id="layer1"
     transform="translate(-30.083919,-59.128841)">
    <g
       aria-label="Right Grotesk"
       id="text835"
       style="font-style:normal;font-variant:normal;font-weight:normal;font-stretch:normal;font-size:50.8px;line-height:1.25;font-family:'MS Mincho';-inkscape-font-specification:'MS Mincho';white-space:pre;shape-inside:url(#rect837);fill:#000000;fill-opacity:1;stroke:none">
      <path
         d="m 30.216211,94.607812 h 6.151562 V 79.377734 h 3.894336 c 3.175,0 4.241602,1.240234 5.109766,4.886523 l 0.868164,3.646289 c 0.892969,3.646289 1.389062,5.407422 2.306836,6.697266 h 7.069336 l 0.07441,-0.620117 c -1.265039,-0.868164 -2.158008,-2.232422 -3.249414,-6.250782 l -1.066602,-3.993554 c -1.091406,-3.993555 -2.207617,-5.357813 -5.18418,-6.250781 v -0.471289 c 4.737696,-0.545704 7.366992,-3.348633 7.366992,-7.838282 v -0.09922 c 0,-5.928321 -3.943945,-9.202539 -11.261327,-9.202539 H 30.216211 Z m 6.151562,-19.84375 V 64.742968 h 5.258594 c 3.894336,0 5.754687,1.612305 5.754687,4.960938 v 0.07441 c 0,3.373437 -1.860351,4.985742 -5.754687,4.985742 z"
         style="font-style:normal;font-variant:normal;font-weight:normal;font-stretch:normal;font-size:50.8px;font-family:'Right Grotesk';-inkscape-font-specification:'Right Grotesk';fill:#ffffff;fill-opacity:1"
         id="path5106" />
      <path
         d="m 58.419141,65.38789 h 6.573242 v -5.109765 h -6.573242 z m 0.248046,29.219922 h 6.052344 V 68.56289 h -6.052344 z"
         style="font-style:normal;font-variant:normal;font-weight:normal;font-stretch:normal;font-size:50.8px;font-family:'Right Grotesk';-inkscape-font-specification:'Right Grotesk';fill:#ffffff;fill-opacity:1"
         id="path5108" />
      <path
         d="m 82.355664,88.307421 -4.117578,-0.471289 c -4.117578,-0.471289 -5.18418,-1.041797 -5.18418,-2.38125 0,-0.917773 0.620117,-1.389062 2.207617,-1.5875 1.265039,0.372071 2.728516,0.570508 4.39043,0.570508 6.424414,0 10.021094,-2.951758 10.021094,-8.259961 0,-3.472656 -1.562696,-5.953125 -4.464844,-7.218164 -0.02481,-1.785937 1.21543,-2.480468 3.373437,-2.654101 l 2.356446,-0.223242 -0.669727,-5.55625 c -5.506641,0.322461 -7.739062,3.596679 -6.920508,7.813476 -1.091406,-0.272851 -2.33164,-0.396875 -3.695898,-0.396875 -6.449219,0 -10.070703,2.976563 -10.070703,8.235156 0,2.976563 1.141016,5.208985 3.274219,6.598047 v 0.42168 c -2.926953,0.496093 -4.39043,1.934765 -4.39043,4.266406 0,2.38125 1.637109,3.720703 3.993555,4.489648 v 0.372071 c -3.249414,0.644921 -4.663282,2.530078 -4.663282,5.407421 0,4.142388 3.745508,6.151558 11.484571,6.151558 8.235156,0 12.203906,-2.48046 12.203906,-7.9623 0,-6.101953 -5.010547,-7.168554 -9.128125,-7.615039 z M 79.651953,71.341015 c 2.629297,0 3.894336,1.5875 3.894336,4.836914 0,3.274219 -1.265039,4.836914 -3.894336,4.836914 -2.678906,0 -3.943945,-1.562695 -3.943945,-4.836914 0,-3.249414 1.265039,-4.836914 3.943945,-4.836914 z m -0.04961,28.376562 c -5.258594,0 -7.441407,-1.116211 -7.441407,-3.571875 0,-1.686718 0.768946,-2.778125 3.150196,-3.54707 0.322461,0.04961 0.669726,0.09922 1.016992,0.124024 l 4.191992,0.446484 c 4.191992,0.446484 5.953125,1.041797 5.953125,3.398242 0,2.207617 -2.083594,3.150195 -6.870898,3.150195 z"
         style="font-style:normal;font-variant:normal;font-weight:normal;font-stretch:normal;font-size:50.8px;font-family:'Right Grotesk';-inkscape-font-specification:'Right Grotesk';fill:#ffffff;fill-opacity:1"
         id="path5110" />
      <path
         d="m 94.584378,94.607812 h 6.052342 V 81.411718 c 0,-5.382617 2.23242,-9.004101 5.55625,-9.004101 2.18281,0 3.37344,1.438672 3.37344,4.117578 v 18.082617 h 6.02754 V 75.260156 c 0,-4.688086 -2.33164,-7.14375 -6.89571,-7.14375 -4.01835,0 -6.94531,2.207617 -8.929682,7.292578 l -0.520899,-0.198438 c 1.041801,-3.026171 1.389061,-5.109765 1.389061,-7.441406 v -7.88789 h -6.052342 z"
         style="font-style:normal;font-variant:normal;font-weight:normal;font-stretch:normal;font-size:50.8px;font-family:'Right Grotesk';-inkscape-font-specification:'Right Grotesk';fill:#ffffff;fill-opacity:1"
         id="path5112" />
      <path
         d="m 129.53418,95.17832 c 1.98438,0 4.09278,-0.496094 5.45703,-1.21543 l 0.34727,-4.415234 c -1.31465,0.570507 -2.70371,0.868164 -3.81992,0.868164 -2.05879,0 -3.07578,-0.967383 -3.07578,-3.447852 V 72.95332 h 6.82129 v -4.39043 h -6.82129 v -7.714257 l -6.05235,1.810742 v 5.903515 h -3.67109 v 4.39043 h 3.67109 v 14.733984 c 0,5.109766 2.43086,7.491016 7.14375,7.491016 z"
         style="font-style:normal;font-variant:normal;font-weight:normal;font-stretch:normal;font-size:50.8px;font-family:'Right Grotesk';-inkscape-font-specification:'Right Grotesk';fill:#ffffff;fill-opacity:1"
         id="path5114" />
      <path
         d="m 158.97735,95.079101 c 5.08496,0 8.18554,-3.22461 10.19472,-9.351367 l 0.5209,0.124023 c -1.14101,4.539258 -1.48828,6.72207 -1.38906,8.756055 h 5.60586 V 74.888085 h -14.01465 v 4.836914 h 8.18555 c -0.76895,7.118946 -3.175,10.541993 -7.44141,10.541993 -4.63848,0 -6.8957,-3.943946 -6.8957,-12.32793 v -1.885156 c 0,-8.135938 2.45566,-11.980664 7.46621,-11.980664 4.04316,0 6.12676,2.356445 6.44922,7.441406 l 5.87871,-1.16582 c -0.81856,-7.168555 -4.78731,-11.087695 -12.32793,-11.087695 -9.05371,0 -13.7418,6.101953 -13.7418,17.809765 v 0.09922 c 0,11.782226 3.99356,17.908984 11.50938,17.908984 z"
         style="font-style:normal;font-variant:normal;font-weight:normal;font-stretch:normal;font-size:50.8px;font-family:'Right Grotesk';-inkscape-font-specification:'Right Grotesk';fill:#ffffff;fill-opacity:1"
         id="path5116" />
      <path
         d="m 179.41641,94.607812 h 6.05234 v -11.53418 c 0,-6.870898 2.0836,-9.326562 6.8709,-9.673828 l 2.33164,-0.198437 -0.86816,-5.457031 c -4.61367,0.37207 -6.89571,2.182812 -9.22735,7.689453 l -0.49609,-0.223243 c 1.21543,-3.49746 1.46348,-4.812109 1.41387,-6.647656 h -6.07715 z"
         style="font-style:normal;font-variant:normal;font-weight:normal;font-stretch:normal;font-size:50.8px;font-family:'Right Grotesk';-inkscape-font-specification:'Right Grotesk';fill:#ffffff;fill-opacity:1"
         id="path5118" />
      <path
         d="m 207.76817,95.227929 c 7.16855,0 11.18691,-4.886523 11.18691,-13.568164 v -0.09922 c 0,-8.706445 -3.99355,-13.617773 -11.18691,-13.617773 -7.19336,0 -11.18691,4.911328 -11.18691,13.617773 v 0.09922 c 0,8.681641 3.99355,13.568164 11.18691,13.568164 z m 0,-4.167188 c -3.34863,0 -4.96094,-2.75332 -4.96094,-8.433593 v -2.083594 c 0,-5.705078 1.61231,-8.458398 4.96094,-8.458398 3.32383,0 4.96094,2.75332 4.96094,8.458398 v 2.083594 c 0,5.680273 -1.63711,8.433593 -4.96094,8.433593 z"
         style="font-style:normal;font-variant:normal;font-weight:normal;font-stretch:normal;font-size:50.8px;font-family:'Right Grotesk';-inkscape-font-specification:'Right Grotesk';fill:#ffffff;fill-opacity:1"
         id="path5120" />
      <path
         d="m 232.02715,95.17832 c 1.98437,0 4.09277,-0.496094 5.45703,-1.21543 l 0.34727,-4.415234 c -1.31465,0.570507 -2.70372,0.868164 -3.81993,0.868164 -2.05879,0 -3.07578,-0.967383 -3.07578,-3.447852 V 72.95332 h 6.82129 v -4.39043 h -6.82129 v -7.714257 l -6.05234,1.810742 v 5.903515 h -3.6711 v 4.39043 h 3.6711 v 14.733984 c 0,5.109766 2.43086,7.491016 7.14375,7.491016 z"
         style="font-style:normal;font-variant:normal;font-weight:normal;font-stretch:normal;font-size:50.8px;font-family:'Right Grotesk';-inkscape-font-specification:'Right Grotesk';fill:#ffffff;fill-opacity:1"
         id="path5122" />
      <path
         d="m 256.6582,85.578906 c -0.47129,3.943945 -2.1084,5.531445 -4.91133,5.531445 -3.47266,0 -5.3082,-2.406055 -5.3082,-7.391797 V 83.22246 h 15.72617 c 0.12402,-1.265039 0.17363,-2.356445 0.17363,-3.522265 0,-7.51582 -3.79512,-11.732617 -10.61641,-11.732617 -7.31738,0 -11.28613,4.440039 -11.28613,12.476757 v 2.306836 c 0,8.036719 3.96875,12.451953 11.1125,12.451953 6.25078,0 10.02109,-2.951758 10.91406,-8.880078 z m -4.98575,-13.518555 c 3.10059,0 4.66329,2.00918 4.66329,6.35 v 0.669727 h -9.89707 c 0.12402,-4.688086 1.86035,-7.019727 5.23378,-7.019727 z"
         style="font-style:normal;font-variant:normal;font-weight:normal;font-stretch:normal;font-size:50.8px;font-family:'Right Grotesk';-inkscape-font-specification:'Right Grotesk';fill:#ffffff;fill-opacity:1"
         id="path5124" />
      <path
         d="m 276.35312,95.153515 c 6.3252,0 9.99629,-2.80293 9.99629,-7.540625 0,-4.688086 -3.29902,-6.573242 -6.62285,-7.788672 l -3.32383,-1.215429 c -3.32383,-1.190625 -4.51445,-2.257227 -4.51445,-3.943946 0,-1.661914 1.36426,-2.579687 3.81992,-2.579687 2.80293,0 4.34082,1.364258 4.2168,4.440039 l 5.63066,-0.992188 c -0.0248,-4.836914 -3.54707,-7.51582 -9.92187,-7.51582 -6.07715,0 -9.42579,2.703711 -9.42579,7.51582 0,3.621485 2.85254,6.052344 6.17637,7.317383 l 3.32383,1.265039 c 3.32383,1.240234 4.58887,2.133203 4.58887,4.067969 0,1.95957 -1.41387,2.902148 -3.96875,2.902148 -3.27422,0 -5.06016,-1.860351 -5.01055,-5.258593 l -5.75469,1.16582 c 0.17364,5.258593 4.04317,8.160742 10.79004,8.160742 z"
         style="font-style:normal;font-variant:normal;font-weight:normal;font-stretch:normal;font-size:50.8px;font-family:'Right Grotesk';-inkscape-font-specification:'Right Grotesk';fill:#ffffff;fill-opacity:1"
         id="path5126" />
      <path
         d="m 290.44218,94.607812 h 6.05235 v -9.450586 l 2.70371,-3.249414 5.28339,12.7 h 6.20118 l -7.34219,-16.519922 7.4414,-9.525 H 304.308 l -8.25996,10.889258 -0.37207,-0.198438 c 0.59531,-2.951757 0.81856,-5.208984 0.81856,-8.607226 V 59.88125 h -6.05235 z"
         style="font-style:normal;font-variant:normal;font-weight:normal;font-stretch:normal;font-size:50.8px;font-family:'Right Grotesk';-inkscape-font-specification:'Right Grotesk';fill:#ffffff;fill-opacity:1"
         id="path5128" />
    </g>
  </g>
</svg>
