<?xml version="1.0" encoding="UTF-8" standalone="no"?>
<svg
   xmlns:dc="http://purl.org/dc/elements/1.1/"
   xmlns:cc="http://creativecommons.org/ns#"
   xmlns:rdf="http://www.w3.org/1999/02/22-rdf-syntax-ns#"
   xmlns:svg="http://www.w3.org/2000/svg"
   xmlns="http://www.w3.org/2000/svg"
   xmlns:sodipodi="http://sodipodi.sourceforge.net/DTD/sodipodi-0.dtd"
   xmlns:inkscape="http://www.inkscape.org/namespaces/inkscape"
   version="1.1"
   id="Capa_1"
   x="0px"
   y="0px"
   viewBox="0 0 59.068451 61.164184"
   xml:space="preserve"
   sodipodi:docname="stars.svg"
   width="59.068451"
   height="61.164185"
   inkscape:version="1.0.1 (c497b03c, 2020-09-10)"><style
   id="style2281"></style><metadata
   id="metadata1718"><rdf:RDF><cc:Work
       rdf:about=""><dc:format>image/svg+xml</dc:format><dc:type
         rdf:resource="http://purl.org/dc/dcmitype/StillImage" /><dc:title></dc:title></cc:Work></rdf:RDF></metadata><defs
   id="defs1716" /><sodipodi:namedview
   pagecolor="#ffffff"
   bordercolor="#666666"
   borderopacity="1"
   objecttolerance="10"
   gridtolerance="10"
   guidetolerance="10"
   inkscape:pageopacity="0"
   inkscape:pageshadow="2"
   inkscape:window-width="1440"
   inkscape:window-height="819"
   id="namedview1714"
   showgrid="false"
   fit-margin-top="1"
   lock-margins="true"
   fit-margin-left="1"
   fit-margin-right="1"
   fit-margin-bottom="1"
   inkscape:zoom="1"
   inkscape:cx="80.950927"
   inkscape:cy="176.84136"
   inkscape:window-x="0"
   inkscape:window-y="25"
   inkscape:window-maximized="1"
   inkscape:current-layer="Capa_1" />
<g
   id="g1681"
   transform="matrix(0.19934696,0,0,0.19934696,-0.04776699,1.0000002)"
   inkscape:export-xdpi="96"
   inkscape:export-ydpi="96"
   style="fill:#f5dc77;fill-opacity:1">
	<path
   d="m 55.093,110.761 6.544,17.743 c 0.246,0.668 0.882,1.111 1.593,1.111 0.711,0 1.347,-0.443 1.593,-1.111 l 6.544,-17.743 C 76.664,96.397 87.987,85.074 102.35,79.778 l 17.743,-6.544 c 0.667,-0.246 1.11,-0.882 1.11,-1.593 0,-0.711 -0.443,-1.347 -1.11,-1.593 L 102.349,63.504 C 87.986,58.207 76.663,46.885 71.367,32.522 L 64.823,14.779 c -0.246,-0.667 -0.882,-1.11 -1.593,-1.11 -0.711,0 -1.347,0.443 -1.593,1.11 L 55.093,32.522 C 49.796,46.885 38.474,58.207 24.11,63.504 L 6.366,70.048 c -0.667,0.246 -1.11,0.882 -1.11,1.593 0,0.711 0.443,1.347 1.11,1.593 l 17.743,6.544 c 14.364,5.296 25.687,16.618 30.984,30.983 z"
   id="path1669"
   style="fill:#f5dc77;fill-opacity:1" />
	<path
   d="m 198.948,185.703 -17.742,-6.543 c -14.364,-5.297 -25.687,-16.619 -30.983,-30.982 l -6.544,-17.743 c -0.246,-0.667 -0.882,-1.11 -1.593,-1.11 -0.711,0 -1.347,0.443 -1.593,1.11 l -6.544,17.742 c -5.297,14.364 -16.62,25.686 -30.983,30.983 l -17.743,6.543 c -0.667,0.246 -1.11,0.882 -1.11,1.593 0,0.711 0.443,1.347 1.11,1.593 l 17.744,6.545 c 14.363,5.297 25.685,16.619 30.982,30.982 l 6.544,17.744 c 0.246,0.667 0.882,1.11 1.593,1.11 0.711,0 1.347,-0.443 1.593,-1.11 l 6.544,-17.744 c 5.297,-14.363 16.619,-25.686 30.982,-30.982 l 17.744,-6.545 c 0.667,-0.246 1.11,-0.882 1.11,-1.593 0,-0.711 -0.444,-1.347 -1.111,-1.593 z"
   id="path1671"
   style="fill:#f5dc77;fill-opacity:1" />
	<path
   d="m 290.778,109.811 -12.059,-4.447 c -9.761,-3.6 -17.456,-11.295 -21.056,-21.056 L 253.216,72.25 c -0.168,-0.453 -0.6,-0.755 -1.083,-0.755 -0.483,0 -0.915,0.302 -1.083,0.755 l -4.446,12.057 c -3.6,9.762 -11.295,17.457 -21.057,21.057 l -12.058,4.447 c -0.453,0.167 -0.755,0.599 -0.755,1.082 0,0.483 0.302,0.916 0.755,1.083 l 12.059,4.446 c 9.761,3.601 17.456,11.296 21.056,21.057 l 4.446,12.06 c 0.168,0.453 0.6,0.755 1.083,0.755 0.483,0 0.915,-0.302 1.083,-0.755 l 4.447,-12.06 c 3.6,-9.762 11.294,-17.456 21.056,-21.056 l 12.059,-4.447 c 0.453,-0.167 0.755,-0.6 0.755,-1.083 0,-0.483 -0.302,-0.915 -0.755,-1.082 z"
   id="path1673"
   style="fill:#f5dc77;fill-opacity:1" />
	<path
   d="m 261.567,268.552 -8.412,-3.103 c -6.809,-2.511 -12.176,-7.878 -14.687,-14.686 l -3.103,-8.41 c -0.116,-0.316 -0.418,-0.526 -0.755,-0.526 -0.337,0 -0.639,0.21 -0.755,0.526 l -3.103,8.41 c -2.511,6.809 -7.878,12.176 -14.686,14.686 l -8.412,3.103 c -0.316,0.116 -0.526,0.418 -0.526,0.755 0,0.337 0.21,0.639 0.526,0.755 l 8.411,3.103 c 6.81,2.511 12.177,7.879 14.688,14.688 l 3.103,8.411 c 0.116,0.316 0.418,0.526 0.755,0.526 0.337,0 0.639,-0.21 0.755,-0.526 l 3.103,-8.411 c 2.511,-6.809 7.878,-12.177 14.688,-14.688 l 8.411,-3.103 c 0.316,-0.116 0.526,-0.418 0.526,-0.755 0,-0.337 -0.21,-0.639 -0.527,-0.755 z"
   id="path1675"
   style="fill:#f5dc77;fill-opacity:1" />
	<path
   d="m 199.533,26.726 -8.412,-3.102 C 184.312,21.113 178.945,15.746 176.435,8.937 l -3.103,-8.41 C 173.216,0.21 172.914,0 172.577,0 c -0.337,0 -0.639,0.21 -0.755,0.526 l -3.102,8.409 c -2.511,6.809 -7.879,12.177 -14.688,14.688 l -8.412,3.102 c -0.316,0.116 -0.526,0.418 -0.526,0.755 0,0.337 0.21,0.639 0.526,0.755 l 8.411,3.103 c 6.81,2.511 12.178,7.879 14.689,14.689 l 3.102,8.41 c 0.116,0.316 0.418,0.526 0.755,0.526 0.337,0 0.639,-0.21 0.755,-0.526 l 3.103,-8.411 c 2.511,-6.81 7.878,-12.177 14.688,-14.687 l 8.411,-3.103 c 0.316,-0.116 0.526,-0.418 0.526,-0.755 0,-0.337 -0.21,-0.639 -0.527,-0.755 z"
   id="path1677"
   style="fill:#f5dc77;fill-opacity:1" />
	<path
   d="m 96.359,251.26 -10.58,-3.9 c -8.564,-3.158 -15.316,-9.91 -18.476,-18.475 l -3.901,-10.58 c -0.147,-0.397 -0.526,-0.662 -0.95,-0.662 -0.424,0 -0.803,0.265 -0.95,0.662 l -3.901,10.579 c -3.158,8.565 -9.91,15.317 -18.476,18.476 l -10.578,3.9 c -0.399,0.146 -0.662,0.526 -0.662,0.95 0,0.424 0.264,0.804 0.662,0.95 l 10.579,3.902 c 8.564,3.158 15.316,9.91 18.475,18.475 l 3.901,10.58 c 0.147,0.398 0.526,0.662 0.95,0.662 0.424,0 0.804,-0.264 0.95,-0.662 l 3.902,-10.581 c 3.158,-8.564 9.909,-15.315 18.474,-18.474 l 10.581,-3.902 c 0.398,-0.146 0.662,-0.526 0.662,-0.95 0,-0.424 -0.263,-0.804 -0.662,-0.95 z"
   id="path1679"
   style="fill:#f5dc77;fill-opacity:1" />
</g>
<g
   id="g1683"
   transform="translate(-4.256,1)">
</g>
<g
   id="g1685"
   transform="translate(-4.256,1)">
</g>
<g
   id="g1687"
   transform="translate(-4.256,1)">
</g>
<g
   id="g1689"
   transform="translate(-4.256,1)">
</g>
<g
   id="g1691"
   transform="translate(-4.256,1)">
</g>
<g
   id="g1693"
   transform="translate(-4.256,1)">
</g>
<g
   id="g1695"
   transform="translate(-4.256,1)">
</g>
<g
   id="g1697"
   transform="translate(-4.256,1)">
</g>
<g
   id="g1699"
   transform="translate(-4.256,1)">
</g>
<g
   id="g1701"
   transform="translate(-4.256,1)">
</g>
<g
   id="g1703"
   transform="translate(-4.256,1)">
</g>
<g
   id="g1705"
   transform="translate(-4.256,1)">
</g>
<g
   id="g1707"
   transform="translate(-4.256,1)">
</g>
<g
   id="g1709"
   transform="translate(-4.256,1)">
</g>
<g
   id="g1711"
   transform="translate(-4.256,1)">
</g>
</svg>
