<?xml version="1.0" encoding="UTF-8" standalone="no"?>
<svg
   xmlns:dc="http://purl.org/dc/elements/1.1/"
   xmlns:cc="http://creativecommons.org/ns#"
   xmlns:rdf="http://www.w3.org/1999/02/22-rdf-syntax-ns#"
   xmlns:svg="http://www.w3.org/2000/svg"
   xmlns="http://www.w3.org/2000/svg"
   version="1.1"
   id="Capa_1"
   x="0px"
   y="0px"
   viewBox="0 0 92.771135 33.196061"
   xml:space="preserve"
   width="92.771133"
   height="33.19606"><style
   id="style2281"></style><metadata
   id="metadata1718"><rdf:RDF><cc:Work
       rdf:about=""><dc:format>image/svg+xml</dc:format><dc:type
         rdf:resource="http://purl.org/dc/dcmitype/StillImage" /><dc:title></dc:title></cc:Work></rdf:RDF></metadata><defs
   id="defs1716">
	
	
	
	
	
	
</defs>
<path
   d="m 47.663874,25.04827 0.67263,1.823722 c 0.02523,0.06865 0.09066,0.1142 0.163734,0.1142 0.07312,0 0.138457,-0.04554 0.163743,-0.1142 l 0.672632,-1.823722 c 0.544451,-1.476408 1.708287,-2.640252 3.184596,-3.184604 l 1.823731,-0.672624 c 0.06858,-0.02524 0.114086,-0.09066 0.114086,-0.163735 0,-0.07311 -0.04554,-0.138456 -0.114086,-0.163742 l -1.82383,-0.672631 c -1.476309,-0.544453 -2.640152,-1.70819 -3.184497,-3.184498 l -0.672632,-1.823724 c -0.02523,-0.06858 -0.09066,-0.114093 -0.163743,-0.114093 -0.07312,0 -0.138446,0.04554 -0.163734,0.114093 l -0.67263,1.823724 c -0.544452,1.476308 -1.70819,2.640045 -3.184604,3.184498 l -1.823822,0.672631 c -0.06858,0.02531 -0.114094,0.09066 -0.114094,0.163742 0,0.07304 0.04554,0.138448 0.114094,0.163735 l 1.823723,0.672624 c 1.476408,0.544352 2.640251,1.708088 3.184703,3.184604 z"
   id="path1669"
   style="fill:#fab7ff;fill-opacity:1;stroke-width:0.102785" /><path
   d="M 66.638104,25.498549 65.251741,24.987276 C 64.12933,24.573364 63.244544,23.688659 62.830718,22.566328 l -0.511354,-1.386444 c -0.01918,-0.05213 -0.06892,-0.08673 -0.124481,-0.08673 -0.05553,0 -0.105252,0.03462 -0.124475,0.08673 l -0.511348,1.386363 c -0.413912,1.122412 -1.298698,2.007117 -2.421029,2.421029 l -1.386438,0.511273 c -0.05213,0.01918 -0.08674,0.06891 -0.08674,0.124476 0,0.05553 0.03462,0.105258 0.08674,0.124481 l 1.386519,0.511422 c 1.12233,0.413913 2.007036,1.298618 2.420948,2.420949 l 0.511348,1.386524 c 0.01918,0.05213 0.06892,0.08674 0.124475,0.08674 0.05559,0 0.105258,-0.03462 0.124481,-0.08674 l 0.511354,-1.386524 c 0.413906,-1.122331 1.298612,-2.007111 2.420942,-2.420949 l 1.386525,-0.511422 c 0.05213,-0.01918 0.08674,-0.06893 0.08674,-0.124481 0,-0.05559 -0.03468,-0.105253 -0.08682,-0.124476 z"
   id="path1671"
   style="fill:#fab7ff;fill-opacity:1;stroke-width:0.0781406" /><path
   d="M 48.887898,5.1974 47.252148,4.59419 C 45.928108,4.10586 44.884318,3.06207 44.395988,1.73803 L 43.792768,0.10242 C 43.769968,0.04102 43.711368,0 43.645868,0 c -0.0655,0 -0.12411,0.041 -0.1469,0.10242 l -0.60308,1.63547 c -0.48833,1.32418 -1.53212,2.36797 -2.8563,2.8563 l -1.63561,0.60321 c -0.0614,0.0227 -0.10241,0.0813 -0.10241,0.14677 0,0.0655 0.041,0.12425 0.10241,0.14691 l 1.63575,0.60308 c 1.32404,0.48846 2.36783,1.5322596 2.85616,2.8562896 l 0.60308,1.6358904 c 0.0228,0.0614 0.0814,0.10241 0.1469,0.10241 0.0655,0 0.12412,-0.041 0.1469,-0.10241 l 0.60322,-1.6358904 c 0.48833,-1.32417 1.53198,-2.3678296 2.85616,-2.8561596 l 1.63575,-0.60321 c 0.0614,-0.0227 0.10241,-0.0814 0.10241,-0.14691 0,-0.0655 -0.041,-0.12411 -0.10241,-0.14677 z"
   id="path1673"
   style="fill:#fab7ff;fill-opacity:1;stroke-width:0.135646" /><path
   d="m 15.567146,26.689955 -1.5055,-0.55534 c -1.21862,-0.4494 -2.17915,-1.40992 -2.62854,-2.62836 l -0.55535,-1.50515 c -0.0207,-0.0566 -0.0748,-0.0941 -0.13513,-0.0941 -0.0603,0 -0.11439,0.0376 -0.13511,0.0941 l -0.55536,1.50515 c -0.44938,1.21861 -1.40992,2.17914 -2.62835,2.62836 l -1.5055,0.55534 c -0.0566,0.0207 -0.0941,0.0748 -0.0941,0.13512 0,0.0603 0.0376,0.11439 0.0941,0.13514 l 1.50531,0.55533 c 1.21881,0.4494 2.17933,1.41012 2.62873,2.62872 l 0.55535,1.50532 c 0.0207,0.0566 0.0748,0.0942 0.13512,0.0942 0.0603,0 0.11439,-0.0376 0.13513,-0.0942 l 0.55533,-1.50532 c 0.4494,-1.2186 1.40993,-2.17932 2.62873,-2.62872 l 1.50532,-0.55533 c 0.0566,-0.0207 0.0941,-0.0748 0.0941,-0.13514 0,-0.0603 -0.0376,-0.11439 -0.0943,-0.13512 z"
   id="path1675"
   style="fill:#fab7ff;fill-opacity:1;stroke-width:0.178971" /><path
   d="m 21.179174,6.9474534 -0.83499,-0.30791 c -0.67587,-0.2492505 -1.20861,-0.7819805 -1.45775,-1.4578505 l -0.30801,-0.83479 c -0.0115,-0.0315 -0.0415,-0.0523 -0.0749,-0.0523 -0.0334,0 -0.0634,0.0209 -0.0749,0.0522 l -0.30791,0.83468 c -0.24925,0.67588 -0.78208,1.20871 -1.45796,1.4579605 l -0.83498,0.3079 c -0.0314,0.0115 -0.0522,0.0415 -0.0522,0.0749 0,0.0334 0.0209,0.0634 0.0522,0.075 l 0.83488,0.308 c 0.67598,0.2492502 1.20881,0.7820902 1.45806,1.4580502 l 0.30791,0.83479 c 0.0115,0.0314 0.0415,0.0523 0.0749,0.0523 0.0334,0 0.0634,-0.0209 0.0749,-0.0523 l 0.30801,-0.83488 c 0.24924,-0.67597 0.78198,-1.20871 1.45795,-1.4578502 l 0.83488,-0.30801 c 0.0314,-0.0115 0.0522,-0.0415 0.0522,-0.0749 0,-0.0334 -0.0209,-0.0634 -0.0523,-0.0749 z"
   id="path1677"
   style="fill:#fab7ff;fill-opacity:1;stroke-width:0.0992616" /><path
   d="M 27.248426,12.784215 25.95905,12.308927 C 24.915368,11.924074 24.092511,11.101218 23.707407,10.05741 L 23.232001,8.7680416 c -0.01788,-0.04833 -0.06406,-0.08068 -0.115781,-0.08068 -0.05166,0 -0.09786,0.03225 -0.115772,0.08068 l -0.475405,1.2892424 c -0.384862,1.043808 -1.207718,1.866664 -2.251652,2.251643 l -1.289125,0.475288 c -0.04861,0.01779 -0.08068,0.06406 -0.08068,0.115781 0,0.05166 0.03216,0.09797 0.08068,0.115772 l 1.289251,0.475532 c 1.043682,0.384861 1.866538,1.207718 2.251526,2.251517 l 0.475405,1.289367 c 0.01788,0.04852 0.06406,0.08068 0.115772,0.08068 0.05166,0 0.09798,-0.03216 0.115781,-0.08068 l 0.475532,-1.289493 c 0.384861,-1.043673 1.207592,-1.866413 2.2514,-2.251391 l 1.289493,-0.475532 c 0.04843,-0.01779 0.08068,-0.06406 0.08068,-0.115772 0,-0.05166 -0.03207,-0.09799 -0.08068,-0.115781 z"
   id="path1679"
   style="fill:#fde5ff;fill-opacity:1;stroke-width:0.121869" />
<g
   id="g1683"
   transform="translate(-220.59819,-196.03788)"
   style="fill:#241c1c">
</g>
<g
   id="g1685"
   transform="translate(-220.59819,-196.03788)"
   style="fill:#241c1c">
</g>
<g
   id="g1687"
   transform="translate(-220.59819,-196.03788)"
   style="fill:#241c1c">
</g>
<g
   id="g1689"
   transform="translate(-220.59819,-196.03788)"
   style="fill:#241c1c">
</g>
<g
   id="g1691"
   transform="translate(-220.59819,-196.03788)"
   style="fill:#241c1c">
</g>
<g
   id="g1693"
   transform="translate(-220.59819,-196.03788)"
   style="fill:#241c1c">
</g>
<g
   id="g1695"
   transform="translate(-220.59819,-196.03788)"
   style="fill:#241c1c">
</g>
<g
   id="g1697"
   transform="translate(-220.59819,-196.03788)"
   style="fill:#241c1c">
</g>
<g
   id="g1699"
   transform="translate(-220.59819,-196.03788)"
   style="fill:#241c1c">
</g>
<g
   id="g1701"
   transform="translate(-220.59819,-196.03788)"
   style="fill:#241c1c">
</g>
<g
   id="g1703"
   transform="translate(-220.59819,-196.03788)"
   style="fill:#241c1c">
</g>
<g
   id="g1705"
   transform="translate(-220.59819,-196.03788)"
   style="fill:#241c1c">
</g>
<g
   id="g1707"
   transform="translate(-220.59819,-196.03788)"
   style="fill:#241c1c">
</g>
<g
   id="g1709"
   transform="translate(-220.59819,-196.03788)"
   style="fill:#241c1c">
</g>
<g
   id="g1711"
   transform="translate(-220.59819,-196.03788)"
   style="fill:#241c1c">
</g>
<path
   d="m 75.722708,21.469768 -1.14106,-0.42077 c -0.92361,-0.34061 -1.65162,-1.06862 -1.99209,-1.99223 l -0.42091,-1.14078 c -0.0157,-0.043 -0.0567,-0.0715 -0.10241,-0.0715 -0.0457,0 -0.0867,0.0285 -0.10241,0.0713 l -0.42077,1.14064 c -0.34061,0.92362 -1.06875,1.65176 -1.99237,1.99237 l -1.14105,0.42077 c -0.0429,0.0157 -0.0714,0.0567 -0.0714,0.10241 0,0.0457 0.0285,0.0867 0.0714,0.10243 l 1.14091,0.42089 c 0.92376,0.34061 1.6519,1.06876 1.99251,1.9925 l 0.42077,1.14078 c 0.0157,0.0429 0.0567,0.0714 0.10241,0.0714 0.0457,0 0.0867,-0.0285 0.10241,-0.0714 l 0.42091,-1.14091 c 0.34061,-0.92375 1.06862,-1.65176 1.99237,-1.99223 l 1.14091,-0.42091 c 0.0429,-0.0157 0.0713,-0.0567 0.0713,-0.10241 0,-0.0457 -0.0285,-0.0867 -0.0715,-0.1024 z"
   id="path1677-1"
   style="fill:#f395fa;fill-opacity:1;stroke-width:0.135646" /><path
   d="m 92.728265,14.410066 -0.68402,-0.25224 c -0.55368,-0.20419 -0.9901,-0.6406 -1.19419,-1.19427 l -0.25232,-0.68386 c -0.009,-0.0258 -0.034,-0.0428 -0.0614,-0.0428 -0.0274,0 -0.0519,0.0171 -0.0614,0.0428 l -0.25224,0.68377 c -0.20418,0.55368 -0.64067,0.99017 -1.19435,1.19436 l -0.68402,0.25223 c -0.0257,0.009 -0.0428,0.034 -0.0428,0.0614 0,0.0274 0.0171,0.0519 0.0428,0.0614 l 0.68393,0.25231 c 0.55377,0.20418 0.99026,0.64069 1.19444,1.19443 l 0.25224,0.68386 c 0.009,0.0257 0.034,0.0428 0.0614,0.0428 0.0274,0 0.0519,-0.0171 0.0614,-0.0428 l 0.25232,-0.68393 c 0.20418,-0.55376 0.6406,-0.99018 1.19435,-1.19427 l 0.68393,-0.25232 c 0.0257,-0.009 0.0428,-0.034 0.0428,-0.0614 0,-0.0274 -0.0171,-0.0519 -0.0428,-0.0614 z"
   id="path1677-6"
   style="fill:#d58bdb;fill-opacity:1;stroke-width:0.0813149" /><path
   d="M 4.42674,30.89987 3.74272,30.64763 C 3.18904,30.44344 2.75262,30.00703 2.54853,29.45336 L 2.29621,28.7695 c -0.009,-0.0258 -0.034,-0.0428 -0.0614,-0.0428 -0.0274,0 -0.0519,0.0171 -0.0614,0.0428 L 1.92117,29.45327 C 1.71699,30.00695 1.2805,30.44344 0.72682,30.64763 L 0.0428,30.89986 C 0.0171,30.90886 0,30.93386 0,30.96126 c 0,0.0274 0.0171,0.0519 0.0428,0.0614 l 0.68393,0.25231 c 0.55377,0.20418 0.99026,0.64069 1.19444,1.19443 l 0.25224,0.68386 c 0.009,0.0257 0.034,0.0428 0.0614,0.0428 0.0274,0 0.0519,-0.0171 0.0614,-0.0428 l 0.25232,-0.68393 c 0.20418,-0.55376 0.6406,-0.99018 1.19435,-1.19427 l 0.68393,-0.25232 c 0.0257,-0.009 0.0428,-0.034 0.0428,-0.0614 0,-0.0274 -0.0171,-0.0519 -0.0428,-0.0614 z"
   id="path1677-6-7"
   style="fill:#fab7ff;fill-opacity:1;stroke-width:0.0813149" /></svg>
