<?xml version="1.0" encoding="UTF-8" standalone="no"?>
<svg
   xmlns:dc="http://purl.org/dc/elements/1.1/"
   xmlns:cc="http://creativecommons.org/ns#"
   xmlns:rdf="http://www.w3.org/1999/02/22-rdf-syntax-ns#"
   xmlns:svg="http://www.w3.org/2000/svg"
   xmlns="http://www.w3.org/2000/svg"
   xmlns:sodipodi="http://sodipodi.sourceforge.net/DTD/sodipodi-0.dtd"
   xmlns:inkscape="http://www.inkscape.org/namespaces/inkscape"
   width="264.08148"
   height="212.51447"
   viewBox="0 0 69.871558 56.227788"
   version="1.1"
   id="svg8"
   sodipodi:docname="votr.svg"
   inkscape:version="1.0.1 (c497b03c, 2020-09-10)">
  <sodipodi:namedview
     pagecolor="#ffffff"
     bordercolor="#666666"
     borderopacity="1"
     objecttolerance="10"
     gridtolerance="10"
     guidetolerance="10"
     inkscape:pageopacity="0"
     inkscape:pageshadow="2"
     inkscape:window-width="1319"
     inkscape:window-height="714"
     id="namedview854"
     showgrid="false"
     inkscape:zoom="1.8057363"
     inkscape:cx="167.65786"
     inkscape:cy="107.36083"
     inkscape:window-x="0"
     inkscape:window-y="25"
     inkscape:window-maximized="0"
     inkscape:current-layer="svg8"
     lock-margins="true"
     units="px"
     fit-margin-top="25"
     fit-margin-left="25"
     fit-margin-right="25"
     fit-margin-bottom="25"
     inkscape:document-rotation="0" />
  <style
     id="style833"></style>
  <defs
     id="defs2">
    <rect
       x="30.238094"
       y="43.845238"
       width="136.82738"
       height="117.92857"
       id="rect837" />
  </defs>
  <metadata
     id="metadata5">
    <rdf:RDF>
      <cc:Work
         rdf:about="">
        <dc:format>image/svg+xml</dc:format>
        <dc:type
           rdf:resource="http://purl.org/dc/dcmitype/StillImage" />
        <dc:title></dc:title>
      </cc:Work>
    </rdf:RDF>
  </metadata>
  <path
     fill="#aaacff"
     d="M 37.613491,9.2108741 Q 33.718299,5.964197 28.829572,6.7775092 23.940846,7.5908214 20.431675,10.59946 16.9225,13.6081 13.509706,16.531288 q -3.412794,2.923188 -4.7759013,6.93481 -1.3631074,4.011618 -2.0045293,8.340562 -0.6414275,4.328946 2.3043993,7.870374 2.9458253,3.541428 6.1193383,6.470779 3.173513,2.929352 7.82011,3.287865 4.646598,0.358516 8.529033,-0.007 3.882437,-0.365543 7.788381,-0.273344 3.905945,0.09221 8.46607,-0.532336 4.560126,-0.62453 8.636166,-3.246957 4.07604,-2.622426 5.398175,-6.871197 1.322137,-4.24877 1.45815,-8.608201 0.136013,-4.35949 -2.075199,-8.312927 -2.211217,-3.953431 -7.293375,-5.224786 -5.082159,-1.271349 -8.726999,-2.586381 -3.64484,-1.315031 -7.540034,-4.5617066 z"
     id="path1056"
     style="fill:#fbfbfb;fill-opacity:1;stroke-width:0.114798" />
  <g
     id="layer1"
     transform="translate(-20.979703,-30.014647)">
    <g
       aria-label="The Voter's Companion"
       id="text835"
       style="font-weight:bold;font-size:10.5833px;line-height:0.75;font-family:sans-serif;-inkscape-font-specification:'sans-serif Bold';white-space:pre;shape-inside:url(#rect837)">
      <path
         d="m 36.704677,43.870366 0.01058,0.275165 q 0,0.825498 -0.148167,1.735661 H 35.84743 L 35.709847,44.68528 34.164685,44.60061 v 5.587982 l 1.15358,0.148167 -0.01058,0.518581 h -3.481906 l -0.0635,-0.338665 0.772581,-0.296333 0.338666,-0.116416 V 44.60061 l -1.545162,0.08467 -0.137583,1.195912 H 30.4817 q -0.148166,-0.86783 -0.148166,-1.672161 l 0.01058,-0.338665 3.196157,0.04233 q 1.682744,0 3.164406,-0.04233 z"
         style="font-style:normal;font-variant:normal;font-weight:500;font-stretch:normal;font-family:Eczar;-inkscape-font-specification:'Eczar Medium'"
         id="path1066" />
      <path
         d="m 42.076363,50.093346 q 0.486832,0.105833 0.761998,0.253999 l -0.04233,0.507998 h -2.508242 l -0.04233,-0.359832 0.592665,-0.243416 V 47.76502 q 0,-1.09008 -0.666748,-1.09008 -0.444498,0 -1.301746,0.539748 v 2.889241 q 0.433916,0.116416 0.656165,0.243416 l -0.04233,0.507998 h -2.603492 l -0.04233,-0.359832 q 0.328082,-0.158749 0.793747,-0.306916 v -6.244146 l -0.793747,-0.02117 -0.105833,-0.507998 q 0.730248,-0.296333 1.661578,-0.349249 l 0.476248,0.423332 v 3.217323 q 1.238247,-0.899581 1.936744,-1.015997 0.317499,0.04233 0.634998,0.243416 0.328083,0.201083 0.497415,0.486832 0.127,0.232832 0.137583,0.96308 z"
         style="font-style:normal;font-variant:normal;font-weight:500;font-stretch:normal;font-family:Eczar;-inkscape-font-specification:'Eczar Medium'"
         id="path1068" />
      <path
         d="m 44.265452,48.188352 q 0,0.89958 0.465665,1.396995 0.476249,0.497415 1.206497,0.497415 0.571498,0 1.354662,-0.359832 l 0.190499,0.497415 -1.650994,0.783165 q -1.227663,0.0635 -2.021411,-0.666748 -0.783164,-0.730248 -0.783164,-1.904994 0,-1.142997 0.730248,-1.957911 0.740831,-0.825497 1.788577,-0.825497 0.888998,0 1.460496,0.560915 0.582081,0.550331 0.571498,1.428745 l -0.613831,0.592665 z m 0.825498,-1.820328 q -0.560915,0.317499 -0.751415,1.18533 l 2.063744,-0.105833 q -0.08467,-0.486832 -0.455082,-0.783164 -0.359832,-0.306916 -0.857247,-0.296333 z"
         style="font-style:normal;font-variant:normal;font-weight:500;font-stretch:normal;font-family:Eczar;-inkscape-font-specification:'Eczar Medium'"
         id="path1070" />
      <path
         d="m 34.545684,60.317994 0.01058,0.01058 q -0.603249,0.116416 -1.291163,0.116416 l -2.233076,-6.424063 -0.804331,-0.105833 0.01058,-0.518581 h 3.047991 l 0.0635,0.338665 q -0.317499,0.169333 -0.920747,0.391582 l 1.344079,4.021654 0.137583,1.322913 h 0.0635 l 1.852077,-5.429233 -0.952497,-0.127 0.01058,-0.518581 h 2.645825 l 0.0635,0.338665 q -0.243415,0.137583 -0.814914,0.349249 z"
         style="font-style:normal;font-variant:normal;font-weight:500;font-stretch:normal;font-family:Eczar;-inkscape-font-specification:'Eczar Medium'"
         id="path1072" />
      <path
         d="m 36.805384,57.799168 q 0,-1.185329 0.698498,-1.936744 0.709081,-0.751414 1.777994,-0.751414 1.068913,0 1.746244,0.761998 0.687915,0.751414 0.687915,1.979077 0,1.217079 -0.677331,1.947327 -0.666748,0.730248 -1.725078,0.730248 -1.09008,0 -1.799161,-0.761998 -0.709081,-0.772581 -0.709081,-1.968494 z m 3.04799,1.883828 q 0.582082,-0.391582 0.582082,-1.714495 0,-0.910164 -0.306916,-1.492245 -0.296332,-0.592665 -0.920747,-0.592665 -0.402165,0 -0.677331,0.201083 -0.433916,0.539748 -0.433916,1.640411 0,0.867831 0.328083,1.449912 0.328082,0.582082 0.984247,0.582082 0.211666,0 0.444498,-0.07408 z"
         style="font-style:normal;font-variant:normal;font-weight:500;font-stretch:normal;font-family:Eczar;-inkscape-font-specification:'Eczar Medium'"
         id="path1074" />
      <path
         d="m 44.4667,59.450163 q 0.285749,0 0.93133,-0.201083 l 0.137583,0.507999 -1.492245,0.730247 q -0.423332,0.02117 -0.804331,-0.296332 -0.380999,-0.317499 -0.380999,-0.698498 V 56.26459 l -0.687914,0.01058 -0.0635,-0.529165 q 0.433915,-0.243416 0.804331,-0.370415 l 0.465665,-1.35466 h 0.613831 l 0.08467,1.322913 h 1.481662 l 0.03175,0.380999 -0.507999,0.560914 h -0.984247 v 2.624659 q 0,0.296332 0.07408,0.423332 0.08467,0.116416 0.296333,0.116416 z"
         style="font-style:normal;font-variant:normal;font-weight:500;font-stretch:normal;font-family:Eczar;-inkscape-font-specification:'Eczar Medium'"
         id="path1076" />
      <path
         d="m 47.221335,57.651002 q 0,0.899581 0.465665,1.396996 0.476249,0.497415 1.206497,0.497415 0.571498,0 1.354662,-0.359832 l 0.190499,0.497415 -1.650994,0.783164 q -1.227663,0.0635 -2.021411,-0.666748 -0.783164,-0.730248 -0.783164,-1.904994 0,-1.142996 0.730248,-1.95791 0.740831,-0.825498 1.788577,-0.825498 0.888998,0 1.460496,0.560915 0.582081,0.550332 0.571498,1.428746 l -0.613831,0.592664 z m 0.825498,-1.820327 q -0.560915,0.317499 -0.751415,1.185329 l 2.063744,-0.105833 q -0.08467,-0.486832 -0.455082,-0.783164 -0.359832,-0.306916 -0.857247,-0.296332 z"
         style="font-style:normal;font-variant:normal;font-weight:500;font-stretch:normal;font-family:Eczar;-inkscape-font-specification:'Eczar Medium'"
         id="path1078" />
      <path
         d="m 55.276054,55.439092 q 0.02117,0.910164 -0.285749,1.862661 H 54.30239 l -0.169333,-1.185329 q -0.719664,0.476248 -1.248829,1.142996 v 2.264826 q 0.793748,0.105833 1.100663,0.285749 l -0.04233,0.507999 h -3.037407 l -0.04233,-0.359833 q 0.338665,-0.169332 0.783164,-0.306915 v -3.640655 l -0.793747,-0.01058 -0.105833,-0.507998 q 0.730247,-0.296332 1.661578,-0.349249 l 0.476248,0.423332 v 0.899581 l 1.079497,-1.174747 q 0.253999,-0.105833 0.539748,-0.105833 0.455082,0 0.772581,0.253999 z"
         style="font-style:normal;font-variant:normal;font-weight:500;font-stretch:normal;font-family:Eczar;-inkscape-font-specification:'Eczar Medium'"
         id="path1080" />
      <path
         d="m 55.130201,54.857011 q 0.402166,-1.079497 0.402166,-2.127243 l 0.349249,-0.306916 0.89958,0.169333 q -0.09525,1.333496 -0.846664,2.529409 z"
         style="font-style:normal;font-variant:normal;font-weight:500;font-stretch:normal;font-family:Eczar;-inkscape-font-specification:'Eczar Medium'"
         id="path1082" />
      <path
         d="m 58.768541,56.35984 q 0,0.317499 0.264583,0.518581 0.264582,0.1905 0.814914,0.433916 l 0.709081,0.359832 q 0.836081,0.476248 0.836081,1.291162 0,0.687915 -0.539749,1.132413 -0.539748,0.433916 -1.396995,0.433916 -0.973664,0 -1.98966,-0.560915 l 0.465665,-1.079497 q 0.952497,0.687915 2.031993,0.899581 0.254,-0.22225 0.254,-0.539749 0,-0.296332 -0.22225,-0.497415 -0.211666,-0.211666 -1.005413,-0.571498 -0.793748,-0.359832 -1.079497,-0.698498 -0.285749,-0.349249 -0.285749,-0.80433 0,-0.719665 0.613831,-1.142997 0.613832,-0.423332 1.502829,-0.423332 0.814914,0 1.449912,0.328082 h 0.01058 l 0.01058,0.254 q 0,0.592664 -0.1905,1.153579 H 60.33487 l -0.15875,-0.888997 q -0.560915,-0.179916 -1.047746,-0.148166 -0.359833,0.190499 -0.359833,0.550332 z"
         style="font-style:normal;font-variant:normal;font-weight:500;font-stretch:normal;font-family:Eczar;-inkscape-font-specification:'Eczar Medium'"
         id="path1084" />
      <path
         d="m 36.080263,69.008063 -2.127244,0.941914 q -1.640411,0.03175 -2.614075,-0.941914 -0.96308,-0.973664 -0.96308,-2.603492 0,-1.640411 0.952497,-2.698741 0.952497,-1.05833 2.465909,-1.05833 1.206496,0 2.106077,0.656165 l -0.01058,0.03175 0.01058,0.296333 q 0,0.793747 -0.211666,1.449912 H 34.88435 l -0.169333,-1.21708 q -0.719664,-0.370415 -1.576912,-0.370415 l -0.253999,0.01058 q -0.592665,0.380999 -0.86783,1.111247 -0.275166,0.719664 -0.275166,1.534578 0,1.301746 0.656164,2.08491 0.666748,0.772581 1.767411,0.709081 l 1.682745,-0.571498 z"
         style="font-style:normal;font-variant:normal;font-weight:500;font-stretch:normal;font-family:Eczar;-inkscape-font-specification:'Eczar Medium'"
         id="path1086" />
      <path
         d="m 36.22661,67.261819 q 0,-1.18533 0.698498,-1.936744 0.709081,-0.751414 1.777994,-0.751414 1.068913,0 1.746244,0.761997 0.687915,0.751414 0.687915,1.979077 0,1.21708 -0.677331,1.947327 -0.666748,0.730248 -1.725078,0.730248 -1.09008,0 -1.799161,-0.761998 -0.709081,-0.772581 -0.709081,-1.968493 z m 3.04799,1.883827 q 0.582082,-0.391582 0.582082,-1.714495 0,-0.910163 -0.306916,-1.492245 -0.296332,-0.592665 -0.920747,-0.592665 -0.402165,0 -0.677331,0.201083 -0.433916,0.539748 -0.433916,1.640412 0,0.86783 0.328083,1.449912 0.328082,0.582081 0.984247,0.582081 0.211666,0 0.444498,-0.07408 z"
         style="font-style:normal;font-variant:normal;font-weight:500;font-stretch:normal;font-family:Eczar;-inkscape-font-specification:'Eczar Medium'"
         id="path1088" />
      <path
         d="m 49.952157,69.018646 q 0.486832,0.105833 0.751414,0.254 l -0.05292,0.507998 H 48.16358 l -0.04233,-0.359832 0.592665,-0.243416 V 66.69032 q 0,-1.090079 -0.666748,-1.090079 -0.465665,0 -1.269996,0.518581 l 0.01058,2.910408 q 0.423332,0.08467 0.709081,0.243416 l -0.05292,0.507998 H 44.99917 l -0.04233,-0.359832 0.592665,-0.243416 V 66.69032 q 0,-1.090079 -0.666748,-1.090079 -0.455082,0 -1.238246,0.497415 v 2.931574 q 0.433915,0.116416 0.656164,0.243416 l -0.04233,0.507998 H 41.6866 l -0.04233,-0.359832 q 0.253999,-0.137583 0.761998,-0.296333 v -3.651238 l -0.793748,-0.01058 -0.105833,-0.507999 q 0.730248,-0.296332 1.661578,-0.349249 l 0.476249,0.444499 v 0.539748 q 1.259412,-0.888997 1.873244,-0.973663 0.317499,0.04233 0.634998,0.243416 0.328082,0.201082 0.497415,0.486831 0.0635,0.116417 0.09525,0.285749 1.238246,-0.89958 1.936744,-1.015996 0.317499,0.04233 0.634998,0.243416 0.328082,0.201082 0.497415,0.486831 0.127,0.232833 0.137583,0.963081 z"
         style="font-style:normal;font-variant:normal;font-weight:500;font-stretch:normal;font-family:Eczar;-inkscape-font-specification:'Eczar Medium'"
         id="path1090" />
      <path
         d="m 53.915437,69.939393 q -0.391582,0 -0.804331,-0.09525 v 1.291162 q 0.709081,0.179916 0.910164,0.285749 l -0.04233,0.507999 h -2.762241 l -0.04233,-0.349249 0.698497,-0.264583 V 65.47324 l -0.772581,-0.01058 -0.105833,-0.507999 q 0.740831,-0.306915 1.661579,-0.349249 v 0.01058 l 0.455081,0.412748 v 0.423332 l 1.174747,-0.793747 0.402165,-0.04233 q 0.846664,0 1.396996,0.709081 0.550331,0.709081 0.550331,1.767411 0,1.227663 -0.772581,2.042577 -0.761997,0.80433 -1.947327,0.80433 z m 0.201083,-4.317986 q -0.380999,0 -1.005414,0.359832 v 2.952741 q 0.529165,0.243416 1.100664,0.243416 l 0.306915,-0.02117 q 0.370416,-0.253999 0.582082,-0.761997 0.222249,-0.507999 0.222249,-1.05833 0,-0.698498 -0.338666,-1.206496 -0.328082,-0.507999 -0.86783,-0.507999 z"
         style="font-style:normal;font-variant:normal;font-weight:500;font-stretch:normal;font-family:Eczar;-inkscape-font-specification:'Eczar Medium'"
         id="path1092" />
      <path
         d="m 62.084422,69.357312 -1.174746,0.592665 q -0.201083,-0.02117 -0.465665,-0.232833 -0.264583,-0.222249 -0.402166,-0.518582 l -1.164163,0.730248 -0.285749,0.02117 q -0.645581,0 -1.068913,-0.380999 -0.412749,-0.380999 -0.412749,-0.920747 0,-0.761998 0.783165,-1.174746 l 2.042576,-0.05292 v -1.015997 q 0,-0.846664 -0.507998,-1.111246 -0.560915,0.02117 -0.99483,0.169333 l -0.137583,1.121829 -0.719664,0.03175 q -0.28575,-0.592664 -0.264583,-1.375829 0.518582,-0.264582 1.312329,-0.486831 0.804331,-0.22225 1.174747,-0.22225 0.359832,0 0.709081,0.232833 0.359832,0.222249 0.550331,0.518582 0.116416,0.211666 0.127,0.80433 v 2.656409 q 0,0.222249 0.264582,0.222249 l 0.507999,-0.07408 z m -3.460739,-0.275166 q 0.507999,0 1.312329,-0.317499 V 68.00265 l -0.370415,-0.01058 q -1.18533,0 -1.18533,0.613832 0,0.306915 0.243416,0.476248 z"
         style="font-style:normal;font-variant:normal;font-weight:500;font-stretch:normal;font-family:Eczar;-inkscape-font-specification:'Eczar Medium'"
         id="path1094" />
      <path
         d="m 67.512166,69.018646 q 0.486832,0.105833 0.751414,0.254 l -0.05292,0.507998 h -2.487076 l -0.04233,-0.359832 0.592665,-0.243416 V 66.69032 q 0,-1.090079 -0.666748,-1.090079 -0.455082,0 -1.333496,0.560914 v 2.868075 q 0.433916,0.116416 0.656165,0.243416 l -0.04233,0.507998 h -2.571742 l -0.04233,-0.359832 q 0.253999,-0.137583 0.761997,-0.296333 v -3.651238 l -0.793747,-0.01058 -0.105833,-0.507999 q 0.730247,-0.296332 1.661578,-0.349249 l 0.476248,0.444499 v 0.603248 q 1.291163,-0.920747 1.968494,-1.037163 0.317499,0.04233 0.634998,0.243416 0.328082,0.201082 0.497415,0.486831 0.127,0.232833 0.137583,0.963081 z"
         style="font-style:normal;font-variant:normal;font-weight:500;font-stretch:normal;font-family:Eczar;-inkscape-font-specification:'Eczar Medium'"
         id="path1096" />
      <path
         d="m 70.141289,63.790496 q -0.582081,-0.243416 -0.96308,-0.740831 0.317499,-0.634998 0.783164,-0.96308 0.539748,0.243416 0.920747,0.783164 -0.243416,0.592665 -0.740831,0.920747 z m 0.560915,5.22815 q 0.486832,0.08467 0.751414,0.254 l -0.04233,0.507998 H 68.70196 l -0.04233,-0.359832 q 0.306916,-0.15875 0.804331,-0.306916 v -3.640655 l -0.793747,-0.01058 -0.105833,-0.507999 q 0.730247,-0.296332 1.661578,-0.349249 l 0.476248,0.423332 z"
         style="font-style:normal;font-variant:normal;font-weight:500;font-stretch:normal;font-family:Eczar;-inkscape-font-specification:'Eczar Medium'"
         id="path1098" />
      <path
         d="m 71.841892,67.261819 q 0,-1.18533 0.698498,-1.936744 0.709081,-0.751414 1.777994,-0.751414 1.068913,0 1.746245,0.761997 0.687914,0.751414 0.687914,1.979077 0,1.21708 -0.677331,1.947327 -0.666748,0.730248 -1.725078,0.730248 -1.09008,0 -1.799161,-0.761998 -0.709081,-0.772581 -0.709081,-1.968493 z m 3.04799,1.883827 q 0.582082,-0.391582 0.582082,-1.714495 0,-0.910163 -0.306916,-1.492245 -0.296332,-0.592665 -0.920747,-0.592665 -0.402165,0 -0.677331,0.201083 -0.433915,0.539748 -0.433915,1.640412 0,0.86783 0.328082,1.449912 0.328082,0.582081 0.984247,0.582081 0.211666,0 0.444498,-0.07408 z"
         style="font-style:normal;font-variant:normal;font-weight:500;font-stretch:normal;font-family:Eczar;-inkscape-font-specification:'Eczar Medium'"
         id="path1100" />
      <path
         d="m 82.498284,69.018646 q 0.486832,0.105833 0.751414,0.254 l -0.05292,0.507998 h -2.487075 l -0.04233,-0.359832 0.592665,-0.243416 V 66.69032 q 0,-1.090079 -0.666748,-1.090079 -0.455082,0 -1.333495,0.560914 v 2.868075 q 0.433915,0.116416 0.656164,0.243416 l -0.04233,0.507998 h -2.571742 l -0.04233,-0.359832 q 0.253999,-0.137583 0.761997,-0.296333 v -3.651238 l -0.793747,-0.01058 -0.105833,-0.507999 q 0.730248,-0.296332 1.661578,-0.349249 l 0.476249,0.444499 v 0.603248 q 1.291162,-0.920747 1.968493,-1.037163 0.317499,0.04233 0.634998,0.243416 0.328083,0.201082 0.497415,0.486831 0.127,0.232833 0.137583,0.963081 z"
         style="font-style:normal;font-variant:normal;font-weight:500;font-stretch:normal;font-family:Eczar;-inkscape-font-specification:'Eczar Medium'"
         id="path1102" />
    </g>
  </g>
  <g
     id="g985"
     transform="matrix(0.02554145,0,0,0.02554145,43.225121,11.84713)">
    <path
       d="m 398.5,198.53906 -59.02344,-10 v 72 l 59.02344,-10 63.39062,-26 z"
       id="path4381"
       inkscape:connector-curvature="0"
       style="fill:#ffcb7c"
       sodipodi:nodetypes="cccccc" />
    <path
       d="M 167.5,502 V 394.55859 l -28.98828,-16.25 c -17.15234,-9.62109 -28.47266,-27.375 -29.11328,-47.03125 -0.0195,-0.61718 -0.0312,-1.23828 -0.0312,-1.85547 v -68.88281 h 48.15625 v 11.15625 -110.39844 c 0,-13.59765 11.01953,-24.61718 24.61718,-24.61718 13.59766,0 24.6211,11.01953 24.6211,24.61718 V 271.69531 161.29687 c 0,-13.59765 11.01953,-24.61718 24.61719,-24.61718 13.59765,0 24.61718,11.01953 24.61718,24.61718 V 271.69531 161.29687 c 0,-13.59765 11.02344,-24.61718 24.6211,-24.61718 13.59765,0 24.61718,11.01953 24.61718,24.61718 V 271.69531 161.29687 c 0,-13.59765 11.02344,-24.61718 24.6211,-24.61718 13.59765,0 24.61719,11.01953 24.61719,24.61718 v 151.23438 c 0,30.92969 -12.5625,60.53516 -34.8086,82.02734 V 502 Z m 0,0"
       fill="#ffddcf"
       id="path4383" />
    <path
       d="m 488.5,224.53906 -77,-36 v 72 z m 0,0"
       id="path4385"
       inkscape:connector-curvature="0"
       style="fill:#8690a6" />
    <path
       d="m 489.73437,215.48047 -77,-36 c -1.32421,-0.6211 -2.76953,-0.94141 -4.23437,-0.94141 h -44.02344 v -17.24219 c 0,-19.08984 -15.52734,-34.61718 -34.61719,-34.61718 -9.625,0 -18.33984,3.94922 -24.62109,10.30859 -6.27734,-6.35937 -14.99609,-10.30859 -24.61719,-10.30859 -9.625,0 -18.33984,3.94922 -24.62109,10.30859 -6.28125,-6.35937 -14.99609,-10.30859 -24.61719,-10.30859 -9.625,0 -18.33984,3.94922 -24.62109,10.30859 -6.28125,-6.35937 -14.9961,-10.30859 -24.61719,-10.30859 -19.08984,0 -34.62109,15.52734 -34.62109,34.61718 v 17.24219 H 56.26953 c -12.003906,0 -21.769531,9.76563 -21.769531,21.76953 v 48.46094 c 0,12.00391 9.765625,21.76953 21.769531,21.76953 h 43.101564 v 58.88281 c 0,0.73047 0.01172,1.46094 0.03516,2.1836 0.742186,22.77344 13.851556,44.00781 34.214836,55.42578 L 157.5,400.42187 V 502 c 0,5.52344 4.48047,10 10,10 5.52344,0 10,-4.47656 10,-10 V 394.55859 c 0,-3.61718 -1.95313,-6.95312 -5.10938,-8.72265 l -28.98828,-16.25 c -14.29297,-8.01563 -23.49218,-22.81641 -24.00781,-38.64063 -0.0156,-0.50781 -0.0234,-1.01562 -0.0234,-1.52344 v -58.88281 h 28.15235 v 1.15625 c 0,5.52344 4.48047,10 10,10 5.52343,0 10,-4.47656 10,-10 V 161.29687 c 0,-8.0625 6.55859,-14.61718 14.62109,-14.61718 8.05859,0 14.61719,6.55859 14.61719,14.61718 v 110.39844 c 0,5.52344 4.47656,10 10,10 5.52344,0 10,-4.47656 10,-10 V 161.29687 c 0,-8.0625 6.55859,-14.61718 14.62109,-14.61718 8.0586,0 14.61719,6.55468 14.61719,14.61718 v 110.39844 c 0,5.52344 4.47656,10 10,10 5.52344,0 10,-4.47656 10,-10 V 161.29687 c 0,-8.0625 6.55859,-14.61718 14.61719,-14.61718 8.0625,0 14.62109,6.55859 14.62109,14.61718 v 110.39844 c 0,5.52344 4.48047,10 10,10 5.52344,0 10,-4.47656 10,-10 V 161.29687 c 0,-8.0625 6.55859,-14.61718 14.62109,-14.61718 8.0586,0 14.61719,6.55859 14.61719,14.61718 v 151.23438 c 0,28.0625 -11.57422,55.33984 -31.75781,74.83594 -1.94922,1.88672 -3.05469,4.48047 -3.05469,7.1914 V 462 c 0,5.52344 4.48047,10 10,10 5.52344,0 10,-4.47656 10,-10 v -63.30469 c 22.17578,-22.99219 34.8125,-54.14844 34.8125,-86.16406 V 270.53906 H 408.5 c 1.46484,0 2.91016,-0.32031 4.23437,-0.9414 l 77,-36 c 3.51954,-1.64454 5.76563,-5.17579 5.76563,-9.0586 0,-3.88281 -2.24609,-7.41406 -5.76563,-9.05859 z M 56.26953,198.53906 c 57.23937,0.26591 48.41851,52 0,52 -0.976562,0 -1.769531,-0.79297 -1.769531,-1.76953 v -48.46094 c 0,-0.97656 0.792969,-1.76953 1.769531,-1.76953 m 91.25391,0 v 52 h -38.15625 c -76.178488,-17.17343 -26.095944,-52 38.15625,-52 m 216.95312,0 H 398.5 v 52 H 364.47656 Z M 418.5,244.82422 v -40.57031 l 43.39062,20.28515 z"
       id="path4387"
       inkscape:connector-curvature="0"
       sodipodi:nodetypes="ccscsscscscsscsssscscccsssscccsccssssssssssssssssssssssssscsssscscsccscccsscccccccccccccc" />
    <path
       d="m 255.83203,84.339844 c 5.51953,0 10,-4.480469 10,-10 V 10 c 0,-5.523438 -4.48047,-10 -10,-10 -5.52344,0 -10,4.476562 -10,10 v 64.339844 c 0,5.519531 4.47656,10 10,10 z m 0,0"
       id="path4389" />
    <path
       d="m 178.35937,98.621094 c 1.95313,1.953126 4.51172,2.929686 7.07032,2.929686 2.55859,0 5.11718,-0.97656 7.07031,-2.929686 3.90625,-3.902344 3.90625,-10.234375 0,-14.140625 L 166.87109,58.847656 c -3.90234,-3.902344 -10.23437,-3.902344 -14.14453,0 -3.90234,3.90625 -3.90234,10.238282 0,14.144532 z m 0,0"
       id="path4391" />
    <path
       d="m 326.57031,101.55078 c 2.5586,0 5.11719,-0.97656 7.07031,-2.929686 l 25.62891,-25.628906 c 3.90625,-3.90625 3.90625,-10.238282 0,-14.144532 -3.90625,-3.902344 -10.23437,-3.902344 -14.14062,0 l -25.63282,25.632813 c -3.90234,3.90625 -3.90234,10.238281 0,14.140625 1.95313,1.953126 4.51563,2.929686 7.07422,2.929686 z m 0,0"
       id="path4393" />
    <path
       d="m 319.67187,492 c -2.64062,0 -5.21093,1.07031 -7.07031,2.92969 -1.87109,1.85937 -2.92969,4.4414 -2.92969,7.07031 0,2.62891 1.0586,5.21094 2.92969,7.07031 1.85938,1.85938 4.42969,2.92969 7.07031,2.92969 2.62891,0 5.20704,-1.07031 7.06641,-2.92969 1.85938,-1.85937 2.93359,-4.4414 2.93359,-7.07031 0,-2.62891 -1.07031,-5.21094 -2.93359,-7.07031 C 324.87891,493.07031 322.30078,492 319.67187,492 Z m 0,0"
       id="path4395" />
    <rect
       style="opacity:0.99;fill:#ffcb7c;fill-opacity:1;stroke:none;stroke-width:0.650646;stroke-linecap:round;stroke-miterlimit:4;stroke-dasharray:none;stroke-dashoffset:0;stroke-opacity:1"
       id="rect4948"
       width="93.828529"
       height="52.420719"
       x="53.694912"
       y="198.53906" />
    <rect
       style="opacity:0.99;fill:#caa366;fill-opacity:1;stroke:none;stroke-width:0.740468;stroke-linecap:round;stroke-miterlimit:4;stroke-dasharray:none;stroke-dashoffset:0;stroke-opacity:1"
       id="rect820"
       width="93.828529"
       height="15.090981"
       x="53.694912"
       y="235.86879" />
    <rect
       style="opacity:0.99;fill:#caa366;fill-opacity:1;stroke:none;stroke-width:0.445946;stroke-linecap:round;stroke-miterlimit:4;stroke-dasharray:none;stroke-dashoffset:0;stroke-opacity:1"
       id="rect820-3"
       width="34.031921"
       height="15.090981"
       x="364.47656"
       y="235.44809" />
    <rect
       style="opacity:0.99;fill:#e3b56e;fill-opacity:1;stroke:none;stroke-width:0.893928;stroke-linecap:round;stroke-miterlimit:4;stroke-dasharray:none;stroke-dashoffset:0;stroke-opacity:1"
       id="rect820-7"
       width="93.828529"
       height="21.994261"
       x="53.694904"
       y="213.87453" />
    <rect
       style="opacity:0.99;fill:#e3b56e;fill-opacity:1;stroke:none;stroke-width:0.538367;stroke-linecap:round;stroke-miterlimit:4;stroke-dasharray:none;stroke-dashoffset:0;stroke-opacity:1"
       id="rect820-7-1"
       width="34.031898"
       height="21.994261"
       x="364.47656"
       y="213.45383" />
  </g>
</svg>
