<?xml version="1.0" encoding="UTF-8" standalone="no"?>
<svg
   xmlns:svg="http://www.w3.org/2000/svg"
   xmlns="http://www.w3.org/2000/svg"
   xmlns:xlink="http://www.w3.org/1999/xlink"
   xmlns:sodipodi="http://sodipodi.sourceforge.net/DTD/sodipodi-0.dtd"
   xmlns:inkscape="http://www.inkscape.org/namespaces/inkscape"
   id="Capa_1"
   enable-background="new 0 0 511.089 511.089"
   height="524.33197"
   viewBox="0 0 368.74117 523.39903"
   width="369.39844"
   version="1.1"
   sodipodi:docname="window.svg"
   inkscape:version="1.1-dev (a1a64ec, 2020-05-08)">
  <defs
     id="defs1158">
    <linearGradient
       id="linearGradient876"
       inkscape:collect="always">
      <stop
         id="stop872"
         offset="0"
         style="stop-color:#ffb924;stop-opacity:1;" />
      <stop
         id="stop874"
         offset="1"
         style="stop-color:#ffb924;stop-opacity:0;" />
    </linearGradient>
    <radialGradient
       gradientUnits="userSpaceOnUse"
       gradientTransform="matrix(1.6830361,0.00279382,-0.00259031,1.5604517,0.67309709,-293.74672)"
       r="9.1074219"
       fy="523.53992"
       fx="1.0000045"
       cy="523.53992"
       cx="1.0000045"
       id="radialGradient862"
       xlink:href="#linearGradient876"
       inkscape:collect="always" />
  </defs>
  <sodipodi:namedview
     pagecolor="#ffffff"
     bordercolor="#666666"
     borderopacity="1"
     objecttolerance="10"
     gridtolerance="10"
     guidetolerance="10"
     inkscape:pageopacity="0"
     inkscape:pageshadow="2"
     inkscape:window-width="1440"
     inkscape:window-height="802"
     id="namedview1156"
     showgrid="false"
     lock-margins="true"
     inkscape:zoom="4.0403749"
     inkscape:cx="74.55329"
     inkscape:cy="508.21467"
     inkscape:window-x="0"
     inkscape:window-y="23"
     inkscape:window-maximized="0"
     inkscape:current-layer="Capa_1"
     showborder="false"
     fit-margin-top="1"
     fit-margin-left="1"
     fit-margin-right="1"
     fit-margin-bottom="1" />
  <path
     transform="scale(0.99822071)"
     d="M 184.69922 1 C 83.407417 1 1 83.407417 1 184.69922 L 1 346.30469 L 1 523.21484 L 16.328125 523.24023 L 184.69922 523.24023 L 353.07031 523.24023 L 368.39844 523.33203 L 368.39844 346.30469 L 368.39844 184.69922 C 368.39844 178.36848 368.07753 172.11106 367.44922 165.94336 C 367.29215 164.40144 367.11503 162.86451 366.91992 161.33398 C 366.52967 158.27294 366.06302 155.23518 365.52344 152.22266 C 365.25366 150.71639 364.96654 149.21803 364.66016 147.72461 C 364.04736 144.73779 363.36176 141.77625 362.60547 138.84375 C 362.22734 137.37752 361.83126 135.91872 361.41797 134.4668 C 360.59137 131.56293 359.69476 128.68748 358.73047 125.84375 C 357.76617 123.00003 356.7348 120.18596 355.63672 117.40625 C 352.34247 109.06715 348.45614 101.02708 344.02734 93.333984 C 342.55109 90.769622 341.01255 88.244597 339.41797 85.759766 C 337.82337 83.274934 336.17189 80.829157 334.46289 78.427734 C 325.91822 66.421011 315.96599 55.480476 304.85156 45.849609 L 304.84961 45.849609 C 272.61653 17.919383 230.59755 1 184.69922 1 z M 195.31055 24.751953 C 231.40502 27.209861 264.29493 42.106622 290.05469 65.365234 L 290.05664 65.365234 C 299.80243 74.164861 308.52698 84.162403 316.01953 95.132812 C 317.51809 97.326977 318.96894 99.559721 320.36719 101.83008 C 321.76542 104.10044 323.11178 106.40891 324.40625 108.75195 C 328.28968 115.78105 331.69931 123.1287 334.58789 130.74805 C 335.55079 133.28781 336.45524 135.85677 337.30078 138.45508 C 338.14633 141.05338 338.93142 143.68077 339.65625 146.33398 C 340.01859 147.66058 340.36569 148.99235 340.69727 150.33203 C 341.36045 153.01142 341.96266 155.71821 342.5 158.44727 C 342.76864 159.81178 343.02126 161.18236 343.25781 162.55859 C 343.73095 165.31113 344.1402 168.08598 344.48242 170.88281 C 344.65353 172.28123 344.80759 173.68492 344.94531 175.09375 C 345.19721 177.67038 345.38543 180.26559 345.52344 182.875 L 344.33398 181.88281 C 337.45438 176.83367 329.44005 173.24508 320.74609 171.5918 C 318.75268 167.59269 316.57675 157.88516 303.66992 148.41602 C 300.33406 146.27803 296.52399 144.63689 292.23633 143.73047 C 292.23633 143.73047 286.66413 142.47307 281.1582 144.13281 C 278.09556 138.95135 275.82062 137.21611 269.14648 132.59961 C 267.78293 131.81115 266.24525 130.97028 265.08594 130.33789 C 262.24417 128.86316 259.10059 127.45671 255.55078 126.17578 C 261.01448 117.72684 260.54394 105.32746 259.39844 100.63281 C 257.18584 91.230951 254.02626 86.441725 251.21094 82.103516 C 246.49985 75.482465 239.58335 70.085981 230.25781 67.273438 C 228.95468 60.936321 228.24489 57.992392 224.31641 52.115234 C 221.67418 48.20519 218.17018 44.818286 214.04883 41.873047 C 208.57276 37.961348 203.96872 34.178795 201.31836 31.361328 C 198.54923 28.605628 196.74436 26.622818 195.31055 24.751953 z M 173.75 24.783203 C 172.41502 26.427754 170.75832 28.214135 168.38281 30.578125 C 165.73246 33.395592 161.12841 37.178145 155.65234 41.089844 C 151.53099 44.035083 148.02699 47.421986 145.38477 51.332031 C 141.45628 57.209188 140.74649 60.153118 139.44336 66.490234 C 130.11782 69.302779 123.20133 74.699262 118.49023 81.320312 C 115.67492 85.658521 112.51533 90.447749 110.30273 99.849609 C 109.13934 104.61758 108.65741 117.34254 114.39648 125.79492 C 114.53116 125.98209 114.65592 126.14009 114.78711 126.31641 C 111.22342 127.60061 108.06955 129.01082 105.21875 130.49023 C 104.05944 131.12262 102.52176 131.96349 101.1582 132.75195 C 94.484064 137.36846 92.209124 139.1037 89.146484 144.28516 C 83.640558 142.62541 78.068359 143.88281 78.068359 143.88281 C 73.7807 144.78924 69.970631 146.43038 66.634766 148.56836 C 53.727941 158.03751 51.552011 167.74504 49.558594 171.74414 C 40.864635 173.39742 32.850304 176.98601 25.970703 182.03516 L 23.822266 183.82812 C 27.857502 98.956138 92.67769 30.482339 173.75 24.783203 z M 184.72656 44.203125 C 184.72656 44.203125 191.02782 52.413562 201.5918 59.960938 C 212.01225 67.408733 211.00983 78.169211 209.67578 83.509766 C 210.09461 83.497616 210.50356 83.490234 210.91211 83.490234 C 229.10106 83.491222 235.56445 95.576545 235.56445 105.94141 C 235.56445 117.39863 229.64936 123.7207 218.90234 123.7207 C 214.27934 123.7207 211.09111 122.59571 208.90625 121.08594 C 212.09712 130.68342 224.50733 140.44742 242.66992 147.00195 C 260.06079 153.26797 265.09517 162.04199 266.55078 166.5332 C 270.11214 165.27825 273.49466 164.63867 276.65039 164.63867 C 293.15531 164.63867 298.22513 181.71294 298.28516 181.88867 L 298.84375 183.86523 L 296.88867 184.53711 C 291.4207 186.41443 287.6175 189.0152 285.55859 192.26758 L 301.91406 192.26758 C 325.74329 192.26758 345.11627 211.24913 345.77734 234.91406 L 345.77734 339.88867 L 345.77734 487.54688 C 345.77734 488.03026 345.75487 488.50965 345.70898 488.98047 C 345.61722 489.92197 345.43565 490.83393 345.17383 491.71094 C 344.78114 493.02649 344.20705 494.25934 343.48242 495.37695 C 343.24092 495.74946 342.98288 496.10923 342.70898 496.45508 C 342.43481 496.80126 342.14417 497.13411 341.83984 497.45117 C 339.40763 499.9855 336.04912 501.55273 332.33789 501.55273 L 184.69922 501.55273 L 37.060547 501.55273 C 29.63813 501.55273 23.619141 495.28105 23.619141 487.54688 L 23.619141 339.88867 L 23.619141 259.47266 L 23.642578 259.47266 L 23.642578 236.16016 C 23.642578 211.91753 43.292025 192.26758 67.539062 192.26758 L 83.890625 192.26758 C 81.831719 189.01374 78.030948 186.41443 72.564453 184.53711 L 70.609375 183.86523 L 71.169922 181.88867 C 71.231442 181.71149 76.295866 164.63867 92.800781 164.63867 C 95.956498 164.63867 99.343415 165.27825 102.90625 166.5332 C 104.35743 162.04345 109.39136 153.26797 126.77344 147.00195 C 144.94186 140.44596 157.35443 130.68342 160.54688 121.08594 C 158.36193 122.59571 155.16891 123.7207 150.54297 123.7207 C 139.79596 123.7207 133.88477 117.40009 133.88477 105.94141 C 133.88477 95.579472 140.32572 83.490234 158.52344 83.490234 C 158.93347 83.490234 159.34973 83.496636 159.77148 83.509766 C 158.43889 78.169211 157.43588 67.408733 167.85938 59.960938 C 178.74404 52.18805 184.72656 44.203125 184.72656 44.203125 z M 240.86719 130.19727 L 240.86719 130.51758 C 240.78905 130.48197 240.70063 130.44778 240.62305 130.41211 C 240.70763 130.33718 240.78375 130.27059 240.86719 130.19727 z "
     style="fill:#e6e5d7;fill-opacity:1;stroke:none;stroke-width:0.81804;stroke-miterlimit:4;stroke-dasharray:none;stroke-opacity:1"
     id="path1147-4-1" />
  <path
     sodipodi:nodetypes="cccccc"
     id="path1147-4-4"
     transform="scale(0.99822071)"
     d="m 1,506.19922 v 17.01562 l 15.328125,0.0254 c 4.224036,-0.67325 1.943106,-0.49433 2.886719,-2.80664 -4.352347,-9.82776 -6.313895,-16.80866 -15.0195315,-14.23437 z"
     style="fill:url(#radialGradient862);fill-opacity:1;stroke:none;stroke-width:0.81804;stroke-miterlimit:4;stroke-dasharray:none;stroke-opacity:1" />
  <g
     transform="matrix(0.99822071,0,0,0.99822071,138.70458,252.55214)"
     id="g951">
</g>
  <g
     transform="matrix(0.99822071,0,0,0.99822071,138.70458,252.55214)"
     id="g953">
</g>
  <g
     transform="matrix(0.99822071,0,0,0.99822071,138.70458,252.55214)"
     id="g955">
</g>
  <g
     transform="matrix(0.99822071,0,0,0.99822071,138.70458,252.55214)"
     id="g957">
</g>
  <g
     transform="matrix(0.99822071,0,0,0.99822071,138.70458,252.55214)"
     id="g959">
</g>
  <g
     transform="matrix(0.99822071,0,0,0.99822071,138.70458,252.55214)"
     id="g961">
</g>
  <g
     transform="matrix(0.99822071,0,0,0.99822071,138.70458,252.55214)"
     id="g963">
</g>
  <g
     transform="matrix(0.99822071,0,0,0.99822071,138.70458,252.55214)"
     id="g965">
</g>
  <g
     transform="matrix(0.99822071,0,0,0.99822071,138.70458,252.55214)"
     id="g967">
</g>
  <g
     transform="matrix(0.99822071,0,0,0.99822071,138.70458,252.55214)"
     id="g969">
</g>
  <g
     transform="matrix(0.99822071,0,0,0.99822071,138.70458,252.55214)"
     id="g971">
</g>
  <g
     transform="matrix(0.99822071,0,0,0.99822071,138.70458,252.55214)"
     id="g973">
</g>
  <g
     transform="matrix(0.99822071,0,0,0.99822071,138.70458,252.55214)"
     id="g975">
</g>
  <g
     transform="matrix(0.99822071,0,0,0.99822071,138.70458,252.55214)"
     id="g977">
</g>
  <g
     transform="matrix(0.99822071,0,0,0.99822071,138.70458,252.55214)"
     id="g979">
</g>
</svg>
