<?xml version="1.0" encoding="UTF-8" standalone="no"?>
<svg
   xmlns:svg="http://www.w3.org/2000/svg"
   xmlns="http://www.w3.org/2000/svg"
   xmlns:sodipodi="http://sodipodi.sourceforge.net/DTD/sodipodi-0.dtd"
   xmlns:inkscape="http://www.inkscape.org/namespaces/inkscape"
   id="Capa_1"
   enable-background="new 0 0 511.089 511.089"
   height="668.23932"
   viewBox="0 0 385.74906 667.05033"
   width="386.43665"
   version="1.1"
   sodipodi:docname="window.svg"
   inkscape:version="1.1-dev (a1a64ec, 2020-05-08)">
  <defs
     id="defs1158" />
  <sodipodi:namedview
     pagecolor="#ffffff"
     bordercolor="#666666"
     borderopacity="1"
     objecttolerance="10"
     gridtolerance="10"
     guidetolerance="10"
     inkscape:pageopacity="0"
     inkscape:pageshadow="2"
     inkscape:window-width="1440"
     inkscape:window-height="802"
     id="namedview1156"
     showgrid="false"
     lock-margins="true"
     inkscape:zoom="1.1690454"
     inkscape:cx="95.8793"
     inkscape:cy="234.32962"
     inkscape:window-x="0"
     inkscape:window-y="23"
     inkscape:window-maximized="0"
     inkscape:current-layer="Capa_1"
     showborder="true"
     fit-margin-top="1"
     fit-margin-left="1"
     fit-margin-right="1"
     fit-margin-bottom="1" />
  <path
     transform="scale(0.99822071)"
     d="M -9.3554688 -8.0195312 L -9.3554688 684.26367 L 403.60938 684.26367 L 403.60938 -8.0195312 L -9.3554688 -8.0195312 z M 191.80469 87.570312 C 196.1086 87.430907 199.62082 88.919413 204.79102 89.988281 C 241.81505 92.509497 275.55137 107.79082 301.97461 131.64844 L 301.97656 131.64844 C 311.97335 140.67471 320.92192 150.9287 328.60742 162.18164 C 330.14458 164.43232 331.63412 166.72391 333.06836 169.05273 C 334.50261 171.38158 335.88312 173.74897 337.21094 176.15234 C 341.1944 183.36246 344.69131 190.89927 347.6543 198.71484 C 348.64199 201.32 349.57022 203.95586 350.4375 206.62109 C 351.30485 209.28632 352.11001 211.98158 352.85352 214.70312 C 353.22521 216.06391 353.58176 217.42856 353.92188 218.80273 C 354.60214 221.55113 355.22032 224.3276 355.77148 227.12695 C 356.04703 228.5266 356.30619 229.93403 356.54883 231.3457 C 357.03417 234.16913 357.45366 237.01395 357.80469 239.88281 C 357.98023 241.31724 358.13803 242.75799 358.2793 244.20312 C 358.53767 246.84612 358.73147 249.50698 358.87305 252.18359 L 357.65234 251.16602 C 356.80163 283.01118 357.1723 281.11201 359.13281 305.56445 L 359.13281 413.24219 L 359.13281 564.70312 C 359.13281 565.19896 359.10958 565.6909 359.0625 566.17383 C 358.96836 567.13959 358.78226 568.07501 358.51367 568.97461 C 358.11088 570.32404 357.52258 571.58799 356.7793 572.73438 C 356.53158 573.11646 356.26529 573.48509 355.98438 573.83984 C 355.70313 574.19496 355.4059 574.53804 355.09375 574.86328 C 352.59887 577.46289 349.15448 579.07031 345.34766 579.07031 L 193.90625 579.07031 L 42.464844 579.07031 C 34.851257 579.07031 28.677734 572.63648 28.677734 564.70312 L 28.677734 413.24219 L 28.677734 330.75391 L 28.701172 330.75391 L 28.701172 306.8418 C 29.302173 297.46355 31.213046 269.29049 28.884766 253.16211 C 33.023919 166.10431 99.513549 95.867406 182.67383 90.021484 C 186.35455 88.323866 189.22234 87.653956 191.80469 87.570312 z "
     style="opacity:1;fill:#e2e1d4;fill-opacity:1;stroke:none;stroke-width:0.802;stroke-linecap:square;stroke-opacity:1"
     id="rect1371" />
  <path
     sodipodi:nodetypes="sscccccccssssssssssssccscccssssssssssscccccccccccccccscsccccccccccccccccssccccsscccsccccsccccccscccssccccscccssscccccccc"
     d="M 192.87453,72.823879 C 91.762956,72.823879 9.5021654,155.08467 9.5021654,256.19625 v 161.31792 176.59538 l 15.3008506,0.0253 H 192.87453 360.94604 l 15.30086,0.0916 V 417.51417 256.19625 c 0,-6.31948 -0.32034,-12.56577 -0.94753,-18.72249 -0.15679,-1.53918 -0.3336,-3.07337 -0.52836,-4.60118 -0.38955,-3.05559 -0.85537,-6.08795 -1.39399,-9.09511 -0.2693,-1.50359 -0.55591,-2.99928 -0.86175,-4.49004 -0.61171,-2.98151 -1.29609,-5.93778 -2.05103,-8.86506 -0.37746,-1.46362 -0.77283,-2.91983 -1.18539,-4.36917 -0.82513,-2.8987 -1.72014,-5.76903 -2.68272,-8.6077 -0.96258,-2.83866 -1.99212,-5.64773 -3.08824,-8.42249 -3.28839,-8.32426 -7.16781,-16.35003 -11.58873,-24.02943 -1.47362,-2.5598 -3.00942,-5.08033 -4.60116,-7.56074 -1.59177,-2.48041 -3.24031,-4.92184 -4.94627,-7.31899 -8.52946,-11.98536 -18.46399,-22.90643 -29.55864,-32.52016 h -0.002 C 280.63541,89.713157 238.6912,72.823879 192.87453,72.823879 Z m 10.59245,23.709691 c 36.03025,2.453535 68.86164,17.32379 94.57557,40.54102 h 0.002 c 9.72845,8.78397 18.43748,18.76373 25.9167,29.71462 1.49589,2.19026 2.94416,4.41903 4.33992,6.68534 1.39574,2.26633 2.73971,4.57069 4.03188,6.90956 3.87652,7.01659 7.28008,14.35117 10.16352,21.95696 0.96119,2.53524 1.86403,5.09963 2.70806,7.69332 0.84405,2.59368 1.62774,5.21639 2.35128,7.86488 0.3617,1.32424 0.70818,2.65364 1.03917,3.99094 0.662,2.67462 1.26314,5.37659 1.79952,8.1008 0.26816,1.36208 0.52033,2.73022 0.75646,4.104 0.4723,2.74764 0.88082,5.51756 1.22243,8.30941 0.17081,1.39593 0.3246,2.79712 0.46207,4.20345 0.25145,2.57204 0.43934,5.16264 0.5771,7.7674 l -1.18734,-0.99042 c -6.86736,-5.04016 -14.86743,-8.62236 -23.54592,-10.2727 -1.98987,-3.992 -4.16192,-13.68225 -17.04579,-23.13455 -3.32992,-2.13418 -7.13321,-3.7724 -11.41324,-4.67721 0,0 -5.56229,-1.25516 -11.05842,0.40163 -3.05719,-5.17224 -5.32809,-6.9044 -11.99035,-11.51268 -1.36113,-0.78706 -2.89607,-1.62643 -4.05332,-2.2577 -2.83671,-1.4721 -5.9747,-2.87605 -9.51819,-4.1547 5.45398,-8.43391 4.98428,-20.81123 3.84081,-25.49752 -2.20866,-9.38513 -5.36262,-14.16584 -8.17293,-18.49633 -4.70271,-6.60927 -11.6069,-11.99615 -20.91585,-14.80369 -1.30081,-6.32584 -2.00934,-9.26453 -5.93083,-15.13123 -2.63752,-3.90309 -6.13529,-7.28397 -10.24931,-10.22397 -5.46632,-3.90474 -10.06217,-7.68056 -12.70782,-10.49302 -2.7642,-2.75079 -4.56586,-4.730074 -5.99712,-6.59761 z m -21.52218,0.03119 c -1.33261,1.641625 -2.98636,3.424828 -5.35764,5.78461 -2.64564,2.81246 -7.2415,6.58828 -12.70782,10.49302 -4.11402,2.94 -7.61178,6.32088 -10.2493,10.22396 -3.9215,5.8667 -4.63003,8.80539 -5.93084,15.13124 -9.30895,2.80754 -16.21313,8.19442 -20.91585,14.80369 -2.8103,4.33049 -5.96427,9.1112 -8.17293,18.49633 -1.16132,4.75948 -1.64239,17.4618 4.08646,25.89914 0.13444,0.18684 0.25898,0.34456 0.38994,0.52057 -3.55735,1.28191 -6.70561,2.68961 -9.55134,4.16639 -1.15724,0.63126 -2.69219,1.47064 -4.05332,2.2577 -6.66226,4.60829 -8.93315,6.34044 -11.990354,11.51268 -5.49612,-1.65679 -11.05841,-0.40163 -11.05841,-0.40163 -4.28003,0.90482 -8.08332,2.54304 -11.41325,4.67721 -12.88386,9.45231 -15.05592,19.14256 -17.04579,23.13455 -8.67849,1.65034 -16.67856,5.23254 -23.54592,10.27271 l -2.14461,1.78977 C 36.311876,170.60573 101.01674,102.25376 181.9448,96.564764 Z m 10.95703,19.38537 c 0,0 6.29004,8.19583 16.83523,15.72978 10.40191,7.43454 9.40127,18.17587 8.06959,23.50693 0.41809,-0.0121 0.82631,-0.0195 1.23413,-0.0195 18.15659,9.8e-4 24.60848,12.0648 24.60848,22.41122 0,11.43683 -5.90456,17.74765 -16.63246,17.74765 -4.61478,0 -7.79733,-1.12298 -9.97831,-2.63007 3.1852,9.58041 15.57332,19.32703 33.7036,25.8699 17.35992,6.25487 22.38535,15.01328 23.83837,19.4965 3.55502,-1.25272 6.93152,-1.89116 10.08164,-1.89116 16.47555,0 21.53635,17.04389 21.59627,17.21931 l 0.5576,1.97304 -1.9516,0.67068 c -5.45824,1.87398 -9.25468,4.47013 -11.30992,7.71672 h 16.32637 c 23.78683,0 43.12534,18.94778 43.78523,42.5706 v 104.78783 147.39548 c -0.0296,7.54684 0.0566,7.69017 0.0148,13.98093 H 192.87453 32.157299 c -0.0548,-6.17407 -0.07624,-6.26052 -0.07624,-13.98093 V 411.10957 330.83664 h 0.0234 v -23.27102 c 0,-24.19949 19.61449,-43.81448 43.81838,-43.81448 h 16.32247 c -2.05524,-3.24805 -5.84925,-5.84274 -11.30602,-7.71672 l -1.9516,-0.67068 0.55955,-1.97304 c 0.0614,-0.17687 5.11683,-17.21931 21.592371,-17.21931 3.15011,0 6.531,0.63844 10.08749,1.89116 1.4486,-4.48176 6.47357,-13.24163 23.82472,-19.4965 18.13609,-6.54432 30.52658,-16.28949 33.71335,-25.8699 -2.18106,1.50709 -5.3684,2.63007 -9.98611,2.63007 -10.72789,0 -16.62856,-6.30936 -16.62856,-17.74765 0,-10.3435 6.42949,-22.41123 24.59483,-22.41123 0.4093,0 0.82482,0.006 1.24583,0.0195 -1.33022,-5.33105 -2.33145,-16.07238 8.07351,-23.50693 10.86528,-7.75905 16.83716,-15.72977 16.83716,-15.72977 z m 56.04074,85.84114 v 0.31974 c -0.078,-0.0356 -0.16627,-0.0697 -0.24371,-0.10528 0.0844,-0.0748 0.16041,-0.14127 0.24371,-0.21446 z"
     style="fill:#e6e5d7;fill-opacity:1;stroke:none;stroke-width:0.816584;stroke-miterlimit:4;stroke-dasharray:none;stroke-opacity:1"
     id="path1147-4-1" />
  <g
     transform="matrix(0.99822071,0,0,0.99822071,147.42226,314.1566)"
     id="g951">
</g>
  <g
     transform="matrix(0.99822071,0,0,0.99822071,147.42226,314.1566)"
     id="g953">
</g>
  <g
     transform="matrix(0.99822071,0,0,0.99822071,147.42226,314.1566)"
     id="g955">
</g>
  <g
     transform="matrix(0.99822071,0,0,0.99822071,147.42226,314.1566)"
     id="g957">
</g>
  <g
     transform="matrix(0.99822071,0,0,0.99822071,147.42226,314.1566)"
     id="g959">
</g>
  <g
     transform="matrix(0.99822071,0,0,0.99822071,147.42226,314.1566)"
     id="g961">
</g>
  <g
     transform="matrix(0.99822071,0,0,0.99822071,147.42226,314.1566)"
     id="g963">
</g>
  <g
     transform="matrix(0.99822071,0,0,0.99822071,147.42226,314.1566)"
     id="g965">
</g>
  <g
     transform="matrix(0.99822071,0,0,0.99822071,147.42226,314.1566)"
     id="g967">
</g>
  <g
     transform="matrix(0.99822071,0,0,0.99822071,147.42226,314.1566)"
     id="g969">
</g>
  <g
     transform="matrix(0.99822071,0,0,0.99822071,147.42226,314.1566)"
     id="g971">
</g>
  <g
     transform="matrix(0.99822071,0,0,0.99822071,147.42226,314.1566)"
     id="g973">
</g>
  <g
     transform="matrix(0.99822071,0,0,0.99822071,147.42226,314.1566)"
     id="g975">
</g>
  <g
     transform="matrix(0.99822071,0,0,0.99822071,147.42226,314.1566)"
     id="g977">
</g>
  <g
     transform="matrix(0.99822071,0,0,0.99822071,147.42226,314.1566)"
     id="g979">
</g>
</svg>
