<?xml version="1.0" encoding="UTF-8" standalone="no"?>
<svg
   xmlns:svg="http://www.w3.org/2000/svg"
   xmlns="http://www.w3.org/2000/svg"
   xmlns:sodipodi="http://sodipodi.sourceforge.net/DTD/sodipodi-0.dtd"
   xmlns:inkscape="http://www.inkscape.org/namespaces/inkscape"
   inkscape:version="1.1-dev (a1a64ec, 2020-05-08)"
   sodipodi:docname="window.svg"
   version="1.1"
   width="512"
   viewBox="0 0 511.089 511.089"
   height="512"
   enable-background="new 0 0 511.089 511.089"
   id="Capa_1">
  <defs
     id="defs1158" />
  <sodipodi:namedview
     showborder="false"
     inkscape:current-layer="Capa_1"
     inkscape:window-maximized="0"
     inkscape:window-y="23"
     inkscape:window-x="0"
     inkscape:cy="362.1827"
     inkscape:cx="240.53191"
     inkscape:zoom="1.3359875"
     lock-margins="true"
     showgrid="false"
     id="namedview1156"
     inkscape:window-height="802"
     inkscape:window-width="1440"
     inkscape:pageshadow="2"
     inkscape:pageopacity="0"
     guidetolerance="10"
     gridtolerance="10"
     objecttolerance="10"
     borderopacity="1"
     bordercolor="#666666"
     pagecolor="#ffffff" />
  <path
     d="m 255.5445,-5.157832 c -101.11157,0 -183.372362,82.26079 -183.372362,183.372372 v 161.31987 176.59342 l 15.29891,0.0254 H 255.5445 423.61601 l 15.30085,0.0936 V 339.53441 178.21454 c 0,-6.31947 -0.32228,-12.56578 -0.94948,-18.72249 -0.15679,-1.5392 -0.33165,-3.07144 -0.5264,-4.59922 -0.38957,-3.05562 -0.85538,-6.08992 -1.394,-9.09708 -0.2693,-1.50359 -0.55785,-2.99928 -0.86369,-4.49004 -0.61171,-2.9815 -1.29415,-5.93777 -2.04909,-8.86505 -0.37747,-1.46365 -0.77283,-2.91983 -1.18539,-4.36918 -0.82512,-2.89869 -1.72014,-5.76708 -2.68272,-8.60575 -0.96256,-2.83866 -1.9921,-5.64773 -3.08824,-8.42248 -3.28839,-8.32429 -7.16975,-16.351982 -11.59066,-24.031382 -1.47364,-2.5598 -3.00748,-5.08033 -4.59923,-7.56074 -1.59175,-2.48041 -3.24225,-4.92184 -4.94821,-7.31899 -8.52948,-11.98536 -18.46205,-22.90643 -29.55669,-32.52016 0,0 -0.002,0 -0.002,0 C 343.30531,11.731448 301.36117,-5.1578319 255.5445,-5.157832 Z m 0,24.40572 c 40.17491,0 76.95448,15.43146 105.16801,40.9056 0,0 0.002,0 0.002,0 9.72845,8.78397 18.43748,18.76372 25.9167,29.71461 1.49589,2.19026 2.94415,4.41903 4.33991,6.68535 1.39574,2.26632 2.73972,4.570692 4.03189,6.909562 3.87652,7.01659 7.28008,14.35116 10.16352,21.95695 0.96119,2.53524 1.86402,5.09965 2.70806,7.69333 0.84404,2.59368 1.62774,5.21639 2.35128,7.86488 0.3617,1.32424 0.70817,2.65363 1.03916,3.99093 0.662,2.67462 1.26314,5.3766 1.79952,8.1008 0.26816,1.36209 0.52034,2.73022 0.75647,4.10401 0.4723,2.74764 0.88083,5.51755 1.22244,8.30941 0.1708,1.39593 0.32458,2.79713 0.46206,4.20345 0.54995,5.62532 0.83055,11.33219 0.83055,17.10622 v 147.39548 147.39547 c 0,0.48252 -0.0224,0.96107 -0.0682,1.43105 -0.0916,0.93983 -0.27285,1.85016 -0.53421,2.72561 -0.39199,1.31321 -0.96505,2.54387 -1.68839,3.65949 -0.24107,0.37184 -0.49865,0.73098 -0.77206,1.07621 -0.27369,0.34557 -0.56381,0.67782 -0.86759,0.99432 -2.42789,2.52982 -5.78042,4.09426 -9.48505,4.09426 H 255.5445 108.16852 c -7.40921,0 -13.417472,-6.26053 -13.417472,-13.98094 V 334.18847 186.79299 c 0,-92.384592 72.132542,-167.545102 160.793452,-167.545102 z"
     style="fill:#f3f5f5;stroke:none;stroke-width:0.816584;stroke-miterlimit:4;stroke-dasharray:none;fill-opacity:1"
     id="path1147-4-1" />
  <path
     d="m 255.54451,-5.156791 c -101.11158,0 -183.372371,82.26079 -183.372371,183.372371 V 339.5335 516.12889 l 15.30086,0.0253 H 255.54451 423.616 l 15.30086,0.0916 V 339.5335 178.21558 c 0,-6.31947 -0.32034,-12.56576 -0.94753,-18.72249 -0.15679,-1.53918 -0.3336,-3.07337 -0.52836,-4.60117 -0.38956,-3.0556 -0.85537,-6.08796 -1.39399,-9.09512 -0.2693,-1.50359 -0.55591,-2.99929 -0.86175,-4.49005 -0.61171,-2.9815 -1.29608,-5.93777 -2.05103,-8.86505 -0.37746,-1.46362 -0.77283,-2.91983 -1.18539,-4.36917 -0.82513,-2.8987 -1.72014,-5.76903 -2.68272,-8.6077 -0.96258,-2.83866 -1.99211,-5.64773 -3.08824,-8.42249 -3.28839,-8.32426 -7.16781,-16.350021 -11.58873,-24.029431 -1.47363,-2.5598 -3.00942,-5.08033 -4.60116,-7.56074 -1.59176,-2.48041 -3.24031,-4.92184 -4.94627,-7.31899 -8.52947,-11.98536 -18.46399,-22.90643 -29.55864,-32.52016 0,0 -0.002,0 -0.002,0 -32.17573,-27.88053 -74.11988,-44.76981 -119.93654,-44.76981 z m 0,2.89328 c 45.03106,0 86.25565,16.70442 117.87972,44.28045 0,0 0.002,0 0.002,0 10.90441,9.50874 20.66849,20.31086 29.05172,32.16532 1.67671,2.37097 3.29797,4.78573 4.86244,7.23905 1.56444,2.45333 3.07288,4.94506 4.52123,7.47691 4.34511,7.59554 8.15786,15.534831 11.38985,23.768191 1.07736,2.74442 2.08954,5.52318 3.03561,8.33085 0.94605,2.80769 1.82688,5.64513 2.63787,8.51216 0.40545,1.43352 0.79297,2.87474 1.16395,4.32238 0.742,2.89529 1.41471,5.81861 2.01593,8.76758 0.3006,1.47446 0.5834,2.95416 0.8481,4.44129 0.52938,2.97435 0.98771,5.97543 1.37061,8.99765 0.19146,1.51109 0.36257,3.02615 0.51665,4.54853 0.61645,6.08946 0.93388,12.26927 0.93388,18.51972 V 338.662 498.2194 c 0,0.52233 -0.0284,1.0393 -0.0799,1.54802 -0.10267,1.0174 -0.30367,2.00411 -0.59659,2.95177 -0.4394,1.42156 -1.08238,2.75404 -1.89312,3.96169 -0.27024,0.40254 -0.55918,0.79025 -0.86563,1.16394 -0.30678,0.37408 -0.63041,0.73357 -0.97093,1.0762 -2.72133,2.73855 -6.48098,4.43156 -10.63339,4.43156 h -165.19 -165.189931 c -8.3048,0 -15.0396,-6.77576 -15.0396,-15.13318 V 338.662 179.10657 c 0,-100.007281 80.851641,-181.370081 180.229531,-181.370081 z"
     style="fill:#413d30;stroke:none;stroke-width:0.816584;stroke-miterlimit:4;stroke-dasharray:none;fill-opacity:1"
     id="path1147-4" />
</svg>
