<?xml version="1.0" encoding="iso-8859-1"?>
<!-- Generator: Adobe Illustrator 18.0.0, SVG Export Plug-In . SVG Version: 6.00 Build 0)  -->
<!DOCTYPE svg PUBLIC "-//W3C//DTD SVG 1.1//EN" "http://www.w3.org/Graphics/SVG/1.1/DTD/svg11.dtd">
<svg version="1.1" id="Capa_1" xmlns="http://www.w3.org/2000/svg" xmlns:xlink="http://www.w3.org/1999/xlink" x="0px" y="0px"
	 viewBox="0 0 361.984 361.984" style="enable-background:new 0 0 361.984 361.984;" xml:space="preserve">
<path d="M0,355.952h361.984V6.032H0V355.952z M29.466,335.952l10.179-10.179l10.179,10.179H29.466z M152.339,63.907l-10.312-10.312
	l10.313-10.313l10.313,10.312L152.339,63.907z M167.222,56.096h4.04c-1.573,1.679-4.146,4.171-7.584,6.626
	c-2.517,1.799-4.577,3.945-6.191,6.333l-1.612-1.612L167.222,56.096z M98.493,136.096v-14.068l9.946-9.948l12.668,12.668
	l-8.147,8.147c-2.93,0.62-5.533,1.74-7.813,3.201H98.493z M99.466,141.096c-0.337,0.397-0.661,0.802-0.973,1.212v-1.212H99.466z
	 M111.974,108.544l9.947-9.948h14.072v11.267l-11.35,11.349L111.974,108.544z M111.974,83.647l12.67-12.67l11.348,11.348v11.271
	H121.92L111.974,83.647z M138.492,114.434l2.339,2.339c0.369,0.474,0.738,0.907,1.098,1.29c0.273,0.29,0.568,0.587,0.887,0.885
	c-1.453,0.667-3.046,1.322-4.783,1.949c-3.651,1.316-6.718,2.813-9.308,4.395l-0.545-0.545L138.492,114.434z M142.611,85.249
	c-0.581,0.646-1.114,1.329-1.619,2.033v-4.957l11.348-11.347l2.702,2.702c-0.569,1.466-0.996,2.991-1.267,4.565
	C148.459,79.865,144.888,82.719,142.611,85.249z M148.804,67.442l-10.312,10.312L128.18,67.442l10.312-10.312L148.804,67.442z
	 M124.645,63.907l-10.313-10.313l10.313-10.312l10.313,10.313L124.645,63.907z M121.109,67.442l-12.669,12.669l-9.946-9.949V56.096
	h11.269L121.109,67.442z M117.35,96.096l-21.356,21.36l-21.358-21.36l21.358-21.363L117.35,96.096z M70.064,98.596l9.945,9.947
	l-12.669,12.668l-11.348-11.348V98.596H70.064z M55.993,93.596V82.325L67.34,70.978l12.67,12.67l-9.946,9.948H55.993z
	 M63.806,124.746L53.492,135.06L43.18,124.747l10.313-10.313L63.806,124.746z M63.805,152.442l-10.312,10.311l-10.313-10.312
	l10.312-10.312L63.805,152.442z M57.027,138.595l10.313-10.313l10.312,10.313L67.34,148.907L57.027,138.595z M82.222,141.096h11.271
	v10.826c-5.938,1.129-11.412,3.579-16.111,7.028l-6.507-6.507L82.222,141.096z M82.226,136.096l-11.35-11.35l12.668-12.668
	l9.949,9.95v14.068H82.226z M93.493,70.162l-9.948,9.95l-12.67-12.669l11.347-11.347h11.271V70.162z M67.34,63.907L57.027,53.595
	l10.313-10.313l10.312,10.313L67.34,63.907z M63.805,67.442L53.493,77.753L43.181,67.441L53.492,57.13L63.805,67.442z
	 M39.646,63.907L29.332,53.594l10.313-10.312l10.313,10.313L39.646,63.907z M50.993,82.325v11.271h-14.07l-9.948-9.95l12.669-12.669
	L50.993,82.325z M50.993,98.596v11.267l-11.351,11.35l-12.668-12.668l9.949-9.949H50.993z M39.645,128.282l10.313,10.313
	l-10.312,10.312l-10.314-10.313L39.645,128.282z M50.993,167.325v11.271h-14.07l-9.949-9.949l12.67-12.669L50.993,167.325z
	 M50.993,183.596v11.267l-11.351,11.35l-12.668-12.667l9.949-9.949H50.993z M39.644,213.283l10.313,10.314l-10.312,10.312
	l-10.314-10.314L39.644,213.283z M50.993,252.327v11.064H36.718l-9.743-9.743l12.669-12.669L50.993,252.327z M50.993,268.596v11.062
	l-11.351,11.35L26.975,278.34l9.744-9.744H50.993z M39.644,298.078l10.313,10.314l-10.312,10.311l-10.314-10.314L39.644,298.078z
	 M61.018,335.952h-3.856l3.856-3.856V335.952z M61.018,325.025l-7.525,7.525l-10.313-10.312l10.312-10.312l7.526,7.526V325.025z
	 M61.018,312.382l-3.991-3.991l3.991-3.991V312.382z M61.018,297.331l-7.526,7.526l-10.313-10.314l10.314-10.314l7.525,7.525
	V297.331z M61.018,284.683l-5.025-5.025v-11.062h5.025V284.683z M61.018,263.391h-5.025v-11.064l5.025-5.025V263.391z
	 M61.018,240.23l-7.525,7.525l-10.313-10.312l10.312-10.312l7.526,7.526V240.23z M61.018,227.587l-3.991-3.991l3.991-3.991V227.587z
	 M61.018,212.536l-7.526,7.526l-10.313-10.313l10.314-10.314l7.525,7.525V212.536z M61.018,191.164v8.724l-5.025-5.025v-11.267
	h5.751C61.272,186.048,61.018,188.576,61.018,191.164z M55.993,178.596v-11.271l11.347-11.347l6.188,6.189
	c-4.735,4.483-8.377,10.106-10.479,16.429H55.993z M290.992,336.404h-220v-145.24c0-16.555,13.417-29.974,29.975-29.974h11.166
	c-1.406-2.222-4.001-3.996-7.734-5.278l-1.335-0.459l0.382-1.349c0.042-0.121,3.501-11.78,14.772-11.78
	c2.155,0,4.467,0.436,6.9,1.293c0.991-3.066,4.43-9.059,16.3-13.338c12.407-4.477,20.883-11.143,23.063-17.697
	c-1.492,1.031-3.672,1.799-6.831,1.799c-7.339,0-11.377-4.316-11.377-12.141c0-7.076,4.399-15.332,16.826-15.332
	c0.28,0,0.565,0.004,0.853,0.013c-0.91-3.647-1.595-10.996,5.523-16.082c7.433-5.308,11.518-10.759,11.518-10.759
	s4.303,5.605,11.517,10.759c7.116,5.086,6.431,12.435,5.52,16.082c0.286-0.008,0.566-0.013,0.845-0.013
	c12.421,0.001,16.835,8.254,16.835,15.332c0,7.824-4.039,12.141-11.378,12.141c-3.157,0-5.335-0.768-6.827-1.799
	c2.179,6.554,10.654,13.221,23.057,17.697c11.876,4.279,15.313,10.271,16.307,13.338c2.432-0.857,4.743-1.293,6.898-1.293
	c11.271,0,14.732,11.659,14.773,11.779l0.382,1.35l-1.335,0.459c-3.734,1.282-6.33,3.057-7.736,5.278h11.167
	c16.558,0,29.976,13.419,29.976,29.974V336.404z M300.966,297.331v-5.576l7.526-7.525l10.314,10.314l-10.314,10.314L300.966,297.331
	z M304.957,308.392l-3.991,3.991v-7.981L304.957,308.392z M305.992,93.596H291.92l-9.946-9.949l12.67-12.67l11.348,11.348V93.596z
	 M308.492,114.434l10.313,10.313l-10.313,10.313l-10.313-10.313L308.492,114.434z M305.992,98.596v11.267l-11.35,11.349
	l-12.669-12.668l9.947-9.948H305.992z M291.107,124.747l-11.349,11.349h-11.265v-14.068l9.946-9.948L291.107,124.747z
	 M279.762,141.096l11.347,11.346l-6.507,6.507c-4.698-3.448-10.171-5.898-16.108-7.027v-10.827H279.762z M284.332,138.594
	l10.313-10.312l10.313,10.313l-10.312,10.312L284.332,138.594z M308.492,142.13l10.312,10.312l-10.312,10.312l-10.312-10.312
	L308.492,142.13z M318.806,209.748l-10.314,10.314l-7.526-7.526v-5.576l7.526-7.525L318.806,209.748z M304.957,223.597l-3.991,3.991
	v-7.981L304.957,223.597z M308.492,227.132l10.312,10.312l-10.312,10.312l-7.526-7.526v-5.571L308.492,227.132z M305.992,252.327
	v11.064h-5.026v-16.09L305.992,252.327z M305.992,268.596v11.062l-5.026,5.026v-16.088H305.992z M322.341,298.078l10.311,10.311
	l-10.314,10.314l-10.311-10.311L322.341,298.078z M310.992,279.658v-11.062h14.274l9.743,9.744l-12.668,12.667L310.992,279.658z
	 M310.992,263.391v-11.064l11.348-11.348l12.669,12.669l-9.743,9.744H310.992z M322.339,233.908l-10.311-10.312l10.314-10.314
	l10.311,10.311L322.339,233.908z M310.992,194.863v-11.267h14.069l9.948,9.949l-12.668,12.667L310.992,194.863z M310.992,178.596
	v-11.271l11.347-11.347l12.67,12.669l-9.948,9.949H310.992z M312.027,138.595l10.313-10.313l10.313,10.312l-10.313,10.313
	L312.027,138.595z M310.992,109.863V98.596h14.069l9.947,9.948l-12.668,12.667L310.992,109.863z M310.992,93.596V82.325
	l11.348-11.347l12.669,12.669l-9.948,9.949H310.992z M322.339,63.907l-10.312-10.312l10.313-10.313l10.313,10.312L322.339,63.907z
	 M318.804,67.442l-10.312,10.312L298.18,67.442l10.312-10.312L318.804,67.442z M294.645,63.907l-10.313-10.313l10.313-10.312
	l10.313,10.313L294.645,63.907z M291.109,67.442L278.44,80.111l-9.946-9.949V56.096h11.269L291.109,67.442z M287.35,96.096
	l-21.356,21.36l-21.358-21.36l21.358-21.363L287.35,96.096z M256.833,136.096c-2.278-1.46-4.88-2.581-7.808-3.2l-8.149-8.15
	l12.668-12.668l9.949,9.95v14.068H256.833z M263.493,141.096v1.219c-0.313-0.413-0.638-0.819-0.978-1.219H263.493z M220.051,118.063
	c0.355-0.379,0.72-0.805,1.085-1.272l2.357-2.357l10.313,10.312l-0.548,0.548c-2.593-1.583-5.662-3.082-9.316-4.398
	c-1.735-0.626-3.326-1.28-4.777-1.947C219.483,118.651,219.779,118.354,220.051,118.063z M208.204,78.23
	c-0.271-1.569-0.696-3.089-1.262-4.55l2.703-2.703l11.349,11.348v4.959C218.118,83.242,213.897,79.947,208.204,78.23z
	 M225.993,109.863V98.596h14.071l9.945,9.947l-12.668,12.668L225.993,109.863z M225.993,93.596V82.325l11.347-11.347l12.67,12.67
	l-9.946,9.948H225.993z M263.493,70.162l-9.948,9.95l-12.67-12.669l11.347-11.347h11.271V70.162z M237.34,63.907l-10.313-10.313
	l10.313-10.313l10.312,10.313L237.34,63.907z M233.805,67.442l-10.312,10.311l-10.313-10.312l10.312-10.311L233.805,67.442z
	 M209.645,63.907l-10.314-10.313l10.313-10.312l10.313,10.313L209.645,63.907z M206.109,67.442l-1.613,1.613
	c-1.613-2.387-3.672-4.533-6.188-6.331c-3.343-2.388-5.945-4.908-7.563-6.628h4.018L206.109,67.442z M288.456,162.166l6.189-6.189
	l11.348,11.348v11.271h-7.057C296.833,172.273,293.191,166.648,288.456,162.166z M305.992,183.596v11.267l-5.026,5.026v-8.725
	c0-2.588-0.254-5.116-0.726-7.568H305.992z M300.966,335.952v-3.857l3.857,3.857H300.966z M300.966,325.024v-5.571l7.526-7.526
	l10.312,10.312l-10.312,10.312L300.966,325.024z M312.162,335.952l10.178-10.179l10.18,10.179H312.162z M341.984,331.467l-3.44,3.44
	l-12.669-12.668l11.347-11.348h4.762V331.467z M341.984,305.891h-4.758l-11.349-11.349l12.667-12.667l3.44,3.44V305.891z
	 M341.984,278.243l-12.25-12.25l12.25-12.25V278.243z M341.984,246.672l-3.44,3.44l-12.669-12.668l11.347-11.348h4.762V246.672z
	 M341.984,221.096h-4.758l-11.349-11.349l12.667-12.667l3.44,3.44V221.096z M341.984,193.448l-12.353-12.353l12.353-12.353V193.448z
	 M341.984,161.672l-3.44,3.44l-12.669-12.669l11.347-11.347h4.762V161.672z M341.984,136.096h-4.758l-11.35-11.35l12.667-12.668
	l3.441,3.441V136.096z M341.984,108.448l-12.353-12.353l12.353-12.354V108.448z M341.984,76.67l-3.44,3.441l-12.669-12.669
	l11.347-11.347h4.762V76.67z M341.984,30.519v20.577h-4.758l-11.35-11.35l12.668-12.668L341.984,30.519z M332.52,26.032
	l-10.179,10.179l-10.179-10.179H332.52z M318.805,39.747L308.492,50.06l-10.313-10.313l10.313-10.313L318.805,39.747z
	 M304.823,26.032l-10.18,10.179l-10.179-10.179H304.823z M291.108,39.747l-11.35,11.349h-11.265V37.027l9.946-9.949L291.108,39.747z
	 M272.415,26.032l-6.422,6.424l-6.423-6.424H272.415z M263.493,37.027v14.068h-11.267l-11.35-11.35l12.669-12.668L263.493,37.027z
	 M247.52,26.032L237.341,36.21l-10.178-10.178H247.52z M233.806,39.746L223.492,50.06L213.18,39.747l10.313-10.313L233.806,39.746z
	 M219.823,26.032l-10.18,10.179l-10.18-10.179H219.823z M206.108,39.747l-11.35,11.349h-8.089l-3.176-4.138v-9.93l9.947-9.949
	L206.108,39.747z M187.416,26.032l-6.423,6.424l-6.424-6.424H187.416z M178.492,37.028v9.542l-3.295,4.526h-7.971l-11.35-11.35
	l12.668-12.668L178.492,37.028z M162.52,26.032l-10.179,10.179l-10.179-10.179H162.52z M148.805,39.747L138.492,50.06
	l-10.313-10.313l10.313-10.313L148.805,39.747z M134.823,26.032l-10.18,10.179l-10.179-10.179H134.823z M121.108,39.747
	l-11.35,11.349H98.493V37.027l9.946-9.949L121.108,39.747z M102.415,26.032l-6.422,6.424l-6.423-6.424H102.415z M93.493,37.027
	v14.068H82.226l-11.35-11.35l12.669-12.668L93.493,37.027z M77.52,26.032L67.341,36.21L57.163,26.032H77.52z M63.806,39.746
	L53.492,50.06L43.18,39.747l10.313-10.313L63.806,39.746z M49.823,26.032l-10.18,10.179l-10.18-10.179H49.823z M20,30.52l3.44-3.441
	l12.668,12.668l-11.35,11.349H20V30.52z M20,56.096h4.763l11.347,11.346L23.44,80.11L20,76.669V56.096z M20,83.741l12.353,12.354
	L20,108.449V83.741z M20,115.521l3.44-3.44l12.667,12.667l-11.349,11.348H20V115.521z M20,141.096h4.763l11.347,11.346
	l-12.67,12.669l-3.44-3.44V141.096z M20,168.743l12.353,12.353L20,193.449V168.743z M20,200.52l3.44-3.44l12.667,12.667
	l-11.349,11.348H20V200.52z M20,226.096h4.762l11.348,11.348l-12.67,12.668L20,246.671V226.096z M20,253.743l12.25,12.25L20,278.244
	V253.743z M20,285.315l3.44-3.44l12.667,12.667l-11.349,11.348H20V285.315z M20,310.891h4.762l11.348,11.348l-12.67,12.668
	L20,331.466V310.891z"/>
<g>
</g>
<g>
</g>
<g>
</g>
<g>
</g>
<g>
</g>
<g>
</g>
<g>
</g>
<g>
</g>
<g>
</g>
<g>
</g>
<g>
</g>
<g>
</g>
<g>
</g>
<g>
</g>
<g>
</g>
</svg>
